<mxfile host="app.diagrams.net" modified="2023-07-23T09:04:17.855Z" agent="Mozilla/5.0 (Windows NT 10.0; Win64; x64) AppleWebKit/537.36 (KHTML, like Gecko) Chrome/114.0.0.0 Safari/537.36" etag="0DIAM_YqtDmu2Y6AZLy2" version="21.6.5" type="device">
  <diagram name="Page-1" id="2YBvvXClWsGukQMizWep">
    <mxGraphModel dx="2950" dy="2182" grid="1" gridSize="10" guides="1" tooltips="1" connect="1" arrows="1" fold="1" page="1" pageScale="1" pageWidth="850" pageHeight="1100" math="0" shadow="0">
      <root>
        <mxCell id="0" />
        <mxCell id="1" parent="0" />
        <mxCell id="L7ELWCS3wUbe0nNfrqdp-1" value="&lt;font style=&quot;font-size: 17px;&quot;&gt;Roadside Communication Unit (RSCU)&lt;/font&gt;" style="shape=umlLifeline;perimeter=lifelinePerimeter;whiteSpace=wrap;html=1;container=0;dropTarget=0;collapsible=0;recursiveResize=0;outlineConnect=0;portConstraint=eastwest;newEdgeStyle={&quot;edgeStyle&quot;:&quot;elbowEdgeStyle&quot;,&quot;elbow&quot;:&quot;vertical&quot;,&quot;curved&quot;:0,&quot;rounded&quot;:0};strokeWidth=2;fontSize=15;fontStyle=1;size=40;" parent="1" vertex="1">
          <mxGeometry x="450" y="20" width="240" height="1540" as="geometry" />
        </mxCell>
        <mxCell id="e1xb1ZiiVn83qvHqSyir-2" value="" style="html=1;points=[];perimeter=orthogonalPerimeter;outlineConnect=0;targetShapes=umlLifeline;portConstraint=eastwest;newEdgeStyle={&quot;edgeStyle&quot;:&quot;elbowEdgeStyle&quot;,&quot;elbow&quot;:&quot;vertical&quot;,&quot;curved&quot;:0,&quot;rounded&quot;:0};container=0;strokeWidth=2;" parent="L7ELWCS3wUbe0nNfrqdp-1" vertex="1">
          <mxGeometry x="113.5" y="80" width="13" height="1420" as="geometry" />
        </mxCell>
        <mxCell id="L7ELWCS3wUbe0nNfrqdp-10" value="" style="shape=image;verticalLabelPosition=bottom;labelBackgroundColor=default;verticalAlign=top;aspect=fixed;imageAspect=0;image=data:image/png,iVBORw0KGgoAAAANSUhEUgAAAIAAAACACAYAAADDPmHLAAAACXBIWXMAAAOwAAADsAEnxA+tAAAAGXRFWHRTb2Z0d2FyZQB3d3cuaW5rc2NhcGUub3Jnm+48GgAADdNJREFUeJztnWvMHkUVx3+9Ya/YImipQFEuIgglSpFgIC0otJSCXAoINIogJgRiICGE1PhBLiIoRSAKHzQQLHdEwGgQKYJAASkCQikggkKJUKr2Rm/0ffwwz/o+e2Z3LvvM3sr8kvmw73tm9+zuPLOz/zlnFtrJEGA2sBBYA9wMjKjw+COAW4C1XR9mA0MrPP6HlqHAXGAJ0BHl5Ar9OCXj+EuAU4kNoTQOBZ5Bv/BNaQBJWdz1NRKITwC3k3/BO8CtVP8IuNXi0+1d3yN9MBdYQfYF3gjcBEypzTt17Ju6vmT5+B7qsRDxZDRwI9kXdQBYAOxcl3MZfAo1EB0g2+cbUOcUcWA34HmyL+STwH71uWZlKvAU2b4/D+xan2vtYH/gXfSL9z5wATCsPtecGQqciXo9leexAvhSfa41m6NQ79Xyor0A7FGjX0XZE3gR/XzWAkfW6FcjOZrsgdQCYEyNfvXLWNQ5yPPagBKPIsBhwDr0i3QZSvHbEriA7EYwq06nmsB+6N3+B8DpnvsZChwHLAJWAvMD+phwVXffjwPH4K/4nQlsRn8cfCGgj61iEvAm+ivemZ77OQw1TpC/sJCDrYMy9v8c/orfaeiN4G1gh2CetoSPAE+jX9Rve+xjInB3xj7KaAAHG45zJ36K31kZ+3gK2Cqgv43nSvSL8AOP+sehVLasG7IZ1V2H5hr0X29SlgNf9djXFRn7uCKks01mBrpidjduz9RhwOUZ9ZMbfyPlvjLuRf68xABq4OqiVQwF7s2of3h4l5vFGOB10if+T2CCQ91RwD1kX/zHgc+X4G8eB5Gv+N0FjHTYx3iyr8XYEvxtDPNJn/Am4ECHemOBR8j+1V8EDC/DWQvDgUvJfiwsxE373x9d//hRGc42gX1QN9z3ub8V8Dv0i/wOzegypwPL0P17ALee4DL0H8XepXhaM78hfaJvYFf5hpA97/4y8MmyHC3ADsAr6H4uwC5mjQZeE/XuKc3TmjgQ/eK46OHzMuotAbYvx82+mAQsRff3Aoe6R2XU+2I5btbD/aRP7k8OdQ5CqYK99V6k2VE226M3AtdxzmOi3m9L8rFy9kR/bZtmqTMOfYS8EhUr4Mp01EVdBpzt5bHinG7dR7H728sewCrSvr+GfXQv1cYB2jkLqnE9/r/+H6N3ia5BnxOBO9Av5o4ePu+E3mhvw733OQHd/8sd6j0u6lzj4XMjGQOsJn1Scyx19kJ/W7ja8XgHAG+hX/wBVNiWK7uQLTa9ifuz+VpRdyP2X/RJos5KlP7RWk5Ev4C2d/ZfiTrLcIsJmAOsR79pm4HvF/D9IrLf8dejpGgbY1ETPbIXMTEio87xBXxvDL/Grxucgv7LO83hOEeRHVCyCBWnV5SpwBMZ+3Wdyz8DvTF+zlJHzpPcVcTxJjAKPdDDNvf9C2H/LPY5gqnov/wB4BKHui4MQyl+smGuwy4/D0MPcL3eUmeqsH8fN0GpcXyZ9Im8brHfBnWyvXVsM2xj0QWYD1CZO6E5Ff21dCn2x9Pxos4a4KOWOm+IOocUdbpOfohfy5fd5b+wZ/v8TNQZwO2RUZTT0XuCay11tkKPdP6Gpc7Phf0lhT2uEflKYxv9S7HINj++O/rbQhWvTT8Vx9wEfMZSR06C2USerwl7l1fnRjEU/fVvksF+NPpzfE/LMeQcwcu4vzLNBh5CdcdrULN3rqHao7rH6j32AkudfYS97bm+k7BfRcuyjvcgfQLvWuwPE/b/sNh/HP3Xf6yjb5eKer3lYsd9zBH1NmEXiaQ+Md1iv1zYtyqr6BjSzv/eYv89YX+Lxf47wv453ELIZ5N/85Pi0hMMQQ9EtcnNUp280GL/oLA/2sEvb8rqViaL7b9Z7GWG7yKLvRRikkRSG+c52JzrYNPpHrMXm2Ajz8mW1fyq2N7J5lQRymoAMsz5TYu9HEQ9abAdjq4n3OHiFG6Jpa7C0e0Z+zapnE+I7c9a9v+W2C4ldLysBiDn65dZ7OVEjanB7E063Ooti30vGwPZgBqnvN2zPQY1j5GH7AVtN1Q2ANMgujBlNQA59flfg+1oYGvxt/8Y7OWkzjOuTjnaLu5jf5822C4n3bi2QeVH5LFSbJeSI1lWA5CvY+sMtjJ4cq3F/mNi+x1Xp3ALuPQJypTH3sZg20G9Gvdiuqnvi+1SFpgoqwHIlr3BYCvfh029Bei9xSonjxT3o944sugA30UFc7oifR1vsZcN26Rb+NgWpqwGsF5sm0QP2Ths8u8ase0bR38Rap5C8hX8JddxYlv+wiXyJsrrZLI19YqFKasByAshf7UmW3lRJcvF9nZOHqV50PFvNuSxpW8SnwbTT0/nTFkNQDpruqnrUUpawijMPYZUFXd2dys48timBjCadALoBsxvHHLGUA4Kg1BVAzD1AKC/8uxisF2CmpFLmIJballoxqM0/oTNKN/ykAGttlfXVvcAK8S27Z13qdg2xc79G/hLz/Yw/KJ2QzGddCLosyjf8pBilzxniUx8Me27MGU1gJfFtkkgAf1i7GuxXyi26wiflkqebQwhpV95jSQydMzWYBrFXqQnMt6w2J8s7B+z2O+LeoYmEUBFsmjkJJAvBzAYIbQBu7a/SBzvJIu9XD3FJh03ihGkgzQHMA8EJ5KOtNlosQc1HzAPlWFbhH4bAKiGNw97rON40uFkA6gp7Ty2Rr8eVa6FHAS5Rt40i72cXi17jd0QDcCV08SxnrXYHyLsXyjLsTKjTJ4S2zMs9veK7W/2efxtUTN2MjIp74Zn2axGxfJv26cvXxfb91ns5bUyzY42FpkeZWv1u5Pu9nzTuSQPk31Ti5Q/9uGHTDMbwB7d81dx/FYmh0wgHbY1gD2n/1HSJz6t4LH3J9zNT0rRBJNDxX4esdjvIOw3YZ9jaCzyhp5lsZ/BYKN5nuITINcQvgG45idKRjE4vtmIin80cTZ+DabRXEj6ZJ5zqLMrMJPi89/DUTkFoRvAuxQfiY8BjsAtsFN2/y4LTDSW7dFz9speLt0l8LNoKXuVb7lGwCaatRROIe4ifVK/LPl4pnX8pjnUn07+lz9kHGBobhbHc411bDQyR3A95S0BvzV6fmFSfLJr5NglKesob0A2Fj05Zov4+tgQ9EyaiSUd61tk37gOfsvEnGPYzxkB/e1lkjjOUrac5fKZyeAnVMpYxzchazHJDkqG9VlcKivzKCkPB/RX8pPuMdZgF85axziKRe+4Mpn8Z7dPnF/CH3L25bvcjC/bYp8HCUaVCYersYdM9cNc8rvMWwvsL6/OEMr9Sul72GMLIxm8RPYvdiPmcO08JjA45SzLKwH8jQTEJP3KSSYf7jPst5+1hxpDq3LODcw1/K9I9+9S13TMSIWYpN+19Lf+/hiyPwDZoT9pOBIQk/RrW5fPBdOXy+MHIBuA6QYdE2D/xxr2H6KBRfrAJP2GWmZ1JCoHsGppuBLaPgg8gfybfDdh8unWk/8Bh5G0NFpnS8EU9jUz4HFmGo5TpjQcMTAZ83f8Qo7Qh6PWAqhDGi6VNj8C5pLv/52kE0775QPUIyWLsqXhSA550m+HcnIFpxmOF6XhijFJv2+jkjZNo3efsgo10BxK9scoWi0Nt/URYJJhb0ONDWZhX5XbhXGoQeAA5hCtKA1XhC3qN0kUlStz9lOSWMADDDZRGq4Ik/T7d9SgbBz5AlGRso7BBRteNdi1Thpu4yPANvPXQa2rG3JVrZGohgfxMVArJum3w+CSLfIztSFKktA5xWDTemm46civivSWlyr0Q6ay95ayooZLoW2PAFMXa1tiPiSmBJH4GCiJyeRLvx1UenlV7GLwo1XScJt6gFPJ93cx1apxr5G/8HSUhkvCJP2eX4M/5xv8idJwYOTHFGWXu3MNPu1IfiJKh5ZKw03lavIv9KM1+pWXRNqh+IISEYFN+vVJ+gyNXM2jt0RpOBAm6dc36TM025GfRNpKabiJmKJ+iyR9huYB8v2LUcN9YpN+T6/Ptf9jUiejNNwnpotbNOkzNBPQV/ZorTTcNExRv/0kfYbmXvL9jFHDBbFJv01S205hC5GGm8Q88i9qv0mfoTElkXZQ5xLxxCT9NnF0fRv5/kZp2BOT9Nth8FPxV1nsqijzu76Ykkg7RGnYC5P0myR92sK0qyquYehRGnbEJv3e0LWTH1Wos0zv+nSjwaaR0nAT4wFmYJZ3k+f/iRX44krii2lJme2AwyvwpfWYBlNJ0ucI1HJqdf/yk7IC9VFIUxJph2YOXhuFTfq9rms3y2BTVzmi69t1BpsoDVswSb8d6vlApC/TMJ9DlIYNmKTfZLTddGxvJ1EazmEyZul3fn7VxjGf/PNolDTcpLcAU9Qv9LfgY9WYfI1RwzmYpN8k6bNNmJJIGyMNN6UHmIr5A9BJ0mebMCWR7kaUhlOYpN8Og0mfbWIfzOcUpeEuNum3yqTP0JiSSBshDTfhEWCTfqtM+gyNKYk0SsNdTNJvh2qTPkNjSiLtEKVhq/S7uD7XgrGYBkvDdT8C5mBeyqVN7/55mM4hrjUciURayGzgIcyRsLFUU9YAC6kwD/HSkk8oluLlYsN9C0KZn2aPJUzx6gl83wLO87SPVM+5Psa+M2yraVZGTkRnNYPL2lqpWweIhKfjY+zbAP7saR+pnqd9jH0bwJWe9pHq8bpHvkGWr6CmMA/2rBephouB66s40JHAg6gBR92vPR/2srp7L2YZ71gkEolEImn+B445rRy2zGvnAAAAAElFTkSuQmCC;container=0;" parent="1" vertex="1">
          <mxGeometry x="510.00000000000006" y="-120" width="120" height="120" as="geometry" />
        </mxCell>
        <mxCell id="L7ELWCS3wUbe0nNfrqdp-3" value="&lt;span&gt;&lt;font style=&quot;font-size: 17px;&quot;&gt;Utility Data Centre&lt;/font&gt;&lt;/span&gt;" style="shape=umlLifeline;perimeter=lifelinePerimeter;whiteSpace=wrap;html=1;container=0;dropTarget=0;collapsible=0;recursiveResize=0;outlineConnect=0;portConstraint=eastwest;newEdgeStyle={&quot;edgeStyle&quot;:&quot;elbowEdgeStyle&quot;,&quot;elbow&quot;:&quot;vertical&quot;,&quot;curved&quot;:0,&quot;rounded&quot;:0};fontStyle=1;strokeWidth=2;" parent="1" vertex="1">
          <mxGeometry x="730" y="20" width="165" height="1540" as="geometry" />
        </mxCell>
        <mxCell id="L7ELWCS3wUbe0nNfrqdp-4" value="" style="html=1;points=[];perimeter=orthogonalPerimeter;outlineConnect=0;targetShapes=umlLifeline;portConstraint=eastwest;newEdgeStyle={&quot;edgeStyle&quot;:&quot;elbowEdgeStyle&quot;,&quot;elbow&quot;:&quot;vertical&quot;,&quot;curved&quot;:0,&quot;rounded&quot;:0};container=0;strokeWidth=2;" parent="L7ELWCS3wUbe0nNfrqdp-3" vertex="1">
          <mxGeometry x="76" y="80" width="13" height="1420" as="geometry" />
        </mxCell>
        <mxCell id="L7ELWCS3wUbe0nNfrqdp-12" value="" style="shape=image;verticalLabelPosition=bottom;labelBackgroundColor=default;verticalAlign=top;aspect=fixed;imageAspect=0;image=data:image/png,iVBORw0KGgoAAAANSUhEUgAAAIAAAACACAYAAADDPmHLAAAACXBIWXMAAAOwAAADsAEnxA+tAAAAGXRFWHRTb2Z0d2FyZQB3d3cuaW5rc2NhcGUub3Jnm+48GgAAC2dJREFUeJztnWusVUcVgD/uvaUVrhr7kkdpq+Cjt1GgoD8L+MAHoNGARmMwTUlbBASiidF/tmJqqVaM/kHUVGlJ2lRoBSTWorbBCsYHNGniH1O993IrUKtUXpcW/DH7XPZZe2b2zD77nL3PnfmSSYG91szaa9aZ9+xCJBKJhMAyYBi4mJOGgaUV2RhpEz3ACPmV30hHE53IOGEO7pXfSLMrsbTDhBLlCzuk03WMhwBYADwJbAdussik2QBMEGmDkFloyGsA2JGUKfONdJiPAme51GyPAvcB/cnzecA24Bz5zftsIXM20b0led6f5D0qZJaU/E4RR2Tlp9MQcNDw7AT6lq8neabT+QMwaHgWg6ACbJWfl75nyff7BfM8m9gU6QC6yn8NNXWzVdIQcDcwyZJ3P/BN8qeMw0mZMQg6zBL0lb8KVbH3iOcXgMeAW/Eb8PYC7wMeT/Jo5HcmKWMScDsxCDrKQvSVf7uQmwVsBu4H3lVCuXOBB5I8Z4lnpiCIs4M28CvyK78KdEHwy0otGqfsINunv65SixSTyI4/tldq0ThlgOY5+EXg65VapPgGzTadp5yuJ6JhM9n+9u0e+tcDX0I10f8ATgGvAi8A+4AvAzM88puJGhimbfqWh37Ek0moyko7fLOD3g3Ag6jKzpvTnwceAqY75Hu/0D0KvMH1ZepAt+0FnAZeFP/Wl6PzGeAwsBI1vcujD/gs8DzwqRzZCeLvg8BJhzIiBZHbuheA+Rb5jTTP433TBWC9Jf+byc4AbPZEWmQbzc7eaZH9NPpKPYKq1JuByaiZxDuBNaiWQhcEtpZgp5DfVujNIlp6ULt061GOlgtBiwx61wOvCNmzwGrs3V5PIiMHdv8Fphl0FmrK2ZnYPDunvK7mY+jX34cpZ3dsGfY1+RHMffpDZCvFFCw6FqHGG+k8fmqQ7cF+1nAkeZdWabe/vehDDcZsL503OMsj7wDnJoPedWRH+3cVKH+1yGM0yVvHPTm2DhUoP00n/G3kKuADyX8brLQY00grU/LXAh8XeeRhyvcEatu236D3FSF/hGLNcE+im85ro0F2Mmqb+bjFbleq8reWeVx6qVPAVvQDJVN6Dvgxl/rU40meLsi8XPvUPRq9oqwVee3NkZ+AWgX8ItnZhwtV+jvDHMwnZGRanCQX2f8A73Uov+gvSJ7cGfDQlQyIvP7uoSunh3n4+PuDlO/vJm4BXnIs4DeoX2UPsN9R59/kR2bRAJCDt9d76Eomi7xOe+j6BICPv5+iPf4e40rgWE6G54FHgRU0j8R7geXJM7lxI9PxpCwTRQPgpNBrZcdQBsArHrquAeDi71HgEZRv2+XvMT6sUd6MGknvQQ12ZjrkMxPYkuisRp2olfkutugXDYC/CT3TUXEXZBfwgoeuawDo/H0fymd7UD7shL/HuIZsM7raRTEHOa06BVxtkZfGuw4C9wq9NS3YvE7ktSdHvgfVl2/AfRBYF3838UP8XtwFWTFbc+RNTdlLqGngZIPeGiF/mOLTwOdEXqZpYD/wA+z9uI06+LuJvwrlLRqZXlS3sB810jwBPJ38m25RYgvZirExhNmZF1EHMXRchxqjtPqLkoF0HvNZgU05tuYtBLn4eyLq8OsBlK//h7qvsA64XCPv629AVernhOIo2T7oWuDPmF/492TXzmeSHah8HvMK1lLsS8HDmH/ZW4XsGfyXguW+w08Msr3Yj6SPYF6q9fH3Hy1l/IXs+QVffxsd/oiQm5hjTCMd0BT2qEbuX5jv4+dtBi0w6E0jOxs4jdtm0BpNOS9j/vUvErLngF2JzXMs5bn6uxf4k0ZOFwSyJfDyt2ntfbmQW+VgTCPdIXSXG+Rc18rldvDPLbLLyI7EL6KWd9eiRvj9wBXJn9eR7fMvogZzKyzl7BLyrtvBrv6+yyCnS2uFrpe/dYJPkd1xOyBkdqOan6moixTpZ08L3d4kT11ZLugOhNju8a9FHwSu6QL2WcQcsqN91wMhrv6Wiz1PoLqEKWT9/azQ9fK3FFiMvvmSy5XpHbLp4tkxjX4P+mVMV+Slz2/nyC9F7ef7Vv5J4JM5eT8gdA55vIerv6Xtb049m6axWWL1t60/NFWM7Gdes+RxmeVZEfrJDnYu5OjsRp342YraJs7jVdTe/wD2Lgay/pkBvNGhDJe8GoyKv6fPIcrWQsp6GyDTk5pC5C/wcVTzPwXl7PSzXwvdXtTeQdEuQK5unQPe4agLKngaK2zPo5Z2T6GOiP8CdSx8qkd+s8ieHnI5pQx6H+i6gGfQ+3sG6nh7+tkzQtfL36ZBySeEnFwds6U7he4Kg9ygziDBTWSnNXc76LWbohdD2jEIvE3oevl7GWqKIIV3CLnLUVOOPGMOkY1m3bRkBLcbtQ8LvWHsV707he5q2MMOeiZ/y2ngZWQH3rp0EDVFT+Pt7z7UYoFsZm8UctOxB8FBsuvOuoWJlbgfZdondOtyOXQV2ZnGPkddnb9HgbcKuWnYg+AQJftbnkLRjbQnoqZZz6L60sZS8G1kIxGyS5NHXAxJsQC36+FvS+z9DuV86u3dSX666+G6yi9yPVz6+7samT7UusrvUFu7J1BjhjvRH45tyd9yKfUJH2UDcnPiRznyS8jfD0gHwSTUmrz8QMQu1Gqdy62gBj2o4947aZ7nn+XSByJ0lW/qbz+SU570dzs2g/L8PcbVqJFxWlkO5oogtyfPoBY0TJg+ymQKgrxPxIygPv9iOkxK8myTQ15H8Vtg+qelTJ2/v2CRd8XJ37p1gPlkB1c3ooJgN6p5kn2UjpmowyN7E2PeIp5fgf2YkukIto4e8qdvU4CvAvdaZO4FvuaQ11T8tphtN451/r6Bzvt7jCuxH29uDFR0R8L6UFeyHiO7JSvTMfyOhPmkIdTASPfM9pk4037+Qdy6I1syURd/NzEPdZDQ5cX2c+mQ4m8ddco6FCo/GjWKGqw1DoLOR/V9RT4UeQ61sdOw0/dDka4BAPXwd4a5+B0L/5Cj7MvAexzKd3XgAtT3g7ZjPgIuL3Dq7gqsFzKmi6cDwM9Qq3C3lmB/g6r9rSV9UeEM6tKBbsvUlA6jRriNQc4xil8MaYWNHjbbgsSHIvZX6W8jjatK16T+zfeq0lXA+4E3eZRbZgDMdbBXplbXEIraX5W/vejDflzrRVq/rFhmAFTxP4wo0/5O+Nsb00LNEOVcVy7TgaDOBbiM5Otqf1v8Lb9xUyek0+psq46usH/cfr0i4kYMgMCJARA4PgHgujtXVsqjU3Z0m70uu49j+AxMBvHboCkbaWsZI+syqZN9g6gvpeXiEwBVO7xODtZRN/uc6jaOAQKnldWjds9r835BtZxXW6jaX1piCxA4MQACJwZA4JS5g9TqqNe3j6x6lC3ptP2ljCliCxA4MQACJwZA4JQ5Buj0vLzb1gEktbA/tgCBEwMgcGIABE6ZAdDu/XRJp88nlLL/nqLT/tLSynZw2dufefnp/ieNVZ5PSKPbf6+bv5wysVG3F6r7SmDd/KUljgECp5vXAaouvxZr+a0SW4DAiQEQODEAAqebzwN0O7XwV2wBAicGQODEAAic8bQO0G3Uwl+xBQicGACBEwMgcOI6QHXUwl+xBQicjn9brosotL/ebcQWIHDiOkB11MJfsQUInBgAgRMDIHDiOkB11MJfsQUInLgOYCaIFim2AIET1wGqoxb+ii1A4MQACJwYAIETAyBwYgAETgyAwIkBEDgxAAInBkDgxAAInBgAgZMOgLzv7kna/f29vPI6bU/d7XMtr+m7hukNiTp9dy/SXsa+a5gOgLp9dy/SXiZAHAMEj+08QC32qyOloW3hYwsQODEAAicGQODYxgBxVhAAsQUInHQADFVmRaTTDDb+kA6AO4hBEAKDqLqORCLB83+Io66lIXsw+wAAAABJRU5ErkJggg==;container=0;" parent="1" vertex="1">
          <mxGeometry x="752.5" y="-120" width="120" height="120" as="geometry" />
        </mxCell>
        <mxCell id="L7ELWCS3wUbe0nNfrqdp-5" value="&lt;font size=&quot;1&quot; style=&quot;&quot;&gt;&lt;b style=&quot;font-size: 18px;&quot;&gt;Blockchain&amp;nbsp;&lt;/b&gt;&lt;/font&gt;" style="shape=umlLifeline;perimeter=lifelinePerimeter;whiteSpace=wrap;html=1;container=0;dropTarget=0;collapsible=0;recursiveResize=0;outlineConnect=0;portConstraint=eastwest;newEdgeStyle={&quot;edgeStyle&quot;:&quot;elbowEdgeStyle&quot;,&quot;elbow&quot;:&quot;vertical&quot;,&quot;curved&quot;:0,&quot;rounded&quot;:0};strokeWidth=2;" parent="1" vertex="1">
          <mxGeometry x="977.5" y="15" width="125" height="1545" as="geometry" />
        </mxCell>
        <mxCell id="L7ELWCS3wUbe0nNfrqdp-6" value="" style="html=1;points=[];perimeter=orthogonalPerimeter;outlineConnect=0;targetShapes=umlLifeline;portConstraint=eastwest;newEdgeStyle={&quot;edgeStyle&quot;:&quot;elbowEdgeStyle&quot;,&quot;elbow&quot;:&quot;vertical&quot;,&quot;curved&quot;:0,&quot;rounded&quot;:0};container=0;strokeWidth=2;" parent="L7ELWCS3wUbe0nNfrqdp-5" vertex="1">
          <mxGeometry x="55" y="80" width="13" height="1420" as="geometry" />
        </mxCell>
        <mxCell id="AymrNiPB3aUypCCRtmkf-34" value="" style="edgeStyle=orthogonalEdgeStyle;orthogonalLoop=1;jettySize=auto;html=1;rounded=0;strokeWidth=2;" edge="1" parent="L7ELWCS3wUbe0nNfrqdp-5">
          <mxGeometry width="100" relative="1" as="geometry">
            <mxPoint x="68" y="1194.9966666666671" as="sourcePoint" />
            <mxPoint x="68" y="1284.9966666666671" as="targetPoint" />
            <Array as="points">
              <mxPoint x="103" y="1194.93" />
              <mxPoint x="103" y="1284.93" />
            </Array>
          </mxGeometry>
        </mxCell>
        <mxCell id="AymrNiPB3aUypCCRtmkf-41" value="" style="edgeStyle=orthogonalEdgeStyle;orthogonalLoop=1;jettySize=auto;html=1;rounded=0;strokeWidth=2;" edge="1" parent="L7ELWCS3wUbe0nNfrqdp-5" target="L7ELWCS3wUbe0nNfrqdp-6">
          <mxGeometry width="100" relative="1" as="geometry">
            <mxPoint x="55" y="1284.9966666666671" as="sourcePoint" />
            <mxPoint x="55" y="1374.9966666666671" as="targetPoint" />
            <Array as="points">
              <mxPoint x="3" y="1285" />
              <mxPoint x="3" y="1395" />
            </Array>
          </mxGeometry>
        </mxCell>
        <mxCell id="aM9ryv3xv72pqoxQDRHE-1" value="&lt;font size=&quot;1&quot; style=&quot;&quot;&gt;&lt;b style=&quot;font-size: 18px;&quot;&gt;Electric Vehicles&lt;/b&gt;&lt;/font&gt;" style="shape=umlLifeline;perimeter=lifelinePerimeter;whiteSpace=wrap;html=1;container=0;dropTarget=0;collapsible=0;recursiveResize=0;outlineConnect=0;portConstraint=eastwest;newEdgeStyle={&quot;edgeStyle&quot;:&quot;elbowEdgeStyle&quot;,&quot;elbow&quot;:&quot;vertical&quot;,&quot;curved&quot;:0,&quot;rounded&quot;:0};strokeWidth=2;" parent="1" vertex="1">
          <mxGeometry x="3.41" y="20" width="153.18" height="1540" as="geometry" />
        </mxCell>
        <mxCell id="aM9ryv3xv72pqoxQDRHE-2" value="" style="html=1;points=[];perimeter=orthogonalPerimeter;outlineConnect=0;targetShapes=umlLifeline;portConstraint=eastwest;newEdgeStyle={&quot;edgeStyle&quot;:&quot;elbowEdgeStyle&quot;,&quot;elbow&quot;:&quot;vertical&quot;,&quot;curved&quot;:0,&quot;rounded&quot;:0};container=0;strokeWidth=2;" parent="aM9ryv3xv72pqoxQDRHE-1" vertex="1">
          <mxGeometry x="70.09" y="80" width="13" height="1420" as="geometry" />
        </mxCell>
        <mxCell id="L7ELWCS3wUbe0nNfrqdp-11" value="" style="shape=image;verticalLabelPosition=bottom;labelBackgroundColor=default;verticalAlign=top;aspect=fixed;imageAspect=0;image=data:image/png,iVBORw0KGgoAAAANSUhEUgAAAIAAAACACAYAAADDPmHLAAAABHNCSVQICAgIfAhkiAAAAAlwSFlzAAADsQAAA7EB9YPtSQAAABl0RVh0U29mdHdhcmUAd3d3Lmlua3NjYXBlLm9yZ5vuPBoAABQUSURBVHic7Z17uFZVncc/5xw4Hg4geJfkeKlkVGYQzcEQUcIwr8OMk1ljBpPWWE41jSOUTkqP5mUwKyMzMxsVZaKkKSklu+iYKGGKo2aoExogEJcwONwOhzN//N4de//W2u/ea++133cfzvt9nvW8z7v3uu291+V3X030DXQA7wL+GvgL4HBgf2Bg5X4nsA5YBrwMLAZ+DqyodUcb8IcO4ErgN0BPxvQC8BlgeI373kAOjATuAbrI/uF16gbmAkfX8DkacMRQ4CvATvx9eNtAuAfYr0bPVDia6t0BTzgT+E/gwCp5VgC/AJYAS4HVwKbKvcHAwcBRwLHAROCQKnWtBqYCC3L0uQEPaAZuAHZhn7HrgFuQj+qK0ZWy62Pq7gauY8+ZRL0OrcAc7B9nA/BvwCAP7QwGpgF/jGlrNtDfQzsNOKA/MJ/4D1JtK8iKg4D7Y9r8IdCvgDYLR29cvpoQQuyD6non8PHKvWqYDrzbob0lwBWh//8IzALaVb67K/d6HOpuIAOuwr7kj0tRthWhC1wo/+st9YwB1lryXmHJ24BHjMfk7zcAo1KWvwC3j98DvCemrmMx6YIdwEmOz9RASrQBrxJ94duAkx3q+DFuH78LIQLjcAqwXZVZCuzl0KcGUmIG5gf6hEP5t2AKiW4GPhpKD6n7C1PU+y+Wfv27Q78aSIEDECIv/JIfcqxjuiq/HnOmPqLy2PZ/jSbgJ6rcJvYgaWEZcD3RF7wVeLtjHc+rOm5V91uBzSpP3P6vMQLZjsJlr3XsXwMxaEMIvWofLwknYi7T71B5Tlb3k/Z/ja+RvMKUDmUSXuyFEFQa5wL7hP53ATMd656i/j8P/FpdO1X934DIFWxYBDyqrv0HQkcE73Rf4GxgnktH+yKGAt8AfhRzfx6m1M0FNt7/cks+vf/HpV3E6xa0dHJuTL4zK/f6PJ1wFvAGu1/Ye9X9Fkxe+3zHNjTv34Vo/sKw7f9x6btV2vqAyrsOUViFMRh4vXJ/BXCG4/PsEWhB2Lpuoi9sFbIiBHiHur+T6HaQBpr3t60gev/PMvtBZrR+puNUnlstdX6FPqRQOgjRy9te8GrghFDeD6v7zzi2ZeP9/96S72xkSQ4nm7Kp2uwP8JwqMzV0bzCw0lJvD/AzilFilQojEcNL2wuYixhqhnGTypOk6NFIw/vH4XJVNmn2B7hPldOyhKHAvdjfwTL2YLOzidh16p3Ah2LK/JfK+znHNpN4/zi0Yc7UNLMf4BpV7v6YfFMwhVvBID0lZVu9Bmchwhv9sEuprsjR+3ccW2ZDGt4/DllnP4h4Olx2fpW8o4BXLP3cBpyTsr3S4xxMKVkP8FOiBJ8Nj6kyUxzavU2VXY4MAJ32VeXaEVoky+yn0sdw2ccS8g9F9n/9frYDkx3aLSUmIypS/XB3kY7q1S/m4pTtuuj9J6iyeWY/wEdU+UdS9tdGF+wA/sah7VJhLPY97osOdXxflf10ynIuev8w5Z1n7w+gB1BaSWAT8GVL/7bgpvIuBUZhJ/hudKznTlX+lpTl0ur916pyeWc/mB/xDsfyN1v6uQHhoHoFDgBew3yImzPUpdm4OHGxbn8t8tJ00oToo6Fy7YggKs/sB9OmIIuZ2Jcw39/v6AWi4xbEWUJ3fjamSDQNJqt6/kA+Q9Y7VH1fC937V3Uvy+xvxqQ9zs3QzybE0UW/x59SLgWegZmYnV5AdjHngZhOH3+Vo39PqLouq1z3sfeDiH3DdXRjCrfSohX54Pp93pSxvsIxCfNj+Vi2XlB1XpOjLm1XMKFy3cfsBzECCdfzbI6+gug9tB1kN3Baznq9Yx/g90Q7ugn4Sw9136DqfZVs28AhmLPpQPzN/mZkwIfr8WEVNApTU7mCktEDNhetKZ7qPtpS999mqGeSqiPgAHzN/vda+nlUhnpsCBxOwuk+T3XnxumYnXvAcxt6734ad6JSW+8+it/Z/6yq5/EM9VTDdzDf81me23BGG6YseyXuOvsknIv58Jc41mHjAHzN/kst/TszQz3VsB9R45ke5N23eW7HCXsjfnJhb533FdBOEzLrww+/juo+/Bqaop6GH76/A5O4XJShnjQISzi7kHe/d0FtOeEoRABSZMCEsZjWNv9Der74YVVWC4W6cWcx+2NuT91IMKqiMB8JYJXWHa6m8OGPXw23Yy61d5GOK5hmKZtn9scJa2Y51uOKgclZ9ly0Y8oFehD5e9IgGIRd996DLOEdDv1oQuz4dD3PAQMc6mkgA44BNmK+/HtJNvcajunG9TRu8oo27IEiNiAxCHsVXAUq7Qi/ewowDBFXxqEbWIMQRN9BTJ18YQJCc2gK+FmEUHolofxhwNsQgcrLDu2OQJ5ltLq+DWGH87J+s4kaqFwOvBT6fwUS8DLAPYjZXIDTEXY3wHPAZ3P26c+YRLxFa1LaSNQ61gfORnTluq0tiHeuT7esNuDqmPY68cePa65ExxrQBqfaC/lidf/nnvrF6fgJvPgxXx2qYBzxUbxWILMhD5u0N2KEEjfw1yHciS+UcgAMtHQsa9qOLL0+cQSyzcS1uQXZs/8B2baSMAy4EBFv22Z8kJ5EthKfqPkASEMDXAJ8U12bjxBTNmfOAP0Qy9yLVDszEZbMJ1qRlzGN5KV/DfBbxLZgY+XaUEQxdBTiuFIN2xCV7BeQVTEr+iGcRBhTiQafmocYqAZ4N0KHBFhE1Mn1aKI0wkrgB6H/68igTdXGit93LH+jKv8r1w44YATw38QHjsyTdiEfxDUuQRzaCuhjUlqWpaOabbrUsfwEVX55lk44YhRCIduMUl3TZiQEXB5DFBtKMQDSiFFb1H/XZW9HQn1F4H8Rb6PLgPOQSB/vwvQKjsMqxH/xYWTF21xAH0sB2wA4DtGIBXuhJnTOxM3MSZcfhBh7glgOvwg8hcgNfGMTMnvvrvw/FNkm3opoLIdUrr9Z6cvvEG+lIlapfRFn1wC2d387smr5QgdR5dzeSAhdK07C1GnXcmnq9V4wCbAZtuiUhktxwcQUbQKib7e5b9Uy7QI+5fkFlAmlHQCHIEtlPT9+kHYC7/T8EsqCUg6Afoi8WatxX0L25h6KxeFEdectiAv42QW3Ww/8iaibWDPJto0TcDP+XEb1IBpbEMI2gqVER8UdZHPiyIorVPvb6QXh1TzAxgbqFWChJU+19C1VXq8Ay3QnmjGp9FnIflwrzCLKAbQioV0aqAGaMWfbJlvGArEVU7ZQV0PHvoQ0gqARuEXMTEIXIqjpa2hDjFkCVLOliMNriLwiwDDSC7eCNo/XF/U+coS6b4tekSe9YemYNtDcEwMlZeECNA1wobp/nbqfRAMYqZbEXgMlRGMA9HFk8TXfQnU7AFsbPmmI3opudtsfBEgKkqXRTtTrypVY3oXIIyJwpQHSBmoKcJIq31dpAI3SyAEa6MNoDIA+jsYA6OPIQgTeituJHaUOalRDjMDda/g9uL2/JOL8UKKCpEwfpx3z2NQGktGCO9XvWyzfrPvQ2AL6OBoDoI8jyxZwLVFngySMQnz4i8SRiMPqWISX3pfaHcGyHnG4eAEJWPEr7JbTy4iGq29FvIvCWIBYRfmCNvR5AxW4MssAeB3zyLVqKMq4oxk5pOljpDs5vFZYhRjV3IZ4HwXYRtRaxybF8+17oLFD9aHXbgEnIBT1bMr18UFWoGsQS6t/ouTvuNSdi8GHkKX2hKSMdcZQxM5/HiXmmrJsAZeS/kxd8BvRcjrxIeeXIZHAnkOidfjcS6thKOJoMh6hQfSkmox46U4iytbtwDwn8U6ibNpVyEoS4FOVdgLMIRqTcSLRY3VeQI7nC2B1OuktBiFTsTt9Lka8ZvNEEfeFtwFfx4xm1gM8SPKKW3P38N6yBbwdMR4Nf+RdSNSOE9kdA7De+D+EKB1P1K0b5Oykz9S8RwnoLQPgG0TDo/UgcQuupbYWzGmxENkOVqjrVyHi2NIgCw3wALLspsVh5AsNczKyt4VxE/BtS97RiGfRodRucK9HgkM9pa6/huz/C9nNCrcjHEKcTcXnifLur6n79xENQf9LdX8R0RNKfh/f7d0ou0HID9W9pZgWtYdjP1yhlmkR9nN9rlf5NlOS8K4ByjwAOjDP/p2iyh6DvxhGedNGzMOih2AGqnANdF0Yyk4DXEw0oMRaonHxmhExs4ttfJEYgvQvvEK9CXxP5cty3kEhyEIDnIJblI+sUcFaMFebu4nqvC9AuIAwXkICOKclDj+q/s8hvRq2GVnhwg4fI5ATyueErs0jej7yRIQe2JKynULhugXkTWm3AH1GwC6iEbJACK9wnoW4e9wkPX8S+iPEWLgOfV7wQMxnzHKaWCEo6wB4UF3TQo0xlrqzHNKQdwCALOnhOrZjHprxI5XH9UDJQlBWGmA45sfUL0xHE3mFYs8rqIaHkL0+QCvwdyrPg+r/OZRAepmFBvgN9lkchyG4H6BwCSbxF45POAxTjv5LovKCzYheYKtj21mwHWFXLwpdex9RO4j5iIo4+OjDEEdNF9V6IXDdAmrBBm5X/7UR6gxLv21pExLRs5otno8tAGRGh+vpwoym9ozKMyNjW95Q1i0gTMj1EA1V24ro2dNgEHAlQhz6jr+jsQDRQgboh8QoDEMTh+cU2qMUKOsACONRojH9L8Cd7z8aifNfJLowTeX0AVqaDjieOkdDyUID7I/ov9Mi7wNq4u+T6v8fUbbuFQwnupKMR3hxLT/X6CA7cfYUcshjgAlIwM01lf9PI1LLYDVqQlaBunIEtWYDNyBGJZ9HlvYHsevPexCburBN4VhLnkkxz3UQsMRz37OksIEGlWfWNNFtyGqRFKm8ENR6ALgkTfzpU8NepPpsfX8d+x4kHZZtckL+F5EBcT7Fn8JWahqgB/OcAv1CvlfJF4cyaN10bIQkVfoxiPp8LrICzsUUd3tDWQfAnxC7g6QDneIil/dHzMRmeOyTL1QbsBoDkJXgSeRcQ5eTUp06VG0LSIsBCCtUbXnbigiSfoEcRHEzcq7PBxAi7UiqW9DOTqi/WtqFXSDl6/kDXKjqe0LdH2Zp8wHEhCzpGVYjhKVX+HgB7cQbZLyMHOUykvyewnkGwN2W+rDkq8cACJxEjkGIxu8iomXbc3ThWZGkA0VrS9Q0uA2zo28C/4zfbSbrAJhHvJaw1gOgHdO62XZq6V7I+QKvW/q4BTGV84LFqvLHkQOU0uIMzAdaTlRH7gsuA6AbMdM6j+qcQq0HAJjH0H3YkifAQGT10v1czu4DL3JBB2sOXt6GlEnL7XsQzdyX8D8I9AC4DlG72lLaCFr1GABzVJ7XSZ50N1n6envOvgKyJMUdqpw3dSFWsL7UnnoAaMeILKjHABhnafcZqh9g3YQQi/r9Hpans83IfnIuxZyT0w9hxT5XQN29GU9g2gkeh0guP47do7oHUYKFxd79gE/46tQBwFcrDfheCXbi52TtPWUFANm/X7a034OIh78MnIapyp6h8qay/Y9DmC1bi4ymTyOuWAOtJXZjPLLPB9iC8Kgtld9r2L0PtyBGHmGnhb6ON4FTERWxjuA9DLF4CqyeViITczumNLQDkZ8knZhuhY0v34kcrZoEzYY8zW4x51OIYOjq0P3CxJm9GKuQQfBFZILEscyHUF0KOIaMAyAPj67dvvVSpGXePt3E9yRsRvb2MYhtYRZfx8xaxDwDYID6r4MQ6wepuwFkyfFr4CyEqr8SeISooWk1uBzkGYHPII49Oco2I0e7nowsdf0QTdgziDn4uty9qw2GYW51B1euLSbd7F4B3FBJzYjxzQFI4KtAT3Ix0SAdmQNi1TuKZytylOmlxPPAOxDByYwa9SkLjkeEUmdgrnRvRWii5Yij6LdIf/7yLuDVSgrjVNyitMSinurgYxHC8QtUF4C0Ig6hz5NNT1EkmhAZx2LEj6HaNteBRA95HDFXKwXqtQIci6iEtfdMNQyiBhYyDmhCDFZczeRPRHQU4zD9/2sOnwNgLNEATtpw9MDQ/amYH78LeAyZ6Z2IH+AkS74wTsf/oJhGOuLrcMRCWWMV8BNkyR+MfPAxRFfbt1TyzDNKp8PYjOW8Yib+JIXzkReqEUTU0DECypg6EVrGNqlGI7O+qLZdord7g68BcBfJtMh5xFsOlyF1kizoakNYu8YACKXfkt6d+xYP7RWVLkv5DPshKvTSDACfNMCLxCs+AuiIHzMRNi8NbkScQsLlHyanMiQDRhINT/sH0jt2rEd0+J8NXduIWP66YBz2eEQ1hV4BZiXkH4g5cl2tXPU+elH17IXgatWH+x3Lj1fl11TPbsUsPK0AeeQAPep/UtgYLa/uRihmF2ibhXp40ug2VzqW18+wP+7fQb9r/S1SI88A0OJZzepoaF1BC8kqZw1tA2ccglgD6DZdnU+0fr8TNwVQMybBudaxD39GHhpAB0Y8HomQdS/2oAxNyKwPj96xCD+cBv0xI4QfjDiA1BL6A77Tsbzm4TeR/hkGINueDkWnD56oCZqRY+DzUK8ugpCLcrZVZEp7ZkEzEunTZ9tLqKNI/0TM6B6u6fwU7QynPMEgbel50p2PPN1zu1txD7/jHachrFCeh6hGzY8k3nauTOlJ4rmaZiRSuE9h1hrMGMrO8GWkMQT4CKKi7CBZP32Epe3HEQeIJcigOBIJv3ahpb7V1D/I4hBMK6dORN37Y8TWfwiySl6CeR5QF+6W2EGZhxFFVD2IYC/4JNlH/s9wPza9CAwl+36+E7siqU9hOjKiXV7cAsqlEh6GGfkrKXUiq1oDiOwgDSexEdG0ldGusD+isUxDDD+GbG0NhNCEiEfvRAI9b0b0AyuQ+EEfpMSnboWwDxLZ4xGERtmJ7NFLECeP0fXrWjz+H6E4uWY1C7c9AAAAAElFTkSuQmCC;container=0;" parent="1" vertex="1">
          <mxGeometry x="20" y="-120" width="120" height="120" as="geometry" />
        </mxCell>
        <mxCell id="aM9ryv3xv72pqoxQDRHE-5" value="&lt;b&gt;&lt;font style=&quot;font-size: 17px;&quot;&gt;Charging Stations&lt;/font&gt;&lt;/b&gt;" style="shape=umlLifeline;perimeter=lifelinePerimeter;whiteSpace=wrap;html=1;container=0;dropTarget=0;collapsible=0;recursiveResize=0;outlineConnect=0;portConstraint=eastwest;newEdgeStyle={&quot;edgeStyle&quot;:&quot;elbowEdgeStyle&quot;,&quot;elbow&quot;:&quot;vertical&quot;,&quot;curved&quot;:0,&quot;rounded&quot;:0};strokeWidth=2;size=40;" parent="1" vertex="1">
          <mxGeometry x="236.82" y="20" width="163.18" height="1540" as="geometry" />
        </mxCell>
        <mxCell id="aM9ryv3xv72pqoxQDRHE-6" value="" style="html=1;points=[];perimeter=orthogonalPerimeter;outlineConnect=0;targetShapes=umlLifeline;portConstraint=eastwest;newEdgeStyle={&quot;edgeStyle&quot;:&quot;elbowEdgeStyle&quot;,&quot;elbow&quot;:&quot;vertical&quot;,&quot;curved&quot;:0,&quot;rounded&quot;:0};container=0;strokeWidth=2;" parent="aM9ryv3xv72pqoxQDRHE-5" vertex="1">
          <mxGeometry x="75.09" y="80" width="13" height="1420" as="geometry" />
        </mxCell>
        <mxCell id="L7ELWCS3wUbe0nNfrqdp-7" value="" style="shape=image;verticalLabelPosition=bottom;labelBackgroundColor=default;verticalAlign=top;aspect=fixed;imageAspect=0;image=data:image/png,iVBORw0KGgoAAAANSUhEUgAAAIAAAACACAYAAADDPmHLAAAACXBIWXMAAAOwAAADsAEnxA+tAAAAGXRFWHRTb2Z0d2FyZQB3d3cuaW5rc2NhcGUub3Jnm+48GgAAD31JREFUeJztnWmwVMUVgL+HgCwiS3AFFRUBlwiCRBLQaOKCAQ0qcUu5pWKSskqjVqlVEeNKYuJuUmbRmJQVtcQYE1JuiAYBt4DGXRE0CCJGCMgmII/38uO8KWdO99zuvvfOvJl5/VV16Tx6Obf73Hu7T58+FyKRSCQSiUQikUgkEolEIpFIJBKJRCKRSGPS1N4CtNEdGA18GRgK7APsAfQCtm9LLcCatv9+DCwGPgAWAPOAV4CNVZY7koFRwM+AZ4HNQGvGtAV4AbgCOKiK1xEJYBAy6O+RfcBd6X1gCjCgGhcWSeZQ4CGgmcoPvE7NbW3Hp4KFSs8BhgPXA+M98r4LvAi80/b/C4F1wGpgQ1uenkBfZG6wDzAE2Bc4pO13Eq3AdOCnwGshFxEJpx9wN7CV8nfmRmAacAYwMIc2BwJnAg+21Z00V7gV6J1DmxELJwLLKT8A84BzgT4VlKEP8ANgfoIcHwHHVVCGDkd34E+U7/BZwNHtINcxwOwyMrUAtwHbtoNcDcUg4GXsnbwAOKrdJPuC8ci8wibjfGDX9hOtvhkNrMD+jp9Cbd1d3ZBJ4CZMeZcghqhIAEcAazE7813SLbt2B04DbgdmIta9pcBniLFoFXIXzwTuQN7zQ1K0MwpYZJF7DbJkjXhwFPbZ9gOI6daXwcBUxKybdq2/BLiRsDu4N/AXS11rgTEB9XRIRmK/82/A37YwAXgamYjlafiZCxzrKUMTcLOljtVt1xixsBeyGaNn05d4lj8AmEG+g25Lz+M/iJdhKuJSYGfP8h2GbsBLmJ3tM/hdkbstyRy8GVkuXo7YE0YiRqWCBbAvsB/wHeBq4DGSN5KagVvwm4heZin/nGfZDsPvsT/2XQxEOrPcQM1GBnW7FDL1Bc4Cnkyo/yVgb4+6bK+DX6eQqSE5GfuEz/XOPwz4r6VsK/AwcHCOMo4BHi/T1krck7smzIlhC7Vhx2hXegPLKO2Yhbhn++OA9ZiDsQQ4vlLCAkci73Dd7nrcg9kLMV4Vl/sQedJ0WO6itEM24Z5gjUbW1banRq8MspwAfILY8ick5OuHbAzZlOAQRxsHYxqLbs0gc10zCnOGPMVRZjDwP8zOv55sW9DfpHTSt8SjzFUWOVYiq5mQcptxbzk3JI9S2hELSJ4Zd0Zcs3Snn59RjuGYT5SVnmUvscgzn+Tr6IZpLXwojeD1zDjMjnO9Q6+1lLk+oxwDkbtd1zsnoI4rLOVvcpT5lsrfQgfbL5hOaQf805H/EMx1vs9KIYneiAePbWb/u4B6mjCvpxkY4Sg3R5W5O6DNumZ3zMF03f0zVf4lZJvwdcMcgOL048D6+mA6pM51lDlW5d8E7BLYbl1yHaUXPs+RfyzmAH07Q/udsM/iQxTSxkRLPS5HFZv1MzR9jiwnZwIXAjumkL1qNCEHL4ov4FxHmadU/oczynAr7k5N6/KtrYazHfl/5CFLaFqHzEs6p7yGijKKUmE3kuzDtz/mBWax8F1qqU9bEz/NUP9wS/0HJOTvi92JJI80gxp0UNWP/wcc+a9S+Z/J0PapmN7EyxDnj+K/PZuhDZB3f3F9v3Dkt/kO5JWeoMaeBPMoFfAMR/43VP7JKds9HPNOW4PcsRerv9+Zso0CZ6v6FgfmfyqwvS7IhtSF2L2mL/es56S28svb/j/03530QCYsxcIl+e0PU3k3k25X7wDEEUPXVZjoaXP0xSnaKKYncuCkuM7BCfl3V3nXI4Oahv7IE6y4vrXADh5li/dklqX4dyeHKsEWOPKfqfLPStHmHpibTVsR/8ACSdvJtuTj9z9LlXFNdLVlcLTHtZWjP6ZjzQUe5fR1hv57CZ0sfxulfr/oqENPnma6GlX0Q8zN2i37UuD+ot/DAuvdBfitI89z6veBjvwvBOZPYiWmL8XEDPWlwqYA2nHC9QTQCvBWQPvdgL8jXj7F3IZppl0bUK8vz6vfLiXTfZG0cvBhuvo9NGN9ufAIYRM6bVnz9cPrhH1mPQ27Yo4nzHN4K+JllMQIVWaRI792itEDGEoXVd/nHmVyfQXYeEtV4LKV6/dYP892bIaeZ5CnQgj9kRPFuq6LPMrupsqscOQfqfLPD5TVRuiAVVwB9GRskCP/KpW/u0cbNgfMNwn3uumBfXLoWtMX6K7KbXLk31Pl/zBQXhs1pwCfqgpcd7R2+XK5iZ2K31mAJSTHFeiCeAXrcvfgv/u4rSrregT3V/lXe7aTRM0pgLYBdHXk1wrjWsvazhGWS/8pU0cTMtA6/+OErc13UOVd5uVQhfGh5hRA+9m7jDp6r17P6DXlPIRtqdyA/NKS918esmr2U3UsdOTvqfLnsTJxDdgE5FXj22fl0lI8T0ytVAVd/vT/UPldM+9JiJHGR+iXLeUvtOR7Fz8rmk2W4nqeduQfpPK7lsg+uBTA5t2cNhk+lLbl1nL123U8arH67Vob/w0x+jRZ0jkqr74jT8W0D6xA7hLXDN6GltUVO0hvP+u+qgR5hM8psJv+g00BdKfv6aj03+r3V0IkUmiv22JZjkAikBTLvI4vAj+k4XD1W1sGNfuq3x+lbLdmsCmAHlDXefkn1e9vkP4Qhd6MKQzsgcBfKfXi3YIYqWyvCR96Al9Tf3MpgH5ivJuy7SzYnpxJKRi9GeRj2n1TlTkrTcOYYWbGIv77evu0BfcWtYvvqjrfTyGf7zH0JCo9qw8u35XSbdIWYCdHmZtUI/qp4IuOObA/6a18LrRb2LWO/P0odVTZQj6RzmpOAcDsnO878g/B9OIZFyjoTqr8JkzHlFZkCZiVgyg1RrXgXu2creTI4vVUTE0qgD5JM8ujjD5B9HigoLZDKDrdSz7RTfXS1eeJVe7UsSu51t81qQADKD0TsBXLEkJxtKWxIwMEPcdSvjjNxG2V9MHmFn6Mo8yuyCM/jQK0knyGsSYVAMRRsbjgpY78TZiOlkvx3x2cahG2kOaRzs1M0wfT3f1Rj3JXJsjmm8rhyqf3WkL6oZcquy6grHWWvI2jzFBMp07fA5XTsHfcItyTUF8eUnVvQSaaSXQmH1NsOVz5tBtaiJ1ljCobtGztgXka18fbV7uUtyJu4y5skUY/Ib8j2ddY6vcJb3OSKrMKsSG4yEsB/qz+/XaPtgv8SpW9J6CstQIfX/xuwKuYF+YKJKWVbQ35xfi/wCLPXPx2DnWcYd9VSF4KcIr69024nXRoy6M39lz7NAaDMCc/PkEUd8N0LGlFjkKVm8UXG3s2I8Eg8uBqixzL8YsNfJgqtwXxYPYhLwXojDlv+ZBkJRiB+dp6j5SHT+5VFflMmkDcp9ZhXuB07AaU4xDb+nKyHSot0Afznd/aJpM2AZdD20MeDGg/LwUAiaek821GntBjkInhdsBX2/5mC52X2uN4OKYHz1jPssdgV4L3sgjkwUTEmUS3uxrpJB/0BCprKodvPlsIO990o+c1l0UbQVz75sWMxP46aEXusOFZhStiFKaRp5BWEBb+Ne9opuXwzVcurG1SakHmLJmNZ2MwnwIh7+iBSOTvcoLOQUytPrNrTQ9kyZoUKPJZ3NvaxUxIqCtNymII0kzC76tri8g5FJ9+n87Hvp1cjm7IUiwptOsGxOw8FRF+BDKh7IFsBfdH3LhOQCKVzURCyZerbwvyfYCQyU9nTNf4rIOf5NwaqgAgq5eTgfss5e9DZvu5nzYegrki0B48PuxHctiXvNITmMfcfDhf1dNMZQNDpVGAPMsHcadq7GPCvg1QzDjE+pf3twTnIt5DaeiD6bVc6VjBdaUAAzAfuT/PWOdQxCL3OukH/VXkUe/ySHah/RpWIa+dStKuCpBmdnglpabdzcgjMq1fXjG7IkvHEYgRag9E6Qp7EBuRZeVCJCjFG4g7eB5tD0MUqXjH8SIqHyJWD1romGQtH0x3zFnorGo0XEGaMINcvU36ABAh1NUroMBxloaz+ui1J+diXk8e/n4+1KUCgGlwWUHl35eVYGfMA67Tqth+3SrA3phfDftDNQXIiQcovYY1VPeT83WrACCRrdrr0ZkHOgxsK9mjmodS1wrQBdPEu4T0toFqsj1mxJH5uL2e8qauFQDE2qYthFlj+FWDP1IqczPpoptOQnwfvU/fKupeAUAichQL0UL7fCncF30quJV0Bq1TKFX+NBFDGkIBuiMOh8WCLKM2VwU7YsYoeIPw7wPqwS9ccygNoQAgjhbarv8ItWcg0pHJthAe8NE2+M2kC5HbMAoAdt/+H7arRKV8D1O+6wLrmIx98NMawhpKAbpiundvwDxX3x7shel5/Bphj/68Bx8aTAFABlvvGL5OePy/POmCGU5uE2HuaJUYfGhABQB7HJ+b21GeGyzy+ARmLnAy9rOBM5BYCFm+IdSQCtCExALSS8OkL31WivGY/oyP4T85HYf7YOgK0itBQyoAwJcwI1wtp7ofS9oFc8kXKsPtJA9+IZ2ZUsaGVQCw3z0zCHMmTUsnzM/YteI+Cq45zVKHTj6HTMvR0AoA9g2ja6rQru1IWNoOOh34DfZwNc2IW3paGl4BOmHGGmghn+Nf5ZiIGbImawfFVUAGdsQ8HbQK9xe80zAY89tDWTuoUoNPDvLVhQIAfB3TVPwKfuHlfemOPc5Alg6q5OCTUb7tVdk1OclUMa7CvOCQD0C7sJ2UydLBkzGjp+c5+GSUTx9gfTtHuSrCNpjet62kX0IVYzM+2VYBvhyP/c4/PQdZi8miAJkjgLQHO2AGPNhA2MldzWGYd+pizA88hHSwnrNUYvAhvXy2CCCpPhTZHozE3C/4gHTBoAZghpL9jC8UKm0HF38LqVKDD+nks0UAWUB1zjHkxhmYFz+HsFiAXbF/M6j4lZJWASYhVsTlwIkB5ULxlS8pAkgL7o9k1iS3kG1SeIelvI6ilXUVUGlck1afNLXqUudEZyTaiL6g8zzKnmcpNxvzMdjICtAC/IzqmNYrhm1S+DliNyjHUZgz9HJziEZVgAXU6WPfhm1SuAJ7BO9hmJa+9ZQPm9YoCrAOiVxyDzLbr6sJnw+TMe3371D69ZF+mN7HLYjDRjnqTQE6ND/B7JBnkNl+F+xGpCmOOmu9g2tdvqpzN2an3AncZfn7/bg9e2q9g2tdvqrTBbsJV6cXkehhLmq9g2tdvnahL7KxUW7wF+J/6ijLMispLUPC1WlOwv/DmLYUaWNv7N8ZXomErPOlUgpQUAKNNktHBcjAWEqDUGzC/R1DTZ6fXq20AiRFFO2wTEQ65gPSBZg+lsooQd6vAFdE0UgkEolEIpFIJBKJRCKRSCQSiUQikUgkEgng/9olyjmr6GIAAAAAAElFTkSuQmCC;container=0;" parent="1" vertex="1">
          <mxGeometry x="258.41" y="-110" width="120" height="120" as="geometry" />
        </mxCell>
        <mxCell id="e1xb1ZiiVn83qvHqSyir-3" value="" style="endArrow=classic;html=1;rounded=0;startArrow=oval;startFill=1;strokeColor=default;strokeWidth=2;jumpSize=6;endSize=6;startSize=12;" parent="1" target="L7ELWCS3wUbe0nNfrqdp-4" edge="1">
          <mxGeometry width="50" height="50" relative="1" as="geometry">
            <mxPoint x="650" y="120" as="sourcePoint" />
            <mxPoint x="795" y="120" as="targetPoint" />
          </mxGeometry>
        </mxCell>
        <mxCell id="e1xb1ZiiVn83qvHqSyir-4" value="&lt;font style=&quot;font-size: 14px;&quot;&gt;&lt;b style=&quot;font-size: 16px;&quot;&gt;&lt;i&gt;1. System &lt;br&gt;Initialization&lt;/i&gt;&lt;/b&gt;&lt;/font&gt;" style="text;html=1;align=center;verticalAlign=middle;resizable=0;points=[];autosize=1;strokeColor=none;fillColor=none;" parent="1" vertex="1">
          <mxGeometry x="660" y="70" width="120" height="50" as="geometry" />
        </mxCell>
        <mxCell id="e1xb1ZiiVn83qvHqSyir-7" style="edgeStyle=elbowEdgeStyle;rounded=0;orthogonalLoop=1;jettySize=auto;html=1;elbow=vertical;curved=0;strokeWidth=2;" parent="1" source="e1xb1ZiiVn83qvHqSyir-2" edge="1">
          <mxGeometry relative="1" as="geometry">
            <mxPoint x="580.0000000000003" y="165.65666666666652" as="sourcePoint" />
            <mxPoint x="805" y="160" as="targetPoint" />
          </mxGeometry>
        </mxCell>
        <mxCell id="e1xb1ZiiVn83qvHqSyir-14" value="" style="group" parent="1" vertex="1" connectable="0">
          <mxGeometry x="960" y="-120" width="160" height="120" as="geometry" />
        </mxCell>
        <mxCell id="L7ELWCS3wUbe0nNfrqdp-13" value="" style="shape=image;verticalLabelPosition=bottom;labelBackgroundColor=default;verticalAlign=top;aspect=fixed;imageAspect=0;image=data:image/png,iVBORw0KGgoAAAANSUhEUgAAAgAAAAIACAYAAAD0eNT6AAAABHNCSVQICAgIfAhkiAAAAAlwSFlzAAAOxAAADsQBlSsOGwAAABl0RVh0U29mdHdhcmUAd3d3Lmlua3NjYXBlLm9yZ5vuPBoAACAASURBVHic7N15fBX1/f3xVxYSEghbWEQBFVkCYd9BdkRBBEtdqqIgal1rwVq31rZoXWmtgmBdvvbnUmtLq63FtShWAZVF9iURBARk35dA1vn9McRCTMi9N/fe98y95/l4nAduuffMmNzPZOYz80lARLyuGtAAaHg8dY6n7gl/XRuoAaQf/zPl+D9LPv7niWoef80TFQKHy/yz/UAxcAAoAI4Aecf/3F8m+47/uRPYdfzPopC3WEQiLsG6gEicawA0AZoCzY7/dRPgDNzBvsHx+FHpgcAuYAvw7fE/vwE2H//r3WbtROKcDgBEIisJd2BvAZxTzp9pdtU84SiwDvj6+J8n/vUmoMSumkhs0wGASPicDrQFsk/4sxPuKXkJXgHugcAqYPUJf+bgXpoQkSrQAYBI8KoBrYCuJ6Qz7vV3ibxCYC3w5QlZjDs/QUQCpAMAkVNLwv1tvifQC+gBtMGdXCfeUYR7dmAB8AUw//jf6xKCSAV0ACByslpAX+BcoDfQDcgwbSShOggsxD0gmAfMBQ6ZNhLxEB0ASLzLwP3t/jzcgb8H379FTmJDMZCLeyDwIfAxugtB4pgOACTepOEO9EOPpyP6OYhXJcAyYNbxzAWOmTYSiSJ98Ek86AhcgDvg9wWq29YRjzoKzME9GPgAWGFbRySydAAgsag67kA/EvgB7n34IsH6BvdA4G3cgwKdHZCYogMAiRWZwMXAKNzr+br3XsLpCPAf4N/Hs9e2jkjV6QBA/Kw+cCFwGe4pfk3ek2goxr2z4O/ADGCbbR2R0OgAQPymEXD58fQBEm3rSJwrxr3FcMbx7LKtIxI4HQCIH6QBFwFj0W/64l2lZwZeAV5HzxwQj9MBgHhVMjAMuAZ3Ml+8L5oj/pKHO1fgz8D7aO0C8SAdAIjXtAauBMaj2fsSG7bhzhd4EVhu3EXkOzoAEC/IAK7AHfR7G3cRiaR5wP8D/gYcNu4icU4HAGIpC7gWuBGoa1tFJKoO4c4TeAb3aYQiUacDAIm2FNz79W/EvV9fJN59CTwPvIr7NEKRqNABgETL6cCtuAN/A+MuIl60E/dA4Bn0bAGJAh0ASKR1AW7CvYVPz+AXqVwB8BbwJPC5cRcRkaAkApfiTnhyFEUJOXOAH6IHXomIx6Xg/qa/BvsPTkWJpXwNTEBn0SSMdAlAwiEDuA64CzjDuItILNsBPAs8Bew37iI+pwMAqYp6wB3A7UBt4y4i8WQ/MBX3QGCfcRfxKR0ASCgycQf9CUAd4y4i8ewwMB2YjJYoliDpAECCUR/4CTAR/cYv4iWHgT8Bj+BeJhCplA4AJBA1gduA+9DAL+JlpWcEHgUOGHcRj0uyLiCelgJcD/wT+AGagSzidSlAX+DHuL/gfQkUmTYSEV9Jxv0A2Yz97U+KooSeb3Dv0NEve/I9ugQgZZ0H/AFob11ERMImB/gZ8J51EfEOHQBIqbbA74ALrYuISMS8jTuJ92vrImJPp4XkDNz7iZ8DWhl3EZHIaoW7NkcGsADIt60jlnQAEL+q4d7L/wbQE50NEokXycC5uCtz5gOLcOcLSJzRh358GoL7W39b6yIiYm4J7mWBT62LSHRphan4cg4wA/gQDf4i4uoMfALMBM427iJRpEsA8aEacC/wN6CjcRcR8aZWuJcFCoH5QIltHYk0XQKIfZ2A/wO6WhcREd9YDtwALLQuIpGjSwCxKw14DHeCjwZ/EQlGB+AzYApQw7iLRIjOAMSm/sAL6LY+Eam69bi3Dn5oXUTCS2cAYksd3Pv5/4sGfxEJj+bALNwJxJnGXSSMNAkwdowE3gUGoTM7IhJ+2cA4YCewzLiLhIEGCv87A3gWuMi6iIjEjbeAW4Bt1kUkdDoA8LfRuNf6dVpORKJtP+5BwF+ti0hoNAfAn9JwZ+e+iQZ/EbFRB3gdeAWoadxFQqAzAP7TDXgNTfITEe/YAIwBPrcuIoHTJED/SAAm4J5ua2jcRUTkRHVxJwgmAXPQ4kK+oDMA/tAM9zTbAOsiIiKV+Bz3bMAG6yJyapoD4H2X4q7WpcFfRPygN+5n1hjrInJqOgDwrlq4v/X/Hahn3EVEJBi1gT8D/w9NEPQsXQLwpta4M/y1ZK+I+N1XwA+BVdZF5GQ6A+A9o3CX4tTgLyKxoBXuvIBLrYvIyXQXgHckAY8CTwPVjbuIiIRTKnAZ7uXMD4ES2zoCugTgFfWBvwBDrYuIiETYJ8CPgB3WReKdDgDsdQHeAM4y7iEiEi1bcC8JzLcuEs90CcDWWNzJfg2si4iIRFEt4BrcswCLjbvELZ0BsJGKe63/x9ZFRESMvQrcBBy1LhJvdAAQfacD/wK6WxcREfGI+cAPgO3WReKJbgOMrna4t8No8Bdzo0aNYvDgwdY1RAB6AouATtZF4onOAETPecA/cJ+QJWIqLS2NVatWUVhYSIcOHcjPz7euJAJwCPcOgfesi8QDTQKMjvG4q/ilWxcRAfjNb37DxRdfTGZmJocOHWLevHnWlUTAnR/1I2An8KVxF5EqSQAm4S6NqSieSIsWLZyjR486pY4cOeKceeaZ5r0UpUymoLPU4lOpuIthWP8QKcpJeeedd5yyZsyYYd5LUcrJDPRkVPGZesB/sf/hUZST8sMf/vB7g3+p4cOHm/dTlHIyD/dpqSKe1xxYg/0PjaKclPT0dGfDhg0VHgB89dVXTmpqqnlPRSkna4GWSFjpNsDw6gF8AWRZFxEp6/777+ess86q8N+3bNmSn/3sZ9ErJBK4FsAcoKt1EZHyDAQOYH+krCjfS8uWLZ1jx45V+Nt/qby8POess84y76soFeQQMAgRDxmJ+xhL6x8ORSk37777bqWDf6k33njDvK+inCJHgPMR8YCrgULsfygUpdxcfvnlAQ/+pS688ELz3opyiuQDoxExdAdQgv0Pg6KUm/T0dGfjxo1BHwCsXbvWqV69unl/RTlFCnAfGiQh0pMAQ3cX8Hv0oArxsIceeogRI0YE/XX16tUjPz+fTz/9NAKtRMIiCfcswLfAEuMuEkfuwf7oV1FOmbZt2zoFBQVB//ZfKi8vzzn77LPNt0NRKkkJMBGRKJiE/Te8olSajz76KOTBv9S//vUv8+1QlADzG0Qi6LfYf5MrSqW58sorqzz4l7rooovMt0dRAsxjiETAw9h/cytKpcnIyHC2bNkStgOAdevWaUKg4qc8iAREkwAD81vgl9YlRALx6KOPcsEFF4Tt9erVq0dxcTH//e9/w/aaIhE0APc2wbnWRcT/fo39Ea2iBJTs7OwqTfyryLFjx5xWrVqZb5+iBBE911qq5E7sv4kVJaAkJCQ4s2fPDvvgX+r9998330ZFCSIlwI8RCcFE7L+BFSXgXHPNNREb/EuNGjXKfDsVJYgUoYcFVUgPsSnfNcDLaP+IT9SqVYs1a9Zw+umnR/R9Nm3aRNu2bTly5EhE30ckjAqBS4CZ1kW8RpMAv+9i4DW0b8RHHn/8cYYOHRrx96lduzbFxcV8/PHHEX8vkTBJwj0A+BJYZ9zFU/Qb7skGA+8A1a2LiASqXbt2LF68mGrVqkXl/QoKCujQoQO5ublReT+RMMkDhgN6vvVxidYFPKQH8BYa/MVHEhISmDZtWtQGf4CUlBSmTp0atfcTCZN04N9AV+si4i1nAzuwn7CiKEHl2muvjfjEv4qMHj3afPsVJYTsAlogugQA1AM+A1pbFxEJRq1atcjJyaFx48Ym779582batGmjCYHiRzlAH2CfdRFL8T7RLQX3tH936yIiwXriiScYPHiw2fvXrl0bgNmzZ5t1EAlRfaA38DpQbNzFTDyfAUjAvdXvGusiIsHq3LkzCxcuJCnJ9hi+oKCAjh07kpOTY9pDJER/Ba7CvTQQd+L5DMDDwE+sS4gEKyEhgTfeeINmzZpZVyEpKYmsrCxeffVV6yoioWh3/M//WpaQ6LoO+4koihJSrr/+erOJfxW57LLLzPeLooSYEmAccSgeLwEMBD7Avf4v4it169YlNzeXBg0aWFc5yZYtW2jTpg2HDx+2riISikLgQuBD6yLRFG+XANoC/wFqWBcRCcWTTz7JgAEDrGt8T61atUhKSuLDD+Pq81NiRxLwA9wHwe007hI18XQGoDHwBWB/4VQkBF27dmX+/PnmE/8qUlBQQKdOnVizZo11FZFQbcS9O2C7cY+oiJcnAVbHvd1Pg7/4UmJiItOnT/fs4A/uEwKfffZZEhLi6fcKiTFnAf8EUo17REW8HABMQ/f6i4/9+Mc/pmfPntY1KtW/f39+9COtviq+1guYYl0iGuLhUP1G4DnrEiKhqlevHrm5udSvX9+6SkC2b99OVlYWBw4csK4iUhU3AC9al4gk755PDI8ewAwg2bqISKimTp1K3759rWsErGbNmiQnJzNr1izrKiJVcT7uHWNbrYtESiyfAcgEFuFe0xHxpW7dujF//nwSE/11ta6oqIiuXbuyfPly6yoiVbEJd/XA3dZFIsFfnyqBSwL+ggZ/8bHSiX9+G/wBkpOTmT59uiYEit81w31ccEyeLY/JjQImo2f8i8/dcsst3HjjjdY1QtasWTPWrl3LihUrrKuIVEVz3MvIMbfqVSwenv8AeJPY3DaJE5mZmeTm5pKZmWldpUp27NhB69atNSFQ/M4BLgf+YV0knGLtDEBr4F3c+/5FfGv69On06dPHukaV1axZk+rVq/PBBx9YVxGpigRgOO7zZHYZdwmbWPotuRawAPcgQMS3+vTpw9y5c2Pm+nlxcTFdu3Zl2bJl1lVEqmo10BOIiUUv/De7qGLT0OAvPpeUlBRzk+dicZskbrUFnrIuES6xcgBwKZr0JzHgtttuo1OnTtY1wu7cc8/lmmv0Iyox4XogJh53GQuH5E2AZUA96yIiVdGoUSNycnKoU6eOdZWI2LFjB1lZWezfv9+6ikhV7Qc64j4nwLf8PgkwEXfhhrbWRUSq6o9//KMvnvcfqpo1a1KjRg3ee+896yoiVVUd9wFBr+LeIeBLfj8D8EvgIesSIlXVt29fPv3005i/Tl5cXEz37t1ZsmSJdRWRcLgH97kzvuTnT5uuwGdAinURkapITk5m0aJFdOzY0bpKVCxcuJBevXpRUlJiXUWkqgqBvrh3oPmOXycB1gBeQ4O/xIDbb789bgZ/gO7duzNu3DjrGiLhUA13LKppXSQUfj0D8H+4MzFFfO20004jJyeH2rVrW1eJqj179tC6dWv27NljXUUkHJ4FbrEuESw/TgIcDTxuXUIkHJ577jm6d+9uXSPq0tPTqVmzJu+++651FZFw6AYsBXKtiwTDb2cAzsC95c/fD0gXAfr168cnn3wS8xP/KlJSUkLv3r1ZsMCXl09FytoNdAC2WRcJlN/mAExHg7/EgOTkZKZNmxa3gz/4e7ljkXLUB16wLhEMP/3kXQFcbF1CJBzuuOMOOnToYF3DXLdu3bjuuuusa4iEywjgKusSgfLLrx/1cBdhaGRdRKSqTjvtNHJzc6lVq5Z1FU/Yu3cvrVu3Zvfu3dZVRMJhD5AN7LAuUhm/TAL8I3CudQmRcHjxxRfp0qWLdQ3PSEtLo3bt2rz99tvWVUTCIR1oCfzVukhl/HAGYBDwEf7oKnJKQ4YM4cMPP7Su4TklJSX06dOH+fPnW1cRCZfLgH9YlzgVrw+q6cBy4BzrIiJVlZKSwtKlS2nTpo11FU/68ssv6dmzJ8XFxdZVRMJhB9AG2GddpCJevwTwGO6kChHfu+uuu7jiiiusa3jW6aefzrZt21i0aJF1FZFwqAnUBt6xLlIRL58B6A58jvcPUkQq1bRpU1avXk3Nmr58YmjU7Nu3j9atW7Nr1y7rKiLhUAL0w123xnO8ehtgMvAcGvwlRjz55JMa/ANQt25dHnnkEesaIuGSiDuWVbMuUh6vHgDcDXS2LiESDkOHDuWSSy6xruEb1113Hb1797auIRIu7YCfWZcojxcvAZwDrASqWxcRqaqUlBSWL19O69atrav4ypIlS+jevbsmBEqsyAPaAt9YFzmRF0+xv4z7EAUR37vvvvu47LLLrGv4TuPGjdm5cycLFy60riISDtWAJsDfrYucyGtnAM4HPrAuIRIOzZo1Y/Xq1dSoUcO6ii8dPHiQrKwstm3zzdoqIpUZhofGOC+dAUgB/o27oIKI77388su0b9/euoZvpaamUq9ePd566y3rKiLh0hV4HvfuAHNemgR4J6ALpRITLrjgAi6+WGtXVdW1117LgAEDrGuIhEsb4HbrEqW8cgngDCAH98EJIr6WmprK8uXLadWqlXWVmLBy5Uo6d+5MUVGRdRWRcDgItMIDiwV55RLA00AP6xIi4XD//ffrtr8watiwIXv27NE6ARIrUoFagPnqV144A9ARWIy3LkeIhOTMM89k9erVpKenW1eJKZoQKDGmGPdZNyssS3hh0P093ughUmXTpk3T4B8BtWrV4vHHH7euIRIuScBT1iWszwBcBMw07iASFqNGjdKM9QhyHIfBgwfz3//+17qKSLiY3hZoeQCQjLvUr9ZGFd9LS0tj5cqVNG/e3LpKTFu1ahWdO3emsLDQuopIOKwEOuFeEog6y1Pv16HBX2LEfffdp8E/CrKzs/nJT35iXUMkXNoB11i9udUZgOrAV0BTo/cXCZtzzjmHlStXUr26lq+IhkOHDtGmTRu+/fZb6yoi4fAN7jNw8qP9xlZnAH6CBn+JEVOmTNHgH0UZGRlMnjzZuoZIuJwJ3GTxxhZnADKAdUBDg/cWCavRo0fz5ptvWteIS0OGDGH27NnWNUTCYRfuSriHovmmFmcA7kaDv8SAtLQ0/vCHP1jXiFtPP/001apVs64hEg4NgAnRftNoPwmwPvA67pOQRHztgQceYOTIkdY14laDBg04ePAgn332mXUVkXDoCjwHHIvWG0b7EsBjwD1Rfk+RsGvZsiUrVqwgNVXHspY0IVBizIPAb6L1ZtG8BJAJ3BrF9xOJmClTpmjw94CMjAyeeOIJ6xoi4TIRqButN4vmAcCduBMARXztsssuY/jw4dY15Lgf/ehHDBs2zLqGSDjUIopzAaJ1CaAesBEdAIjPpaens3r1as4880zrKnKCtWvX0r59e/Lzo34rtUi4HQDOBvZF+o2iNQnwl8B5UXovkYh56KGHGDFihHUNKSMzM5PDhw8zb9486yoiVVUdOAp8Euk3isYZgFq4TzqqE4X3EomYVq1asXz5cl3796i8vDyys7PZuHGjdRWRqtoHNAMOR/JNojEH4FY0+EsM+OMf/6jB38PS09P53e9+Z11DJBzqAuMj/SaRPgOQCmwAGkf4fUQi6oorruD111+3riEBuPDCC3nvvfesa4hU1QagFVAUqTeI9AHATcCzEX4PkYjKyMhgzZo1nHHGGdZVJADr1q2jffv2HDsWteepiETK5cDfI/XikZwEmAS8hnv/v4hvPfLII1xwwQXWNSRA9erV49ixY8yZM8e6ikhVnQW8EKkXj+QZgEuJ4JGLSDRkZ2ezZMkSPXPeZ44ePUp2djYbNmywriJSVf2AuZF44UhOAvxZBF9bJCq04Iw/paWl6QmBEivujNQLR+oAoCvQO0KvLRIVV199NYMGDbKuISEaPXq0ntkgseBioE0kXjhSlwBeA66K0GuLRFxGRgY5OTmcfvrp1lWkCr7++mvatWunCYHid88Ct4T7RSMxCfB04PkIvbZIVEyePJmhQ4da15AqqlevHoWFhXzyScQfqiYSSe2A/wOOhPNFI3EG4GHgFxF4XZGoaNeuHYsXL9a1/xhx9OhR2rVrx/r1662riFTFJOCBcL5guOcApAI/DvNrikRNQkIC06ZN0+AfQ9LS0njyySeta4hU1a24Y2zYhPsA4DKgQZhfUyRqxo4dy4ABA6xrSJiNGjWKkSNHWtcQqYqGwA/D+YLhvgQwD+gT5tcUiYpatWqRk5ND48Z6cnUs2rRpE23atCEvL8+6ikioPgXC9htKOM8AdECDv/jYww8/rME/hjVr1oy7777buoZIVfTHnRAYFuE8A/BH4OYwvp5I1LRv357FixeTnJxsXUUiKD8/nw4dOvDVV19ZVxEJ1VRgQjheKFxnAGqi+/7FpxISEnjuuec0+MeB1NRUpk6dal1DpCrGATXC8ULhOgC4EqgVptcSiarrrruO3r314Mp4ccEFF/CDH/zAuoZIqGrjTrivsnBdAvgc6BWm1xKJmrp165Kbm0uDBrp5JZ5s2rSJtm3bcuRIWJ+rIhItYZkMGI4zAK2BnmF4HZGoe+SRRzT4x6FmzZpx7733WtcQCVU/oEVVXyQcZwAmA3eF4XVEoqpr167Mnz+fpCQ9tToeFRQU0KFDB3Jzc62riITiYeD+qrxAVc8AJANXV/E1RKIuMTGRadOmafCPYykpKTz99NPWNURCdS1VXHOnqgcAwwHdOC2+c8MNN9Crl6atxLuhQ4dyySWXWNcQCcUZwHlVeYGqXgKYQZhmI4pES7169cjNzaV+/frWVcQDNm/eTNu2bTl8+LB1FZFgvUYVzsJX5fRBBvACoFVTxFemTJlCv379rGuIR9SuXZuEhAQ++ugj6yoiwToH98FABaF8cVXOAIwDXqrC14tEXbdu3Zg/fz6JieFeB0v8rKCggE6dOrFmzRrrKiLBugp4PZQvrMqnoJ78J76SmJjI9OnTNfjL92hCoPjYlaF+YaifhA2BwaG+qYiFm2++mR49eljXEI8aMmQIl19+uXUNkWANAzJD+cJQLwH8FJgS4teKRF1mZia5ublkZob0cyJxYtu2bWRlZXHw4EHrKiLBuAV4NtgvCnUS4BNAsxC/ViTqpk+fTp8+Wq1aTi0jI4Pk5GRmzZplXUUkGOnAK8F+UShnAE4DviV8CwmJRFT37t354osvdO1fAlJUVESXLl1YsWKFdRWRQBUDpwM7g/miUD4Rfxji14lEXVJSEs8995wGfwlYcnIy06dPJyEhXGuliURcEjAq2C8K5VNRj80S37j11lvp3LmzdQ3xmX79+nHFFVdY1xAJRtBjc7CHuJnAdtw1AEQ8rVGjRuTk5FCnTh3rKuJD27dvJysriwMHDlhXEQlEIdAI2BfoFwQ7CfAKYHSQXyNi4plnnqFnT61ULaGpWbMmKSkp/Oc//7GuIhKIJGAVsDzQLwj2DMBbhHCdQSTazj33XObMmaPruFIlRUVFdOvWjWXLlllXEQnEPwhifZ5gPh1Tgd1AzWAbiURTcnIyixYtomPHjtZVJAbMnTuX/v374ziOdRWRyhwG6gP5gfzHwUwCHIIGf/GB22+/XYO/hE3fvn0ZM2aMdQ2RQNQEAl7pLJgzAM/gPm1IxLMaNWpEbm4utWvXtq4iMWTHjh1kZWWxf/9+6yoilXkKuCOQ/zCYMwAXhtZFJHqeeOIJDf4Sdo0aNWLSpEnWNUQCEfA8vUDPAHQANAtGPK1fv3588sknmvgnEVFcXEy3bt1YunSpdRWRyrQBcir7jwI9AzCsal1EIis5OZlp06Zp8JeISUpK0veY+EVAY3agBwBDq1BEJOImTpxIhw4drGtIjDv33HMZO3asdQ2RygQ0ZgdyKFsd2AukVamOSIScdtpp5OTk6Nq/RMXOnTvJyspi376AH7gmEm1HcJ/ce8rbAQM5A9AfDf7iYU899ZQGf4mahg0b8uCDD1rXEDmVGkDvyv6jQA4AdPpfPKt///5cfvnl1jUkztx66610797duobIqVQ6dusAQHwrJSWFZ599VpOyJOoSExOZPn26lpkWL6vyAUA9oH14uoiE1x133EGbNm2sa0ic6t69O+PHj7euIVKRrsApl0Kt7FenHwD/DFsdkTBp0qQJa9asoWZNPZ1a7OzZs4esrCx2795tXUWkPBcB71T0Lys7A9A/vF1EwuPJJ5/U4C/mMjMzNSFQvOyUY3hlZwC+BLqEr4tI1Q0dOlRrtItnlJSU0Lt3bxYsWGBdRaSs+UCviv7lqQ4AauHe/58U7kYioUpJSWH58uW0bt3auorIdxYtWkTPnj0pKSmxriJyoiLcuXyHyvuXp7oE0BcN/uIxd911lwZ/8Zxu3bpxww03WNcQKSuZEM8APALcF/Y6IiFq1qwZq1evpkaNGtZVRL5n7969tG7dWhMCxWt+C/y6vH9xqjMAFR41iFiYMmWKBn/xrHr16vHwww9b1xApq2dF/6KiMwCJwD7ceQAi5s4//3w++OAD6xoip1RSUsK5557LF198YV1FpNQB3HkA35ugUtEBQAdgWSQbiQQqNTWV5cuX06pVK+sqIpVavHgxPXr0oLi42LqKSKlsYHXZf1jRJYAKTxmIRNs999yjwV98o0uXLtx4443WNUROVO4l/YrOAPwfcH3kuogEplmzZqxZs4b09HTrKiIB27dvH61bt2bXrl3WVUQAngduKvsPKzoD0COyXUQCM23aNA3+4jt169blscces64hUqrcs/rlnQGojvvQgOSI1hGpxLBhw3jvvfesa4iExHEczj33XD7//HPrKiKFuJP6j534D8s7AOiB+/hAETNpaWmsXLmS5s2bW1cRCdmKFSvo0qULRUVF1lVEugKLT/wH5V0C6BydLiIVu/feezX4i++1b9+em2++2bqGCJQztpd3BuBZypksIBIt55xzDitXrqR69erWVUSq7ODBg2RlZbFt2zbrKhLfpgM/OfEflHcGQKv/iakpU6Zo8JeYUatWLR599FHrGiKVngFIwp0AmBaVOiJljB49mjfffNO6hkhYOY7DoEGD+OSTT6yrSPw6DNTmhCcClj0AaAXkRrORSKm0tDRWrVrF2WefbV1FJOxWrlxJly5dKCwstK4i8as5sKH0b8peAsiObheR/7n//vs1+EvMateuHbfeeqt1DYlvJ43xZc8A/BJ4KHpdRFwtWrRg5cqVpKamWlcRiZiDBw/Spk0btm7dal1F4tM9wOTSvyl7BqBtMP0s6QAAIABJREFUdLuIuKZOnarBX2JerVq1ePzxx61rSPw6aYzXAYCYu/TSSxk+fLh1DZGouPrqqxk0aJB1DYlPJ43xJ14CSMSdJag7ACRq0tPTWbVqFWeddZZ1FZGoWbVqFZ07d9aEQIm2w7iPBHbg5DMAZ6LBX6Ls17/+tQZ/iTvZ2dncfvvt1jUk/tQEzij9mxPPAAwF/hP1OhK3WrZsyYoVK3TtX+LSoUOHaNOmDd9++611FYkvg4D/wslnAFqYVJG4pYl/Es8yMjL43e9+Z11D4s93Y/2JBwDnGBSROHXFFVcwbNgw6xoipq688koGDx5sXUPiy3djvc4ASNRlZGTw+9//3rqGiCc8/fTTVKtWzbqGxI9yzwDoAECi4je/+Q1nnHFG5f+hSBxo27YtEydOtK4h8eO7sT7hhD8PA+kmdSRutG3blqVLl+o3HpET5OXl0bZtW7755hvrKhL7DuHeCvjdGYD6aPCXKJg2bZoGf5Ey0tPTmTx5cuX/oUjVZQB14X8HAE3tuki8GDNmjJ6AJlKByy+/XBNjJVqagg4AJEoyMjL0G45IJXRrrESJDgAkeh588EFOP/106xointayZUt+9rOfWdeQ2NcMdAAgUZCdnc1tt91mXUPEF+6//349Hlsi7aQzAE0Mi0gMS0hI0MQ/kSCkp6frORkSaScdAOjcrETE2LFjGThwoHUNEV+55JJLuPDCC61rSOxqDP97DsBqoI1dF4lFtWrVIicnh8aNG1tXEfGddevW0b59e44dO2ZdRWLPSqB96RmARpZNJDY99NBDGvxFQtSiRQt+/vOfW9eQ2NQQ3DMA1YB8Tl4aWKRK2rdvz+LFi0lOTrauIuJbR48eJTs7mw0bNlhXkdhSAqQm4h4JaPCXsCmd+KfBX6Rq0tLSePLJJ61rSOxJBDJLDwBEwmb8+PH079/fuoZITLj44ou56KKLrGtI7GmUAJwPfGDdRGJD3bp1ycnJoWFDHVeKhMvXX39Nu3btNCFQwum8RI4vCiASDg8//LAGf5EwO+ecc7jnnnusa0hsqZMA3AQ8a91E/K9Lly4sWLCApKQk6yoiMSc/P5/27duzdu1a6yoSG36sMwASFomJiUyfPl2Dv0iEpKamMnXqVOsaEjvqJAK1rVuI/11//fX06tXLuoZITBs2bBijRo2yriGxoXYC8EfgZusm4l/16tUjNzeX+vXrW1cRiXmbNm2ibdu2HDlyxLqK+Nt0nQGQKnv00Uc1+ItESbNmzbj77ruta4j/1UkA/g2MtG4i/tStWzfmz59PYmJi5f+xiIRFfn4+HTt2JDc317qK+Ne/EoF06xbiT6UT/zT4i0SXJgRKGKQnAmnWLcSfbrrpJnr06GFdQyQunX/++YwePdq6hvhXWgKwBOhk3UT8JTMzk5ycHF37FzG0efNm2rRpowmBEoovdQlAQjJ58mQN/iLGmjZtyi9+8QvrGuJP6QnAJqCpdRPxj+7du/PFF1/o2r+IBxQUFNCxY0dycnKsq4i/bEwEqlu3EP9ISkriueee0+Av4hEpKSk8/fTT1jXEf9ISAS3aLgG75ZZb6Ny5s3UNETnBeeedx6WXXmpdQ/wlOQE4CGRYNxHva9iwIbm5udSpU8e6ioiUsWXLFtq0acPhw4etq4g/7E8EtHqLBGTy5Mka/EU8qkmTJtx///3WNcQ/khOAY0CqdRPxtnPPPZc5c+aQkJBgXUVEKlBQUECnTp1Ys2aNdRXxvqM6AyCVSkpKYvr06Rr8RTwuJSWFZ599Vj+rEohkHQBIpW6//XY6duxoXUNEAtC/f38uv/xy6xrifUkJQAmgw0UpV6NGjcjJydG1fxEf2b59O1lZWRw4cMC6inhXSSJQbN1CvOuJJ57Q4C/iM6eddpomBEplijUJUCrUt29fPv30U11PFPGhoqIiunbtyvLly62riDcd1RkAqdBvfvMbDf4iPpWcnMxdd91lXUO8qzgJuBedAZByvPnmmxQWFtK7d2+Sk/XASBG/OHr0KI888gj33HMPRUVF1nXEm/ISgL1AXesm4l0tW7bkqaee4sILL7SuIiKVePvtt7n99tvZuHGjdRXxtj2JgA4P5ZTWrl3LiBEjGDVqFBs2bLCuIyLl+Oqrrxg+fDgjR47U4C+BKErEnQQoUqmZM2eSnZ3Nvffeq+eNi3jEkSNHeOCBB2jfvj3vv/++dR3xj6MJQC7QyrqJ+EuTJk145JFHuOaaa6yriMQlx3H485//zN1338327dut64j/rEkE8qxbiP9s2bKFsWPHMnjwYFatWmVdRySuLFmyhH79+jF27FgN/hKqPB0ASJV8/PHHdO7cmYkTJ3Lw4EHrOiIxbe/evUycOJHu3bszb9486zrib3lJwFVAc+sm4l8lJSXMnz+fl156iVq1atG5c2c9P0AkjEpKSvjzn//MqFGjmD17No7jWFcS/8vVGQAJm+3bt3PTTTfRq1cv5s+fb11HJCYsWLCA3r17M3bsWHbt2mVdR2JHXiKg6dwSVgsXLqRPnz6MGzdOH1giIdq2bRvjxo2jV69eLFiwwLqOxJ4jicB+6xYSe0pKSnjllVdo3bo1U6dOpbhYT5wWCURhYSFTp04lKyuLV155Raf7JVL26gBAImrfvn1MmDCBbt26MXfuXOs6Ip42e/ZsOnfuzIQJEzSpViJtvw4AJCqWLl1Kv379GDVqFJs2bbKuI+IpW7ZsYdy4cQwZMkS31Uq0HNABgETVzJkzadu2LQ888AD5+fnWdURMHT16lAceeICWLVvyyiuvWNeR+LJPBwASdUeOHGHSpEm0b9+ed99917qOiIm3336b7OxsJk2axLFjeiK7RN3+RGCfdQuJT1pkSOLRiYv26PteDB1IBHSflpjSIkMSD7Roj3jMjgSgMbDVuokIaJEhiT2O4/CPf/yDO++8k82bN1vXESnVKAFIBvKBROMyIt8ZNGgQU6dOpV27dtZVREK2ZMkSbr/9dj23X7ymGEhNBIqAvcZlRE7y8ccf06VLFyZOnMiBAwes64gEZd++fVq0R7xsN1Bc+lv/TssmIuUpLCxkypQpZGVl8fzzz1NSUmJdSeSUSkpKePXVV2ndujVTpkzREzDFq3bA/0777zAsInJKpYsM9ezZU4sMiWctXLhQi/aIX+yE/x0AbDMsIh5Vv3596wonWbRo0XeLDO3cqZNW4g2li/b07NnTc4v2eO1nWDxjG/zvAEBTU+V7evbsyVNPPUWtWrWsq3yndJGhrKwsLTIkpry8aE+NGjWYNGkSffr0sa4i3rQJdAAgp/DOO+9Qo0YNcnJyGDt2LAkJCdaVvnPiIkNz5syxriNxxsuL9owcOZLVq1dz+umn8+9//9u6jnjTSWP+KMBRlLKpUaOGk5OT4ziO4yxYsMDp0aOHeafyMnLkSOebb75xRCJp8+bNztixY82/38tLp06dnDlz5jiO4zjr1q1zMjIyzDspns2FnKCzBwopHk3Xrl2d/Px8x3Ecp7i42HnllVecBg0amPcqmxo1ajiTJk1yjh07ZjlGSAzKy8tzJk2a5KSlpZl/n5dN3bp1nSlTpjhFRUWO4zhOYWGh07NnT/Neiqdz0gNWMj1QSPFwfvnLX570gbh3715nwoQJTlJSknm3smnZsqXzzjvvWIwTEoNmzpzpnH322ebf12WTmJjojB071tm5c+dJfe+77z7zbornU5syjniglOLRJCYmOrNnz/7eh+PixYudvn37mvcrLyNHjnS+/vrraI0TEmNyc3Od4cOHm38fl5fu3bs7X3zxxfc6z5kzx5MH5YqnUu6T1VZ4oJji4TRp0sTZs2fP9z50SkpKnBkzZjhNmzY171g2KSkpzoQJE5xDhw5FY8yQGHD48GFn0qRJTmpqqvn3b9k0btzYee6555zi4uLv9d6/f79z5plnmndUPJ/FlOOfHiimeDyXXnqpLz84zzjjDOeVV16J5LghPuflA9lq1ao5EyZMcA4cOFBh/yuvvNK8p+KLzKAcv/NAMcUHefXVV0/5QerlU6eDBg1yVqxYEe6xQ3zOy5eyBg8e7KxcufKU/V9++WXznopv8gjluNkDxRQfpGbNms7atWsr/VD16uSp5ORkZ8KECc7+/fvDNX6IT3l5MmuTJk0COmu1fv16p1atWuZ9Fd/kesox1APFFJ/k3HPP/e62o1PJy8tzHnvsMadmzZrmncvmtNNOq/B6qsQ2L9/OmpaW5txzzz0BzVspLi52BgwYYN5Z8VUGUo6zPVBM8VEefPDBgD9wvfwAlW7dujmff/55VcYT8RGvP9Bq/fr1AW/LpEmTzDsrvksTypEI5HmgnOKTJCcnO5999llQH74fffSRk52dbd69bErvqd6xY0ew44n4xNatW52xY8c6CQkJ5t9vZdOqVSvn3XffDWp7FixY4FSrVs28u+KrHAIqfKb7Yg8UVHyU5s2bn3JmcnkKCgqcKVOmePK6Zdmnqon/efn7LdSnVx46dMhp2bKleX/Fdznleup/9kBBxWcZP358SB/MW7dudW688UYnMTHRfBvKpmPHjs6nn34a0naJd3j1jFNCQoJz2WWXOZs2bQppu8aNG2e+DYov8/84hV94oKDiw/z1r38N+UN6wYIFnn12uRYZ8icvzznp3LmzM3fu3JC37Y033jDfBsW3uYtT+IEHCio+TJ06dao0UHp5VrYWGfIPL991Eo7LS1u2bHHq1atnvi2KbzOCU2jlgYKKT9O/f/8qXzv38n3ZWmTI27z63ImKFu0JVnFxsTN48GDz7VF8nbM5hSS0KJBShUyePDksH+ZLlizx7JPZtMiQt3z11VeeffJk9+7dnfnz54dlOx999FHz7VF8nUO4d/ud0hceKKr4NNWqVXMWLFgQlg88Lz+bXYsM2fPy2hONGzd2XnnlFaekpCQs2/rll186KSkp5tul+DpzCMAfPVBU8XHatGnjHDlyJCwffI7j7Q96LTIUfV4+MAxk0Z5gHTlyxMnKyjLfNsX3mUoAbvRAUcXnueWWW8L2AVjqq6++ci688ELzbSsvWmQoOrx8aWjIkCGVLtoTiptuusl825SYyHUEoJsHiioxkLfeeivsH4aO493JXlpkKHK8PDm0adOmETsL9O6773ryyYWKL9OZAKQCBR4oq/g8DRo0cLZu3RqRD0Yv3+6VmZnpTJkyRYsMhYGXbw9NS0tzJk2a5Bw9ejQi275jxw6nUaNG5tupxETyccf2gCzzQGElBnL++eeHbSJUebz8wBctMlQ1Xn9A1IYNGyK27SUlJc6IESPMt1OJmSwhCM97oLASI5k6dWrEPihLzZ4925OPfNUiQ8Hz8iOiW7Vq5bz33nsR3wdPPvmk+bYqMZU/EoTrPVBYiZGkpqY6y5Yti/iHppcXfSl9ClxhYWHE94Nfefn/X+nTIPPz8yO+H1auXOmkpaWZb7MSU7mWILTzQGElhpKdne3k5eVF/MPTcRxn27Ztnv0NUosMlc+rZ3ASEhKcsWPHOtu2bYvKfjh27JjToUMH8+1WYi5ZBCER2O+B0koM5Y477ojKh2gpr19D1iJD3p7D0aVLF2fevHlR3R8//elPzbdbibnsI4AnAJb1oQeKKzGUhISEqD9L38uzyNPT0+N2kSEv38VRr169Ki/aE4oPPvhAt/wpkch7hOAhDxRXYiyNGjVytm/fHtUPVsfx9n3kLVq0cN5+++2o7xMrXn2OQ+mEzV27dkV9n+zatctp3Lix+T5QYjKTCMFwDxRXYjAXX3xx1D9gS3n5SXKxvsiQl5/k2L9//6hMVK3IqFGjzPeBErM5jxBkAIUeKK/EYJ5//nmzD1vHcX8Lbdasmfl+KJtYXGTIy2s5nH766WFdtCcUzzzzjPl+UGI2BUANQrTQAxugxGBq1Kjh5OTkmH3oOo63B6ZYWWRo5syZnl605+DBg6b7Z+3atZ6cB6HETD6jCp7wwAYoMZouXbpE5b7qynj51PTAgQN9uciQly+1DBkyxFm1apX1LnIKCgqcHj16mO8PJabzGFVwsQc2QInh3Hfffdafw9+ZOXOm07x5c/N9UjZ+WmTIy5MtzznnHGfGjBnWu+g7d999t/k+UWI+F1IF9YBiD2yEEqNJTEx0Zs+ebf1Z/B0v357m5UWG/HC7ZaQW7QnFJ5984smDJCWmUgTUoYoWe2BDlBhOkyZNnD179lh/Jp/Eyw+o8doiQ15/4FIkF+0Jxb59+zw5AVWJucwnDB73wIYoMZ5LLrnE+nO5XLNnz3batWtnvn/KpvQRtZaLDHn5kcutW7d23n//fbN9cypXXHGF+f5R4iIPEQbneWBDlDiIV2e9ly5SU7t2bfN9VDZ16tSJ+iJDXl60p06dOs5jjz3micml5fnTn/5kvo+UuMkAwqA6kOeBjVFiPDVr1nS++uor68/oCnn5N96srCznP//5T8T3gdfPiFg8ZTJQX3/9tScPmpSYzGEglTD5jwc2SImD9OnTx/NL5i5cuNDT17wjsciQl+dEWCzaE6zCwkKnd+/e5vtKiZvMJIzu8sAGKXGSBx54wPrzulKls94bNmxovr/KJpyLDHn5rgirRXtC8atf/cp8fylxlZ8SRu08sEFKnCQ5Odn57LPPrD+zA+Ll+96rusiQl5+LcOONN5os2hOKuXPnevL7Q4nptCbM1ntgo5Q4SfPmzZ0DBw5Yf3YHbMmSJU6/fv3M91t5CXaRIS8/GXHAgAGmi/YE69ChQ06LFi3M95sSV1lHBDztgQ1T4ijXXnut9ed30Py8yJCX10bwwqI9obj66qvN950Sd3mCCBjmgQ1T4iyvv/669Wd40Lw8kFa0yJBXD1y8smhPKP7+97+b7z8lLjOYCEgFDnpg45Q4Sp06dSIyqz0avHwqfeDAgc7y5cs9fenivPPOc1avXm39vzEkmzdvdurWrWu+D5W4ywEghQh50wMbqMRZ+vXr54uZ3hXx6mS6atWqeXJyWosWLZyZM2da/28LWXFxsTNo0CDz/ajEZf5GBF3rgQ1U4jCPP/649ed6leTn5ztTpkzx5O10XokXF+0JxUMPPWS+L5W4zdVEUB0g3wMbqcRZqlWr5syfP9/6s73KtmzZ4tkH6lhm5MiRzsaNG63/91TZokWLnJSUFPP9qcRl8oG6RJieCqiYpEWLFqecxe4nXn2kbrSTlZXlfPDBB9b/O8Li8OHDTuvWrc33qRK3eZsouMlo4xTFufnmm60/58OmsLDQs4sMRToWixhF2g033GC+X5W4zniioBFQZLBxiuIAzltvvWX9WR9WXl5kKNzxwjLGkfDPf/7TfN8qcZ1CoD5R8kkUNkhRyk39+vWdrVu3Wn/mh93ChQudXr16me/fSKVr166+ecRzML799lsnMzPTfP8qcZ3/EEU/idBGKEpAOf/88333VLhAeHmRoVCTmZnpTJkyxSkuLrbevWFXUlLiDB8+3HwfK3GfG4miBrinHKw3WonjTJkyxfrzP2K8vMhQoElOTnYmTJjg7N+/33p3Rszvf/978/2sxH3ygUyi7L0wFFeUkJOamuqrhWFCsXTpUs8+qe9UKX3SYCxbsWKFU716dfN9rcR9/oWBa0IsqyhhS3Z2tpOXl2c9FkScV5/VXzalaw3E4uWZEx09etRp3769+f5WFOBHGKgBHA6hrKKENRMnTrQeD6LiyJEjnl1kKJDVBmPJbbfdZr7PFQV3DK6Bkb8GUFBRIpqEhATnnXfesR4Touarr75yRowYYb7fSzNy5Ejn66+/tt4tUfPee+85CQkJ5vtdUYBXMDSiglKKEtU0bNjQ2b59u/XYEFXWiwy1aNHCefvtt613Q1Tt3LnTOe2008y/3xXleIZiKAnYXE4pRYl6hg8fHvPXnsuyWGSodNGeY8eOWW9+VJWUlDgjR440/z5XlOPZjDsGm3oM+x2hKA7gPPfcc9bjhIloLTI0cuRI55tvvrHeXBNPP/20+fe3opyQB/GAVkAJ9jtDUZz09HRnzZo11mOFmY8//jgiiwx17NjR+fTTT603z8yqVauctLQ08+9vRTmeEuAcPGIe9jtEURzA6dKli5Ofn289ZpgJ5yJDsbhoT7COHTvmdOrUyfz7WlFOyMd4yPXY7xBF+S733nuv9bhhbvfu3c6ECRNCWmQoMTExJhftCcWdd95p/v2sKGUyFg+pCRzAfqcoigPuAPbRRx9Zjx2eEOwiQ926dXM+//xz69qeMGvWrLhYpVHxVfYB6XjMdOx3jKJ8lyZNmjh79uyxHkM8oaSkpNJFhmJ50Z5Q7N2712natKn597GilMlTeFBbNBlQ8VguueQS63HEU/bt2+dMmDDBSU5O/m4fxcOiPaG4/PLLzb9/FaWcZONRc7DfOYpyUl5++WXrscRz1qxZ4wwdOtQZNGiQs2LFCus6nvPCCy+Yf98qSjn5mDBKCOeLAWOAP4f5NUWqJCMjg6VLl9K8eXPrKp7iOA4JCeH+CPC/tWvX0qVLFw4fPmxdRaSsK4C/hevFwv3Tn4r7dKIGYX5dkSrp3r078+bNo1q1atZVxMOKioro27cv8+fPt64iUtYOoBlQEK4XDPdjBIuBDGBAmF9XpEq2bt1KUlISAwcOtK4iHvarX/2Kv/71r9Y1RMrze2B2OF8wEuf/GgMbgZQIvLZIyJKTk/n000/p3bu3dRXxoLlz5zJw4ECKi4utq4iUlQ+cBWwP54smhvPFjtsGzIjA64pUSVFREWPGjOHgwYPWVcRjDhw4wNVXX63BX7zqL4R58IfIHAAAPBmh1xWpkg0bNvDTn/7UuoZ4zK233so333xjXUOkIlMj8aKROgBYDMyN0GuLVMnLL7+s67zynVdffZW//OUv1jVEKjIbWBqJF47kPUA/BN6I4OuLhKxOnTosXbqUM88807qKGNqwYQOdOnXSZSHxslHAzEi8cKTOAAD8C1gdwdcXCdn+/fu55pprdM03jpWUlDB+/HgN/uJla4B3IvXi4b4N8EQO7szFURF8D5GQbdq0ibS0NPr27WtdRQz89re/5aWXXrKuIXIqPydCp/8hspcAAKoBXwNNI/w+IiFJTk5m3rx59OjRw7qKRNGiRYvo06cPhYWF1lVEKrIFOIcwPvinrEheAgAoJEKzF0XCofTWQD32NX4cOXKEMWPGaPAXr/s9ERz8IbKXAEqtAG4G0qLwXiJB27t3L3v37uWiiy6yriJRcNNNN/HRRx9Z1xA5lb3AWGLgAKAASEePBxYP+/LLL2nXrh1t27a1riIR9Oabb/KLX/zCuoZIZR4FPoz0m0RrKbDauI8HrhOl9xMJWv369Vm+fDmNGze2riIR8O2339KxY0f27NljXUXkVA7gPvZ3f6TfKNJzAEodAKZF6b1EQrJ7927GjRuH4zjWVSTMSkpKGDt2rAZ/8YM/EIXBH6JzCaDUEty5ANWj+J4iQVm/fj116tShV69e1lUkjCZPnswLL7xgXUOkMgeAK4Fj0XizaF0CKPUwoAtw4mmpqanMnz+fjh07WleRMFi8eDG9e/emoCCi86lEwmES8EC03izaBwCZwHqgVpTfVyQo2dnZLFy4kLQ03bziZ3l5eXTt2pWcnBzrKiKV2Qc0J0qn/yG6lwAAjgKpwMAov69IUHbt2sXhw4cZNmyYdRWpgp/+9Ke8//771jVEAvFbojDz/0TRPgMAUBNYBzQyeG+RgCUkJDBz5kxGjBhhXUVC8N577zFixAhN6hQ/2Am0AA5F800tDgAAJgJPGr23SMAaNmzI8uXLadRIx6t+snPnTjp06MCOHTusq4gE4ifA9Gi/abRuAyzrGWCD0XuLBGznzp2MHz9ev0X6iOM4XHfddRr8xS82Av9n8cbRngNQqhj3VMfFRu8vErB169Zx2mmn0a1bN+sqEoCpU6fy9NNPW9cQCdQEYLHFG1tdAgD34GMx0MGwg0hA0tPT+fLLL8nKyrKuIqewevVqunXrxtGjR62riARiKdAN95fiqLO6BADuBk80fH+RgOXl5TFmzBjdS+5h+fn5XHXVVRr8xU8mYjT4g90lgFIbgU6Afq0Sz9u2bRuFhYWcd9551lWkHD//+c956623rGuIBGoG7pK/ZiwvAZRqDqzGfT6AiKclJiYya9YsBg8ebF1FTjBr1iwuuOACTdYUvzgGtMH9JdiM5SWAUuuBKdYlRAJRuqjM3r17ravIcVrESXzo9xgP/uCNAwCAh4Bt1iVEAvHtt9/y4x//2LqGHHfDDTewbZs+PsQ3vgUety4B9nMAShXgPv94lHURkUCsWbOGs846i06dOllXiWvPPvssTzzxhHUNkWDcBiyyLgHemANQKhH4AuhuXUQkEDVq1GDJkiW0bNnSukpcWrduHZ07d+bw4cPWVUQCNR/oDXjiepVXLgEAlODeEuGJHSNSmSNHjjBmzBgKCwutq8SdwsJCxowZo8Ff/MQBfo6HxjivXAIotRloC2RbFxEJxNatW0lMTGTgwIHWVeLKL3/5S2bMmGFdQyQYf8ZjE969dAmg1JnAGkALsYsvJCYmMnv2bAYMGGBdJS7MmTOHQYMGUVxs9vwUkWAdxn3ezbfWRU7kpUsApb4BHrAuIRKokpISxo8fz8GDB62rxLz9+/dz9dVXa/AXv/kVHhv8wXuXAErNB0YAp1sXEQnE/v372bp1K6NHj7auEtPGjx/PvHnzrGuIBGMhcCMeuvZfyqsHACW4BwHX492OIidZtmwZrVu3pn379tZVYtJLL73Eww8/bF1DJBhFuKvebrUuUh4vzgE40ePA3dYlRAJVu3Ztli1bxplnnmldJaasX7+ezp076zKL+M1DuKf/PcnrBwBpwHKghXURkUD169ePjz/+mKQknbwKh6KiIvr378/nn39uXUUkGF8BHXGf++9JXv+EKgJWAOPw/sGKCACbNm2ievXq9OvXz7pKTHjggQd47bXXrGuIBMMBfgSstS5yKn4ZVF8ErrMuIRKo5OQPd9wkAAAQOklEQVRk5s6dS8+ePa2r+Npnn31G//79Netf/OZZ4BbrEpXxywFAbWAVcIZ1EZFAtWjRgsWLF5ORkWFdxZcOHz5Mly5dWLvW079EiZS1DfeBdvuti1TG65cASuXjPiXwMusiIoHau3cve/bsYeTIkdZVfOmGG27g448/tq4hEqxxwFLrErHon7jXVhTFN5kxY4Yjwfn73/9u/v9NUULI3/ERv1wCKNUY966A+tZFRAJVv359li9fTuPGja2r+MKWLVvo2LEje/futa4iEoydQAdgh3WRQHnxUcCnsg24wbqESDB2797NuHHjcBzHuornlZSUMHbsWA3+4jcO7tjkm8Ef/DMH4ES5uI8I7mpdRCRQ69evp3bt2vTu3du6iqc9+uijvPjii9Y1RIL1DPCUdYlg+e0SQKl04Evc1ZVEfCE1NZX58+fTsWNH6yqe9OWXX9KnTx8KCgqsq4gEYw3QDcizLhIsvx4AAHQBPgdSrIuIBKpt27YsWrSItDStdn2iI0eO0LVrV3Jzc62riAQjH+iFT2f9+/ESQKltuE8KPM+6iEigdu3axaFDhxg+fLh1FU+57bbbmDVrlnUNkWDdg3t3mi/5+QwAuJMYZwGDrYuIBCohIYF///vfXHTRRdZVPOFf//qXllEWP5oFDMNdvdaX/H4AAO7TAZcD9ayLiASqYcOGLF++nEaNGllXMbV161Y6duzI7t27rauIBGMf7kI/m62LVIXfbgMsz7fAj61LiARj586djB8/Pq5vDXQchxtuuEGDv/jRTfh88Ad/zwE40RrgLKCTcQ+RgK1bt45GjRrRvXt36yom/vCHP/DMM89Y1xAJ1vPA49YlwiEWLgGUqgnMx12EQcQXqlevzsKFC2nXrp11lahatWoV3bp149gxzy6VLlKeFUBv4Ih1kXCIhUsApQ4Do4ED1kVEAnXs2DHGjh0bV/e+Hzt2jKuuukqDv/jNfuCHxMjgD7FzCaDUHmA1cAWxdXZDYtj27dspKChg6NCh1lWi4o477mDmzJnWNUSC4QBjgM+si0jlHsF+VShFCTiJiYnOhx9+aLwGX+S9//77TkJCgvn+VpQg8wAxKFZ/S04E3sG9R1PEF8444wyWLVtGZmamdZWI2LVrFx06dGD79u3WVUSCMQsYDhRbFwm3WJoDcKIS3NM1G6yLiATq22+/5cYbb7SuERGO43D99ddr8Be/+Qa4ihgc/ONBJ9wFGqxPHylKwPnTn/5kfaY+7KZNm2a+XxUlyBwlxledjdVLACe6BnjFuoRIoGrUqMHixYtp1aqVdZWwWLNmDd26dSMvz3eLpUl8uw74f9YlIilWLwGc6FXgOesSIoE6cuQIY8aMobCw0LpKleXn53PVVVdp8Be/mUaMD/4Qe7cBVmQWMBRoYl1EJBBbt24lISGBQYMGWVepknvvvZd//tO3i6VJfPqMOLnuHw+XAEqdBnwBnGldRCQQiYmJzJ49mwEDBlhXCcknn3zC4MGDKSnx7WJpEn824D7pb4d1kWiIpwMAgDbAPKCudRGRQDRt2pRly5ZRt66/vmX37dtHp06d2LRpk3UVkUAdAPoCK62LREs8zAE40RrcxwXnWxcRCcTmzZuZMGGCdY2g3XzzzRr8xU8KgUuIo8E/nl2J+6wA69tMFCWgvPbaa9Z38gXshRdeMN9fihJESoCxSFx5APtvPEUJKLVr13Y2btxoPbZXat26dU5GRob5/lKUIPIrJO4kAC9j/82nKAGlb9++TlFRkfUYX6HCwkKnV69e5vtJUYLIX4i/uXDfiZfbACvyDtAHaG5dRKQymzZtIjU1lX79+llXKdevf/1rXn/9desaIoH6BLgUKLIuYiVuj3xOUBuYC7SzLiJSmeTkZObOnUvPnj2tq5xk7ty5DBw4kOLimL91WmLDatwZ//usi1jSAYDrLNxnBDQy7iFSqXPOOYclS5aQkZFhXQWAAwcO0KlTJzZu3GhdRSQQ24FeuAv9xLV4uw2wIhuBEbj3gYp42tdff82dd95pXeM7t956qwZ/8Yv9uEv7xv3gL9/XGziE/cQURak0f/vb36zn/Tmvvvqq+X5QlABzBPDmBBojugTwfUOAt4Hq1kVETqVu3bosW7aMpk2bmrz/5s2b6dixI/v2xfVlVPGHo7hneT+2LuIlugTwfR8BP0BPCxSP27dvH9dff73Js/ZLSkq45pprNPiLHxQCl6PB/3vi/TbAinyNO0v0EnSQJB62fv16ateuTe/evaP6vg899BAvvfRSVN9TJATFwDXAm9ZFxH/G4X4DWV+7UpQKk5qa6ixZsiRq1/0XLlzoVKtWzXy7FaWSlAA3IFIFt2H/jawop0zbtm2dvLy8iA/+hw8fdlq1amW+vYpSSUqAW5FT0iWAyi3EvT1wmHURkYrs2rWLgwcPMnz48Ii+z80338xHH30U0fcQCYP7gKesS0js+C32R7WKUmESEhKcmTNnRuy3/zfeeMN8GxUlgExCJALuwf6bW1EqTIMGDZxt27aFffDfsmWLk5mZab59ilJJHkMkgu7G/ptcUSrMsGHDnJKSkrAN/sXFxc6QIUPMt0tRKomW9ZWouBndHaB4ONOnTw/bAcDjjz9uvj2KcoqUABMQiaIxuA+YsP7mV5TvpXr16s7y5curPPgvXrzYSUlJMd8eRakgRcB4RAxcDhRg/0OgKN9Lu3btnKNHj4Y8+B89etRp166d+XYoSgXJBy5FQqbbAKtmFbAYGA1UM+4icpKdO3dSUFDA0KFDQ/r622+/nXfffTfMrUTCIh/4EfBP6yIiA4CD2B8RK8pJSUxMdD788MOgf/t/9913nYSEBPP+ilJODgPnIeIh3YE92P9wKMpJOeOMM5zdu3cHPPjv2LHDadSokXlvRSkn+4A+iHhQV2A79j8kinJSRo8eHdDgX1JS4owYMcK8r6KUk21AZ0Q87GzclQStf1gU5aS8+OKLlR4ATJkyxbynopSTlcCZiPhAXWA29j80ivJdatSo4eTm5lY4+K9atcpJS0sz76koZfIRUIf/397dxtZdlnEc/9K5MgfTwTLdCIsPqCCiBWoc4OIsipCIjBBEMyUgIgQxakwWjO8kxgQ1MaJRQYKSoQEFdIAhm2DVgLIojsS4gTAX1FG24hhdu3WF9vjiOt26B+b6dK7/w/eTXDlnW5b8XrTnvs79vx+kEmkHbiP/l8ey9lRnZ2djaGjogMF/cHCw0dHRkZ7PsvarHxOfpZoGbgOcPsPAqub7pcARiVkkAHp6egDo6ura5+9XrFjBqlWrDvZfpAwN4HrgS8RnqVRalxH7VrO7actqtLW1Nbq7u/d8+1+zZo1b/qwi1W7gUqQKOZvYwpL9y2VZjUWLFjW2bdvW6O3tbSxcuDA9j2U1axvwftQSTku31snAr4E3JueQWL58OQMDA079qyg2AR8GNmQHqQsbgNZbQBxfeUZ2EEkqiD8SR6pvzQ5SJy4CbL1+YnfAkcCS5CySlO1m4lz/vuwgdeMMQK5PAjcBs7ODSFKLDQLXArdmB6krG4B8pwL3ECcISlId/Iu4yvfP2UHqrC07gHicuEhodXYQSWqBB4gz/R38k7kGoBh2AT9tvp6NMzOSqqcBfAP4NLAzOYtwoCmi84GVePa1pOroAy4ndkCpIGwAiumtxLqAU7KDSNIkPQFchPv7C8c1AMX0FHAmro6VVG4/At6Ng38hOQNQfBcR+2TnZQeRpMO0HbgGuCM7iF6ZDUA5LCCuxTwvO4gk/R8PERegbc4OokNzF0A59AM/Iy4T6gJelRtHkg7wEvA14Eo81a8UnAEon1OIZuCd2UEkqWkD8AlgXXYQHT5nAMpnK/ATYA7wHmziJOVaCSwjTvdTiTh4lNu5RDOwIDmHpPrpJQ71uS87iCbGbYDltho4Hbg3O4ikWrmbeAzp4F9iNgDl10NMv10CPJ+cRVK1PQd8lLjIZ0tyFk2SawCqYz1wG/E4oCM5i6RqaQC3AxcAjyVn0RRxDUA1XQx8F9cGSJq8J4GrgD9kB9HUcgagmtYDtwCziWM4fdQjabxeBr4JfBzYmJxF08AZgOo7nThKuDM7iKTSWAd8Bqf7K80ZgOrrIY4RHgDOAmbmxpFUYAPAdcRpfh7lW3E2APUwAjxCLBKcj4sEJe2rAdwFXEhsL27kxlEr+AignrqAG4ljhSXV21+ALxJfElQjLg6rp27gNOKX/sXkLJJyPAtcDSzGwb+WfARQXyPAWmJ9wGuAU7EhlOpgELgB+BjwKE7315aPADTqJOB64pQvSdV0P/B5YFN2EOWzAdD+Pgh8CxcKSlWyjnjk52E+2sMpX+3vQeLMgCuAZ5KzSJqcTcBlxIFgDv7ahzMAOpR24HLgq3issFQmzxMzed8hnvlLB7AB0OE4Cvgc8GVgbnIWSa9sB/B94OtAX3IWFZwNgMZjDvBZbASkohkd+G8AXkjOopKwAdBEjDYC1wHHJGeR6syBXxNmA6DJmAt8gdhWdGxyFqlO/ks8378RD/PSBNkAaCrMAi4BvgKcmJxFqrLngJuAb+PAL6lA2oCPEMeKNizLmrJ6iphtOxJJKrglwC+BYfI/PC2rrPVboql2tlZS6byZeFY5QP6HqWWVoXYDPycu6ZGmjV2lWmU+cA1wLfC65CxSEW0Bfgj8oPlemlY2AGq1dmAZcBXwAfwZlB4DbgZWAruSs6hG/PBVphOBTwFXAvOSs0it9CJwJ/A94G/JWVRTNgAqgqOIa4ivIBYP+nOpKmoQF/LcCtwF7MyNo7rzg1ZFswhYDlwNvCk5izQVNgO3A7cATydnkfawAVBRtQHnAJcCFxKzBFJZ7AB+RTzXfwgYyY0jHcgGQGUwi73NwDJiIaFUNMNANzHo3wP058aRDs0GQGUzD7iYOHp4KTAjN45q7mXgd8S+/buBbalppHGwAVCZHQucTywg/BDODKg1hoFHgV8Ad+CefZWUDYCqYi5xZOoyohmYkxtHFdMHrAbuBe7Di3hUATYAqqIZwJnE7MAFwNtz46ik/gk8CNxPDP5DuXGkqWUDoDo4CTiPWEi4FHcU6OD6gd8DvwEeAP6RG0eaXjYAqpt24CziMcE5wGm4kLCuhoG/AmuIQf9P+C1fNWIDoLo7GjiDOIHwvcD7cDFhVQ0DjwOPAA8T+/Ndta/asgGQ9nU0MUOwhLiOdTHw2tREmqjtwFpixf7DxDf8gdREUoHYAEiH1kasIVhMzBQsBk4GZmaG0gFeAv7O3gF/LfAEcf6+pIOwAZDGbybwNqBzTHUQsweafv3Ak8B64ird0fIqXWkcbACkqXMcMTvwjjGv78IzCSZqN7CR+Ga/fszrBjxbX5o0GwBpeh0BHA+8BTih+Tr6/gRsDvqI/fZPN2vjmPebcQpfmjY2AFKuY4gG4Q3EVcjHN1+PA14PzG9WW1bACRoBepu1BXgW+Hez/gM803y/PSugVHc2AFLxzWBvIzCfuANh7kFqNjGjMAt4NXHgUTuxi2FsAzH672PtAgbH/HmEOO52iFg5v5OYkt/RfL99TL0w5nV00N+K0/RSof0PFv2uYbLa/ygAAAAASUVORK5CYII=;container=0;" parent="e1xb1ZiiVn83qvHqSyir-14" vertex="1">
          <mxGeometry x="100" y="60" width="60" height="60" as="geometry" />
        </mxCell>
        <mxCell id="L7ELWCS3wUbe0nNfrqdp-14" value="" style="shape=image;verticalLabelPosition=bottom;labelBackgroundColor=default;verticalAlign=top;aspect=fixed;imageAspect=0;image=data:image/png,iVBORw0KGgoAAAANSUhEUgAAAIAAAACACAYAAADDPmHLAAAACXBIWXMAAAOwAAADsAEnxA+tAAAAGXRFWHRTb2Z0d2FyZQB3d3cuaW5rc2NhcGUub3Jnm+48GgAAFVhJREFUeJztnXu03UV1xz8hCeQhJAQIkBByxSgJEl4ioCAgWKVCUIpABCKtUEHLKi2gsKoCSksf+KospbEgMa1EkSiSBqGpQCCCPIyFYogBuSUkBJKQkAB53uT0jz3TM2fO7Jnf69x7c+/5rjVr3fs78579m9/MfkL/xCDgUuAPJl1qnrXRD3AS8DRQ89Ji4KM92K82WowJwB00L7yf5gEH9VAf22gBhgPXARtJL75NW4B/BkZ0f3fbqAo7AX8GrCC8yJ3AJ0zqVPKsAD5t6mpjB8J7gUcIL+pbyI4wxMm/M3AZsF4p8xvgA93T9TbKYCwwE9hO8yJuR84A4yPlxwDTgW2B8jVgDtDRmq63URbTkLc7tHCPAcfkqOsYU0bbQaZV1us2KsFQwoe8FcCngAEF6hxgyobOEBtNmzs8+srhZjSN33SL3YADgF0K1DkY2B0YFvhtCLB3gTrbaBHGE7/WvUS+nWAKwiGM1dlRWe/bKI0UAdj0AHBopJ5JwL0Z6+qofhhtFIVPAL8E7ia8cF3AzcCeTvk9zbMupczdps42AfRS+AQwwzz/MPA7wou6Brn7X2b+DuX5nakDU2ebAHopNAIAkfJ9BlhJeJE14rgKYRBZzKBNAL0WMQKwGIXw97eiL/w2hJE0OlB+Bn2QAPrKNTAL7JY/GfhF4PcHgMOR28LKbuxXj6I/KkFYuf+LwP7m2VJET6DfoT/tAD62K3/3K/RnAmiDNgH0e1RBAMcAfw0cXEFdMVje/OAWt1MGto+tPlsdjMx5Hgln5Xg7MJvGK9QtVCsk2Qk4H1HusFy6jcB/Ifx6i9NovKItBU5N1N3p5O9M5D3V1Om24bZ/uumTlUh2AQtM36vcZfdG5tjVV5iNrEW34W3ADeg6duuAz9PIRCmC44GFShs23Q78iLACSA257k1U6s9CABNNHaG6t5u2b0/0cSHltYl2RuZ0ndLGRmRN3laynSisfHy50gk/LaHxLcmKkcC/Z2wjS9oCfNPU6yJGACNNmS0V9WE7wmAqomQ6BZnLLO0sp7j+QxQpDZnZ6JN1H9nVrEcB/6PUswQRymxWfq8By4DnlN9WAZcAA01bIQIYaPKsUup4zrQRI7Z7aP5c2PQ0ckbIgoOQudPamU11GlAqUjp2s4BxJm9MlLoVYcOmBv/jQNllwHkIVf+dUv8m4G8RFfDUdvnfwIk0E8CJ5rdQGfezNty0tUnJ+1XT1/MIE8usxBzsTpxlfS8y1yBzPwt9fWYia5gbQ4AvAm8qnXgSOFYpexrwe6XcauBzhE/J7w4M4EZkwi00JY0XAvWFDkxu2qb87efRDradSpnnnTzDga8F8oR2xEHI3KxW6v09MrchHIusSajcm8hahjSmgjgjMrisevI7A1cAryv1PE0z6/VqL8+NNOvdfUup77VIX94DPKyUi6UFpqyGtUq5b3n5hgDf8PJc7eXRzNVqyBxeQfpQvROyNjE7iI8n6uAcwtvJZuAfER27PBgNfI/wG7YNMcqwuNX7/VWT5zveIE9DDD7cLXJRoh8DgKno32Y3LTV5Uwcpd5fbCvwpcl10X47vIvPpi6JvdfKchT4/3yMsmYxhN2StQmel7cgaq5ilFLowZyd8aIP8uZPn5sDvNrn33D2Ah7zfb87Yj2HAtYQPT9ZgJKQEGsJ0r/x80zeLAyLjcfsb0lzahsxZGVxI+GWOnkFmBwrYlDKqCGFXhBq1A9M8k28U+gHyDeRapn0ju5DzQx6M8+pZTV0ymBUH06xC5p5xdkc/Q91rxgwyB6E8m5C52zVnv8YTN4KdHSscI4AasAE55Q7XKjBI2eXZ9ABim/9aJM8M5Bv4jPL7lxJ90dDp1NFZsI5rlD49A1wO/ED5vYaM+S+QOYjN0QpkLlPnruHI2mxI1JeLAF5VKnmJ+tXMx/uBJ5Ry2r21SNqKnG6LogoCACHAmJZR3qTN0RPI3PqwV86XlHL+GuYigHHEqeoRxBATYD/gh+h30n8jrb7dhRzoUpM0H9HeKYOqCADTl/mk+70IXfPYpvHIXGnz+ENkriFuBGt363He81wEYL9T4wkzaWrIgWUu2bhSgyIDfxA4DNnqriKsxPlbyh+OLKokAIuzCDOTVgJfQMZ2GDJWbR4sjyTFfZ2Lzr/4MfXz2ijvt0IEYJFFQGPTcuACGj8TIQLoJLyouwAfRO625xI36CiCVhCAxeHItnwhMoaQadpZhPktLpNsADKHWeUvC5E1clEpAYBQ8Z+jnw9ikimfABbSc0aWrSSArBhK8wsV4pKmJLCvImsSOihWTgAWIxA2qZv/YeT+q8EngHmRvK3CMOArNAqvtphnWXkAVcK/BsaUSQ6gmat5C3EpY5QAyigrrKOZqfCfhPnyvQVTEGufa2jULBpsni2hReLUivACMscuZiFrUQj9RSfwSOBXCNetI5JvLHJ3f5i4HKDPoK8TwD7A95HTdOgO/ROTfBwLPErdLrDPoq8SwC7IVXIJYS6a1Qk426QTzTMXg81vfRopAqha63SC9/++NApQqsDHEFbsP9DMR18FXIx8EuY7z+ebZxebPBb3Vdw3H3sgc+DCn6OyyLWGIWngbPST/cle3i8r+UYgihEhEeVa5G0tex18N7pgZQvwdZr1ArW+ngccV7I/MQxFxhzSKdiMzJV2sv+yl/9kJd8BhGU7UWnguYECsbt9igBSPAM3LUVk6nk/S6OAm9D58XOBA3PWqWE4MqnLEcWP2DU5hJ2QMWbRS9Du9ikCSPEMpqY6+QnEcDJU2Nc6jRHAB9C5hm+h88SfAk5JdZK6x29NkrgY+OMM9eTB57w2XiO7p/FTkLGF+tqFzkr31co1Akhpbb9IowJOFDHFiRp1/n6IAMajyw22I+LdMYg8fa6Sr4YYWhyh9O9D6OLhtYjVTCssiC5Q2nzG9CmEI5CxaOOci8zFGGRuNBsHy98PEUBKbnAtBZlcKa1Tv9Gn0CWHjwJHBdo4CV2hcRtiI9Bh8k4A7lLydgH/AuxVZKAZMQjR2NV2r7uoH+I6TN81gc2ThE3Sj0LmKlRmA827yGNk09ouhZjWaSotQ0ykYty1AcAnEU5XqI5NwE/RNYseRKRs3YWYRC/V1xeQsabm43ziNgixFNPaLoyY58xQ2oy8LXlUmgYj/nyyHBpr5Pf/VzWy+BO06TXk5J9ZPRvZtq8jreVj02rEC8rAQF2VIaZ1atNPKOdDZ6RpI+bj/z/oHe5ahyJ90fq5ERlLliuohg5kTmMvWxGt7VKYQLPh5CKEq1YV9kc0h7WB3wW8o8L28uId6GeSGtL3vMqmMZxIs8bUL6ieeZQZWRlBZXAO+gTXqEf36E7qzxqFJKqDXxBZGUGZsCPKArZ6/w8G/hIx1MiiPVsGVtv5eeRq5X/P/b71euyIBHAl8FeIvYALK/l7gtZE93gvYi72fdOWiw2IQslVLWi312I08G0at6P70B0yFIX/CfiseT6W7NqzZZBF29la4H6W1n4CJtJsMv5t8puPlcZ56IafWxEz7qp2F40ALFJcsGsodlsYasrmscFvFQEMBP4eXd7xOsJb6BZMQ2dXuummitpLEQCktWdfRGT7WfgFA0zemDzkAqWuVhHAd5S++LvRuRW1p2Is8u1NdcamP6qgzSwEYJGShD1E3KDkcJoNT23K4oenFQRwitKfUFpH8/mkUlzvNegTg28MWYVCxRSvzgsylNFk4TWEN/+vNH43R5tnGt8+phPhohUE4Os4+HPs/39tBW2q8IUUU2gUjPgOCjZR3lvYbtRt8ZeST9iTcrxwpUl5HFnEUDUB7EIjx3UFcJHzfxfNL8iCkm1G4SoyLDPPpiHRNL6KHPzu9DpUyEeNh6HIgauIG7SByMJojp9CaZUpk5enXjUBjPXquxOZ4+uROT/f5HPPPv9bss0oXnYaWqzkuY3GTne0skM5MBLRE4zJMLYijh/2VOpIoWoC6PDqu03Jt9jJszxPAzsiI6goXkd880xGlDB8/BI5BF6MSNX6BfISQM35226P+yG6a4d6z0NlegOWIH6GljrPllLXMupN8OfOzu2hyJyP9Z6HykSR16nxWkR1CWR7GouwXvdBDiRHA4d4nVmTs43uwo4QL2Ct9/9kRH39UWTtViAs6g4nT8xjWhPy7gCPO38PQoIp7+P8fwuNZtzP0syzL4LzgZ8hyiL9CetpPGsdhngOsy/uvsgauC+yu0aV4ziyn6RriHJmWUymkfNYlaCn06mzs6I6W8EHuJJ8c57LECTvDrCAcESuEJ6i0cdfUUyike2a1yPYjo6bEH5EFtwK/DpP5UVuAZcg23EMTyNOE7cUqN+Hz3PvrabbrcJmZC5TB9TZiN1CLhQhgM3AmYgypt+pFYjnrmPIeR9tI4pliLr4l5A5dvEMwow7i2peuFzoCZWwmDAoD3aUM4CPfq8S1kaFaBNAP0cZApiAuHB1MRU4oUSdPgbQbNk7JpSxl8Dv24FUe2g9gWbr3ivoZrXwLCrRcygfyepDCFMjVP88yoepq/IM8C5kzJpIuaxzy/3QI7fUqKvGF4lJlBndYRoG8D7g/gz1l5XcVUEAVsKo2QG66RHEaWQe9BrTsJgD6DeRhdacFcccS7s4Et1lfA19klciEry8gy5DAANNmyF3trG+1swYj0zUn3IA/RIy55o7es2xdG6kgka5MQSGIXrxms7g40qnJpl6tO1tKSIDGIpQt6a9swj4SI6xFSWAE9GDS71JPejEWcQNR+cRtmiOhbjZQKPvozHILqipss2hoD6G9WGzXqk4Zn4c+15ZotkfIZzp6Lb2qwhb0+5B3EZ/Dtn09/ISwLjEuGbSrJC5M0K8LwfK1JCFuwN4JyLYSS2mdq6yfhBD5d5CiCazNtWZZHcRE0PMsfQb6HEGrRl1KihF7E3ZiNgmxOrISgDDTV3aoTeLU8nhyJg0dzZb0HfOkAPoELK4iDkzVcknlcJFQ5PmcRK1HjGvynOSTQWDWo6wSUMEmyKAAaasNqFZg0u5GIGMUdtZ3RRzAB1DKSdRWtCoi3J2wsen0be2DYhbtKKneaifljUrnl8jyiouYgRwtCmjbanXUc6x9J7ImLXT/TZkzsrgIioOGpVVN97FIcSvdIuolrGT8mn0A6e9EAGMMXla7nPHaS8WIeV+GjWssiBmE2HXUUUqaFTWT8GeSGi0VHiUVrmLPw7dp9EbwN/Q6H9nmXmmfYefpHWOIzXnljZ1IXOZ2iFTW38hAtCYPtphcDBiur1GKfes938r4wXshETseEXpS5b0iqmjlTITnwD8ObJpDTK3vvu71OHPX8NcBDCW9HXQvhkno0f+XmPqGeY9746AEVm9ebipW1irBj4BDEGujhqTyY0hnOX6t7/3vFDEkNS3NeYB87vUHUL3ZMSQdxL3N2TTz03e7oIWMWQPZO5iHlWznFUqDRkTC1Pmp9ABpjeEjNHsBRcDH+2B/qRCxkwE7iHbnP+GZqXZlgSNikWp/gMSgTyE3kAAth/uN3M5+W0kqkLWmEFnoLOWY1HdWxY0ajeaY9TeRDhEmoVPAFsQr9u7R8qMIL9EMQs6nX50tqD+XYmfIUYC36SZIxojxF2QOXbz30HcQ1rLgkatRw4gLu5HxMBZMRgR8CxBtI2tRG8SYgCxGhH+rDd5riVOLD2N3ZE+Pof0+XVkDNOp+04aiIz1OcKn+hg2I3Ps4lemrUqQZwcAWTw3v7b1W8Qih9qDzXXE5d+rKWa67aPKHcCaoPuRzd20ARmbdmDOsgOAzLGb/7JE/ugO0FPfPQ2HkOZ82dPxJYi3ED/WT3fjcMRYJtXvobTYe0cR9LRS6LOkPVo8TP2u6+IQU7YVPgGz4nikf/7i1xD9h8cS5Rcgc9BjSBFA1S7HfXHkcmQSp1L3OOJjGKIM+R7EgZOL4UgghbxuYsfReLDclfw8/hGmbV/k/BDS12PRv+/LkDEfT7MBTVJkmxO51jAkDXSDIPjIegbQ/Ovf7eT5RuB3myY5+c5BvGG5v2f10BmLhJI3ssbVXvl1NBqCHBQZz9edfHcHfn8QPf5B1jOAFlwjKg2cSpi7tIlwGLYUAYxG1/rZRmMMm5mBPDVEWuaHef2Il+eR2KBI6w24Kauc3xcXfzjQT03SN9PJdzZhUXkXMne+F9AUAeyKrqi6nQyxEM8gHNa8hjAcXIfMGgEMBi4nn/etG7w8NyIL4d5EzkYkdmtp9Jq5MjKelOZQUU0f98S/1fRpPY0q4KPMGP7Jq/sGr66UN7PLqROXRgDWkbXGoOsEPh4ZTwOGIEaeKa3TEAGcSqPTIjetRixYQ7ePU728r9IcY0h7o14J1Lc34rBCU0S5E9GxezvNns3cXeoWU5cPTcvJN5g9imaJZIjlPAiZG+0qudjMUYgAUlrbXyRfpJL/R8ohsx/jR2NVbkWcGsf4CoNoJhxfFq6pjb9C3TPJzsDnaT4n2PQUYf38D6Lf0deZOq3Pw0PRxcz3mDyaTsQi4jyMUchcaX6B/Tl+gWyOrEsh5pA5le5DDkRZ8H7CTKA1iArVF9DdvHUh2jxLlN9X0chtDMFy6TSfgktMG5qEbjNCKF8jrBOxATF8yYKDaPYMnjWFHFmXhnXIrKk4hybr9ALtnEQ5JQ4/bUF47nli9mh8+jJpBfktg0DmUCNqP72M7si6MqRUj/ztsghSsnCblqOrWtcQfnuZ+AUTTR1a/a+ha+K4O5OrE1EEqc9aUa3tUjgAiY9nOxE7MBXFZMQdjU8IdrvfC/lmTkdfgKKxgw8kHtl0uml7NHKtC/XxZ2YMVSF0sP0p+ZV1K8X7EKlWlQP1sR8SFv4zyCnYV5DsIP0ZyBo9fKTJm9r+x3vl9gL+xPTxY1R0+FIwGZnzyr/zOyo6yPaNXIksUOggOJC4Ll6KANroQXTQuDi3I/dj7ZvpG5KeAPxWyWsNPn9EmwB6LTpoXJwZ5vm+iIdtjRl0B81aTe6Z5jZTB6bONgH0UnQQJgCLI9DZwaH0OM339Rn0QQLoaX2A7sJCRG/gdMRKVoO9Rx+NOGTu8+gvBGAxB3E1ez2NUT63mmfvoi6V7BfobwQA9ViCriLGcuoxAvsV+iMBtOGgTQD9HG0C6OdoE0AbfQIdNN7RrZPKmLZwp5O/M5LPup/xpZ99gg/QVzCUsHg65tUsRQAxxwsbKRaRvI0W4lPkC/UeI4BUSPppLRlBG6WRx7NpiABa5nmzje5FzEmU1ZL1nUTFtKBjnlHb6KXI6908lFrmfbuN7kNvdxLVRjdhArrs303zaLRFbKOPobc5iWqjBzAIuBSxsnne/N3bnGV0C/4PfpJdlEhIxjUAAAAASUVORK5CYII=;container=0;" parent="e1xb1ZiiVn83qvHqSyir-14" vertex="1">
          <mxGeometry width="120" height="120" as="geometry" />
        </mxCell>
        <mxCell id="e1xb1ZiiVn83qvHqSyir-15" style="edgeStyle=elbowEdgeStyle;rounded=0;orthogonalLoop=1;jettySize=auto;html=1;elbow=vertical;curved=0;strokeWidth=2;" parent="1" source="aM9ryv3xv72pqoxQDRHE-6" edge="1">
          <mxGeometry relative="1" as="geometry">
            <mxPoint x="329.99999999999983" y="194.33666666666673" as="sourcePoint" />
            <mxPoint x="805" y="190" as="targetPoint" />
          </mxGeometry>
        </mxCell>
        <mxCell id="e1xb1ZiiVn83qvHqSyir-16" style="edgeStyle=elbowEdgeStyle;rounded=0;orthogonalLoop=1;jettySize=auto;html=1;elbow=vertical;curved=0;strokeWidth=2;" parent="1" target="L7ELWCS3wUbe0nNfrqdp-4" edge="1">
          <mxGeometry relative="1" as="geometry">
            <mxPoint x="86.5" y="220" as="sourcePoint" />
            <mxPoint x="795" y="220" as="targetPoint" />
          </mxGeometry>
        </mxCell>
        <mxCell id="e1xb1ZiiVn83qvHqSyir-20" style="edgeStyle=elbowEdgeStyle;rounded=0;orthogonalLoop=1;jettySize=auto;html=1;elbow=vertical;curved=0;sourcePerimeterSpacing=0;targetPerimeterSpacing=8;strokeWidth=2;" parent="1" edge="1">
          <mxGeometry relative="1" as="geometry">
            <mxPoint x="804.75" y="270" as="sourcePoint" />
            <mxPoint x="578.75" y="270" as="targetPoint" />
          </mxGeometry>
        </mxCell>
        <mxCell id="e1xb1ZiiVn83qvHqSyir-21" style="edgeStyle=elbowEdgeStyle;rounded=0;orthogonalLoop=1;jettySize=auto;html=1;elbow=vertical;curved=0;strokeWidth=2;" parent="1" edge="1">
          <mxGeometry relative="1" as="geometry">
            <mxPoint x="804.75" y="299.3333333333335" as="sourcePoint" />
            <mxPoint x="328.75" y="299" as="targetPoint" />
          </mxGeometry>
        </mxCell>
        <mxCell id="e1xb1ZiiVn83qvHqSyir-22" style="edgeStyle=elbowEdgeStyle;rounded=0;orthogonalLoop=1;jettySize=auto;html=1;elbow=vertical;curved=0;strokeWidth=2;" parent="1" edge="1">
          <mxGeometry relative="1" as="geometry">
            <mxPoint x="804.75" y="339" as="sourcePoint" />
            <mxPoint x="85.25" y="339" as="targetPoint" />
            <Array as="points">
              <mxPoint x="458.75" y="339" />
            </Array>
          </mxGeometry>
        </mxCell>
        <mxCell id="e1xb1ZiiVn83qvHqSyir-10" value="&lt;font style=&quot;font-size: 17px;&quot;&gt;&amp;nbsp; &amp;nbsp;2. Request Registration&amp;nbsp;&amp;nbsp;&lt;/font&gt;" style="text;html=1;align=center;verticalAlign=middle;resizable=0;points=[];autosize=1;strokeColor=none;fillColor=none;fontSize=17;fontStyle=3;labelBackgroundColor=default;" parent="1" vertex="1">
          <mxGeometry x="325" y="160" width="240" height="30" as="geometry" />
        </mxCell>
        <mxCell id="e1xb1ZiiVn83qvHqSyir-23" value="&lt;font style=&quot;font-size: 15px;&quot;&gt;&lt;b style=&quot;font-size: 17px;&quot;&gt;&lt;i&gt;3. Generating Key Pairs&lt;br&gt;&amp;nbsp;forEach Entity&lt;/i&gt;&lt;/b&gt;&lt;/font&gt;" style="text;html=1;align=center;verticalAlign=middle;resizable=0;points=[];autosize=1;strokeColor=none;fillColor=none;labelBackgroundColor=none;strokeWidth=2;" parent="1" vertex="1">
          <mxGeometry x="578.75" y="274" width="210" height="50" as="geometry" />
        </mxCell>
        <mxCell id="e1xb1ZiiVn83qvHqSyir-25" value="4. Mutual Authentication &lt;br&gt;Between Entities" style="text;html=1;align=center;verticalAlign=middle;resizable=0;points=[];autosize=1;strokeColor=none;fillColor=none;fontSize=17;fontStyle=3;labelBackgroundColor=none;labelBorderColor=none;fontColor=default;" parent="1" vertex="1">
          <mxGeometry x="343.75" y="315" width="220" height="50" as="geometry" />
        </mxCell>
        <mxCell id="e1xb1ZiiVn83qvHqSyir-37" style="edgeStyle=elbowEdgeStyle;rounded=0;orthogonalLoop=1;jettySize=auto;html=1;elbow=vertical;curved=0;startSize=6;strokeWidth=2;" parent="1" edge="1">
          <mxGeometry relative="1" as="geometry">
            <mxPoint x="324.90999999999985" y="420" as="sourcePoint" />
            <mxPoint x="555" y="420" as="targetPoint" />
          </mxGeometry>
        </mxCell>
        <mxCell id="e1xb1ZiiVn83qvHqSyir-38" value="5. CSUs Transmitts &lt;br&gt;Charging Data to RSCUs" style="text;html=1;align=center;verticalAlign=middle;resizable=0;points=[];autosize=1;strokeColor=none;fillColor=none;spacing=8;spacingTop=0;perimeterSpacing=0;spacingBottom=0;fontSize=17;fontStyle=3;horizontal=1;labelPosition=center;verticalLabelPosition=middle;" parent="1" vertex="1">
          <mxGeometry x="320" y="390" width="230" height="60" as="geometry" />
        </mxCell>
        <mxCell id="e1xb1ZiiVn83qvHqSyir-39" style="edgeStyle=elbowEdgeStyle;rounded=0;orthogonalLoop=1;jettySize=auto;html=1;elbow=vertical;curved=0;strokeWidth=2;" parent="1" source="e1xb1ZiiVn83qvHqSyir-2" target="aM9ryv3xv72pqoxQDRHE-2" edge="1">
          <mxGeometry relative="1" as="geometry">
            <Array as="points">
              <mxPoint x="270" y="500" />
            </Array>
          </mxGeometry>
        </mxCell>
        <mxCell id="e1xb1ZiiVn83qvHqSyir-40" value="&lt;b&gt;&lt;i&gt;&lt;font style=&quot;font-size: 17px;&quot;&gt;6. RSCUs Broadcasts Information of CSUs to BEVs&lt;/font&gt;&lt;/i&gt;&lt;/b&gt;" style="text;html=1;align=center;verticalAlign=middle;resizable=0;points=[];autosize=1;strokeColor=none;fillColor=default;" parent="1" vertex="1">
          <mxGeometry x="110" y="469" width="440" height="30" as="geometry" />
        </mxCell>
        <mxCell id="e1xb1ZiiVn83qvHqSyir-46" value="&lt;b&gt;&lt;font style=&quot;font-size: 17px;&quot;&gt;Off-Chain&lt;/font&gt;&lt;/b&gt;" style="text;html=1;align=center;verticalAlign=middle;resizable=0;points=[];autosize=1;strokeColor=none;fillColor=none;" parent="1" vertex="1">
          <mxGeometry x="-50" y="488" width="100" height="30" as="geometry" />
        </mxCell>
        <mxCell id="e1xb1ZiiVn83qvHqSyir-47" style="edgeStyle=orthogonalEdgeStyle;rounded=0;orthogonalLoop=1;jettySize=auto;html=1;elbow=vertical;strokeWidth=2;dashed=1;" parent="1" source="aM9ryv3xv72pqoxQDRHE-2" edge="1">
          <mxGeometry relative="1" as="geometry">
            <mxPoint x="41" y="580" as="targetPoint" />
            <Array as="points">
              <mxPoint y="520" />
              <mxPoint y="580" />
            </Array>
          </mxGeometry>
        </mxCell>
        <mxCell id="e1xb1ZiiVn83qvHqSyir-48" style="edgeStyle=elbowEdgeStyle;rounded=0;orthogonalLoop=1;jettySize=auto;html=1;elbow=vertical;curved=0;strokeWidth=2;" parent="1" edge="1">
          <mxGeometry relative="1" as="geometry">
            <mxPoint x="1032.5" y="660.0033333333334" as="targetPoint" />
            <mxPoint x="86.5" y="660.0033333333334" as="sourcePoint" />
          </mxGeometry>
        </mxCell>
        <mxCell id="e1xb1ZiiVn83qvHqSyir-49" value="&lt;font style=&quot;font-size: 17px;&quot;&gt;&lt;b&gt;&lt;i&gt;8. BEV Makes Reservation with Selected CSU Via Smart Contract&lt;/i&gt;&lt;/b&gt;&lt;/font&gt;" style="text;html=1;align=center;verticalAlign=middle;resizable=0;points=[];autosize=1;strokeColor=none;fillColor=default;" parent="1" vertex="1">
          <mxGeometry x="343.75" y="629" width="550" height="30" as="geometry" />
        </mxCell>
        <mxCell id="e1xb1ZiiVn83qvHqSyir-63" style="edgeStyle=orthogonalEdgeStyle;rounded=0;orthogonalLoop=1;jettySize=auto;html=1;entryX=0.5;entryY=0;entryDx=0;entryDy=0;strokeWidth=2;" parent="1" source="e1xb1ZiiVn83qvHqSyir-51" target="e1xb1ZiiVn83qvHqSyir-55" edge="1">
          <mxGeometry relative="1" as="geometry" />
        </mxCell>
        <mxCell id="e1xb1ZiiVn83qvHqSyir-51" value="" style="shape=image;verticalLabelPosition=bottom;labelBackgroundColor=default;verticalAlign=top;aspect=fixed;imageAspect=0;image=data:image/png,iVBORw0KGgoAAAANSUhEUgAAAIAAAACACAYAAADDPmHLAAAACXBIWXMAAAOwAAADsAEnxA+tAAAAGXRFWHRTb2Z0d2FyZQB3d3cuaW5rc2NhcGUub3Jnm+48GgAADk9JREFUeJztnXu0FVUdxz/nPkQExQtoGj7CBw/TVIpSsfJVpC01SVFLRc2lZT5aZj5IzdcyH5BZ/qH5otRKWMuAypXlM63Q1GXiFRAEEjJEIUC5lwvee/rjdw7M2XvPnJnZM+cxs79r7bXOmdnzmz2zv/v127/fb6B2mAhsAIo5S8uBnwId9q+weXEq0Ef9K6OeqRPY3vZFNiNOwVV+OU21fJdNB1f5lWmp1dtsMpxMcOWPrV/RaoaBVD5zT32LUztUq/y8EKCdymfeWN/i1AZ+E75eHAEyT4CJmCv/n8CLOAJkmgBBlQ+OAJkmQLXKB0eAzBLAr/JfUvI5AmSQAGErHxwBMkeAKJUPjgCZIkDUygdHgMwQIE7lgyNAJggQt/LBEaDpCWBT+eAI0NQEsK18cARoWgIkUfngCNCUBEiq8sERoOkIkGTlgyNAUxHgJJKtfHAEaBoCpFH54AjQkARoU/5PBH4LFJTj7wK3IOSIi52V/w33MvKOsehWO2mlHmDb2jxWXdHwPYAXM6hN5ReBX9TomeqNhidAi+f3qhrd82ngkhrdy6EKvHOAJcq5+cDcBO+1Bvgz8CgyyXRoAKiTQC9mAVfUqiAO9UFL9SwOWYYjQM4RNATYoBXYHxickvxGQC/i8buy3gWxQRoEaAH+BByVguxGQw9wPPB4vQsSF2kMAaPJR+UD9APOrXchbJAGAVYA3SnIbVSoy+emQhpDwCrgRKRlDEhBfiOhE7i+3oWwQVqTwMdKyaHB4ZaBOYcjQM7hCJBzOALkHI4AOYcjQM6R1jIQZB8gy5Ex+4BlyJ5A0yItAjwAnJmS7EbC+8AxVIbCaSqkMQSMIB+VDzAU+H69C2GDNAjwAfBRCnIbFf+rdwFskMYQ8F/gfOACJFRqljEXtxdgxD2l5NDgcMvAnMMRIOdwBMg5HAFyDkeAnMMRIOdwBMg50iLAtYgzaK3czYPSGuCalJ6z6ZGGImh35IWrUUbqhUEIIacBb6d0j1bgOOArwL7IOxiE+A140YZ4Xa8BFgMLSv9fLf2uOdIgQKNUfNrYB7gSOBLYiXDPXQBGln5/Tjn3DvAU8BdgJrAumWKGx+VUdp03W8i6HlhLfbp8Na1FeoAk0B+YgsRMSrPMXcDDwHhq2KCSJEDW0IEEz9pE7Qk8FziDlPZt0rQIygLagLuBScg4H4Qi4im8CHgd+BewEOna1yNd+oBS+hhiNzEC+BQwDv+d032BXwJXAZcCs2M/TRW4HqASJyCVFtQ6uxFP6FMIbkz9qpxvR0hwI+JrGHTPWcAn4j1SMBwBBK3AHwmuhNcJHzPxYcR+sA/4SYj8BeALpev8hpz1wFkh7x8ajgCwF9KN+1X8C8AnI8rzXt+LrBjCYk/ErmKjT3l+RYJGN3knwHj8X/Q7wMExZM42yLo7hpx9gWd9yvYaMCyGTA15JsBJmKOk9gI/jinzCIO8sszPxJBXAM5GbC5VmUvZol+IjbwSwO9j12uAT8eU2Yq0TL+h5Hnir+9H+ch+D1lRREJay8BzEKPQWsQD3ojMjK9EXkQUfBV4CL0y5gNjiB/p5Dxgv4Dz45AgGjNiyJ6PaBEfAiZ4jg9FViTjiBm1JKkeYGfqozA5OmI5D0DM11U5c7DTvnUgrbFaed8GtrG4Tytwl0Hum8COYYWksRu4LfVRMHVEyLs18Ay6cudF4CCi9yReXIe0xmrYFTunkl7g28DtyvG9gUeorrjSkOQcYBrRW7BNmkO01jTHIGMe9nr30fivJIqGc13Abpb3LAD3G+51bZiL02qpZyIRwWvhHNqNOKOExTXoO3ErkQmUTcsHaY3tnv9LgOGe/5uQIFplXUB/4CbgNIt7FpE5x27IzmQZVyNLx6fDCsrDKmAI+vzkI6Tl2uJ49FZ4svL/QyR6mvdYH3BoAvffEfiPInshMtyFQh4I8Bx6JV2QgNytEIMOr9wnkY0flQAtiDex9/jLJDMfOwx9YhvaGirrBPgi5rlDErhMkfsRsgw0EQBkqabqHs5MqCx3KHK7Cbl5lHUCvEXl8/UCH09A7o7o9o8/L53zIwDAdOXcCmC7BMqzHfpQcFeYC7NMgEPQW//9Ccm+T5G7mi3LwCAC7Irs6nnPx1U7qzhDkbsB2KXaRVkmwMtUPlsPESZHATgQfQ/BO6cIIgCI6Zxarr0TKFcrohDyylb1BRqySoAO9PE2ia+WFYC/KnI7qVwGViNAf+DfSp5HEygbwLcUuavRrZRT0wMcjaxNaxEsehOy7eo3zt1EpYKniEzabHEq8Hnl2CWl8oRFNzAZ0euXcQLwZeQDWzZ4EHn2slq4A9n78CVYUj3AEETDpY65aSe1MspQDTxejflcXvRHtmC9cmca8lXrAUDIqS5PO0mmcaorAq2MaewF7IS8oFpjuOHYEGAH5ditCdzrcsT5o4yNmHsVdU+gHXEY8aIIXEzlp/T2IZkPUTyo/B9PQN0k1QO0AE8QrxXHTYsxf59ospIviS937oK05KB3dQBi+aPO8ouIQcfdiJWPFw8o+VYhBLbFEkXu4d6TacwB+hCmHUC0Hbq46EK69S7DuQnK/0UJ3G8KlXObd5HlWwsyxl5E8CdzBiKt+1zgb0g3/SjyjcYJbNEFDEa0eBdblvcpxJKojMPx2R/I4ipANZ+601LeIegrivORSlpKcC8VlBYh7/865fgmgg1LwuCbisxn/DJmjQAF9MoaZyHPpMN/n2gTXpPpmTetQ+IOeo89YVFmgD0UeSv8MmaNAOXtXe/Lt9nvP4fwFV1E7P5OU459iAwPv6c6GbzpWItytyDLTa8849CcNQJcROXzrLeQtT3hnF3XI/qIsu9A0DJwJDL+h4mjsBI7zaVqRLrZHiLLEULUPf61FrJmErxRsxRZBu6CmGl1hpC5AJk7DCtd81pA3h2QVUJcLFX+b3ZOyTIB1PW/DQFG+RxfjPgF7gXcRry4weuRZeH+SICJeT754pqogx5rYLM3UZYJoJqk2xDgEZ/jewC3ICbeNvOLFkR3Pw1/6ySbHkAlwObeLMsE2Er5v8FC1sXAhcByw7ndkdgBzwFjY8g+DHgJuBez3+BC4HTstopVHclmA9osE0DdlGk35gqPO5HKnoT5i+HjEOfR6VSqif2wG+Lc+TSyraziHWRDbRSVm0VxoFpMbyZElgmgbrwksTPZh1TaSKTr71HOFxA/wzeQVZTpngMQk+0FSMtW0V2SPQrZtu4z5IkKdTj8wJQpa8vAe6l8nrdSuMfe6KZd3qSaZm1AFDF+SqLppBP8YZZyr+PLJ7LcA6gh4UybRVEwHmmx3t28hcBERLljWsapNof9kPAwKuYgauaJVC7ZBiPmXYcbrokCdaf0XVOmrPUAR1H5PDafsbnUI+c94DvoG2ktSGX5tXBTWo5sCqkNsR2ZeK725D0vZtlb0NXVxsaQNQJsg/7C47phvWCQNRf4kiHvQGSMV9WvqsbwZszRPY5GdAHqNXH3BIYrcoytH7JHANAr4YqYcm7DvzJnI9G+VJRn+Wp+v1XCKOCxgPtcF7PspypynvXLmEUCvEHlMz0fU84AdCtbb9qIaPNMXsFnIx+YXAJ8zXC+A3nXPQHy5xHfyuoeRdYNfhmzSADVJs5kkxcWh2COJ+BNq5CxO4yhTRsy/leLOroJ+KxFuRcr8o7wy5hFAoxAf6Fxgj2VcatBnl+LPSZAzpFIIMkwsn5kUd4xiqxuamAT2GhQt3Eft5DVj/AVV0QCP3vDylXTG6jpZew0mLcr8mYFZc4qAR6m8rl6sNN/HIg+Xvdgjt5VPje1lPzG+fLXVr3HurBzW29HX5KeGHRBVgmgLoOK2H/t8yqDzMuQiWC1eYI3lVXLNxrO2RqDnqXIM3oGeZFVAoBo7LzPtg677ds29DAza5Cl3xh0lzFTegGZj+yJ3ns8iV0v1YpEE/PKvKPaRVkmwAkkO7kCc8U9wRZiHYs58PMyRGNYQIj0D8xEsoFqCdyDeCMHIssEAFG7qi/FNs7uhegV/F3P+aGGe3pn4T80XD/Jskzboj9rKGfYrBNgAvrLftJSZgHdC2o9WzSDQUahpsnk7yzLAxKR3CuzG7PbnIasEwDMS7iwYd/9MIzKTZsi0q234k+AfuiWuisx7xRGwaHoQbCuDXvxD5QLqwYUaELsih7QoQf7UDGT0Ik1GX8CTDHk/7plGQajeyctIoI5+emGQuUlLcPeNmKGInMj4rKuEmAc+lLxPst7tyFxgr0yewn2UdSwA7rXa57S9Cgvy4Ch6IoXdVv3Q/Ql6TLsAmoW0OMUFQnY9AnCOURzWcpauirOS/PguCry1fG5F3trn5sN93kWC8/v8YiJc5BBQ5aTGlImKqZFuNdUi/u0AD8zyFyE/WQyN9gH2cJVX+J9xN+EGYQe+MmUOonv77c14ougylyBKKgcIuBgzI6ffye+Ru4IgofSTcRzIgFxQ3vFIHMVooZ2iIExmI05VxF/eWbqnsvp6pgyT8NM1mVE+5qZgwF7IeOnqcL+gPgBRsHW6CZpRcQNLOrwMgr/uEud2O8dOJQwGHEFN73oLkTNGkVpNFaR0Ue0lro74pLmZ0fwa2rzXaZcoQB8D/+XvgEJAhHWXfshtlT+lJDXHITEMvb7+kgXyYSRcwjAaCTCVrWZ/GRkDhGkSewg2DexFTH8vAb9uwNqeowEZ/o1+zZ9k6IAfANxza62n74aMQR5HTHGeBOZRK5BNIAFZPt5EKJ1HVlK+yHfClYDSKpYjOzXJBVL2CEC2hEjjmqtM420COnu6/ElNgcFbYh10UyCHTlsUzeyN3Es2XbgbWoMQRw2ZxDuQ5HV0grgN4gnUS2+tga4OUBSaEHG8jGINdAIRG+wHVKZZdOzDxBFzlpkTF9QSq8gE8piTUsN/B8BAI2qZy7/0QAAAABJRU5ErkJggg==;" parent="1" vertex="1">
          <mxGeometry x="1177.5" y="488" width="70" height="70" as="geometry" />
        </mxCell>
        <mxCell id="e1xb1ZiiVn83qvHqSyir-54" value="&lt;b style=&quot;border-color: var(--border-color); font-size: 17px;&quot;&gt;&lt;i style=&quot;border-color: var(--border-color);&quot;&gt;7. CSU Selection Problem and&lt;br style=&quot;border-color: var(--border-color);&quot;&gt;Selecting the Optimized CSU&lt;/i&gt;&lt;/b&gt;" style="shape=loopLimit;whiteSpace=wrap;html=1;strokeWidth=2;" parent="1" vertex="1">
          <mxGeometry x="50" y="540" width="300" height="80" as="geometry" />
        </mxCell>
        <mxCell id="e1xb1ZiiVn83qvHqSyir-62" style="edgeStyle=orthogonalEdgeStyle;rounded=0;orthogonalLoop=1;jettySize=auto;html=1;entryX=0.5;entryY=0;entryDx=0;entryDy=0;strokeWidth=2;" parent="1" source="e1xb1ZiiVn83qvHqSyir-55" target="e1xb1ZiiVn83qvHqSyir-57" edge="1">
          <mxGeometry relative="1" as="geometry">
            <Array as="points">
              <mxPoint x="1213" y="720" />
              <mxPoint x="1213" y="720" />
            </Array>
          </mxGeometry>
        </mxCell>
        <mxCell id="e1xb1ZiiVn83qvHqSyir-55" value="&lt;font style=&quot;font-size: 14px;&quot;&gt;&lt;b style=&quot;font-size: 15px;&quot;&gt;&lt;i&gt;IF (Input)&lt;sub&gt;BEV&lt;/sub&gt;&amp;nbsp;=&lt;br&gt;&amp;nbsp;(Input)&lt;sub&gt;CSU&lt;/sub&gt;&lt;/i&gt;&lt;/b&gt;&lt;/font&gt;" style="shape=rhombus;perimeter=rhombusPerimeter;whiteSpace=wrap;html=1;align=center;strokeWidth=2;" parent="1" vertex="1">
          <mxGeometry x="1120" y="618" width="185" height="90" as="geometry" />
        </mxCell>
        <mxCell id="e1xb1ZiiVn83qvHqSyir-57" value="&lt;font style=&quot;font-size: 15px;&quot;&gt;&lt;b&gt;&lt;i&gt;Make &lt;font style=&quot;font-size: 15px;&quot;&gt;Reservation&lt;/font&gt;&lt;/i&gt;&lt;/b&gt;&lt;/font&gt;" style="html=1;whiteSpace=wrap;strokeWidth=2;" parent="1" vertex="1">
          <mxGeometry x="1157.5" y="760" width="110" height="50" as="geometry" />
        </mxCell>
        <mxCell id="e1xb1ZiiVn83qvHqSyir-60" value="&lt;font size=&quot;1&quot; style=&quot;&quot;&gt;&lt;b style=&quot;&quot;&gt;&lt;i style=&quot;font-size: 14px;&quot;&gt;True&lt;/i&gt;&lt;/b&gt;&lt;/font&gt;" style="text;html=1;align=center;verticalAlign=middle;resizable=0;points=[];autosize=1;strokeColor=none;fillColor=none;" parent="1" vertex="1">
          <mxGeometry x="1135" y="716" width="50" height="30" as="geometry" />
        </mxCell>
        <mxCell id="e1xb1ZiiVn83qvHqSyir-61" value="" style="endArrow=classic;html=1;rounded=0;exitX=0.5;exitY=1;exitDx=0;exitDy=0;edgeStyle=orthogonalEdgeStyle;strokeWidth=2;" parent="1" source="e1xb1ZiiVn83qvHqSyir-57" edge="1">
          <mxGeometry width="50" height="50" relative="1" as="geometry">
            <mxPoint x="770" y="690" as="sourcePoint" />
            <mxPoint x="1046" y="690" as="targetPoint" />
            <Array as="points">
              <mxPoint x="1213" y="870" />
              <mxPoint x="1101" y="870" />
              <mxPoint x="1101" y="690" />
              <mxPoint x="1045" y="690" />
            </Array>
          </mxGeometry>
        </mxCell>
        <mxCell id="e1xb1ZiiVn83qvHqSyir-67" style="edgeStyle=orthogonalEdgeStyle;rounded=0;orthogonalLoop=1;jettySize=auto;html=1;entryX=1;entryY=0.5;entryDx=0;entryDy=0;strokeWidth=2;startArrow=classic;startFill=1;endArrow=none;endFill=0;" parent="1" source="e1xb1ZiiVn83qvHqSyir-65" target="e1xb1ZiiVn83qvHqSyir-55" edge="1">
          <mxGeometry relative="1" as="geometry">
            <Array as="points">
              <mxPoint x="1370" y="663" />
            </Array>
          </mxGeometry>
        </mxCell>
        <mxCell id="e1xb1ZiiVn83qvHqSyir-69" style="edgeStyle=orthogonalEdgeStyle;rounded=0;orthogonalLoop=1;jettySize=auto;html=1;strokeWidth=2;endArrow=none;endFill=0;" parent="1" source="e1xb1ZiiVn83qvHqSyir-65" edge="1">
          <mxGeometry relative="1" as="geometry">
            <mxPoint x="1210" y="870" as="targetPoint" />
            <Array as="points">
              <mxPoint x="1375" y="870" />
            </Array>
          </mxGeometry>
        </mxCell>
        <mxCell id="e1xb1ZiiVn83qvHqSyir-65" value="&lt;span style=&quot;font-size: 15px;&quot;&gt;&lt;b&gt;&lt;i&gt;Terminate Connection&lt;/i&gt;&lt;/b&gt;&lt;/span&gt;" style="html=1;whiteSpace=wrap;strokeWidth=2;" parent="1" vertex="1">
          <mxGeometry x="1320" y="708" width="110" height="50" as="geometry" />
        </mxCell>
        <mxCell id="e1xb1ZiiVn83qvHqSyir-68" value="&lt;b style=&quot;&quot;&gt;&lt;i style=&quot;&quot;&gt;&lt;font style=&quot;font-size: 14px;&quot;&gt;False&lt;/font&gt;&lt;/i&gt;&lt;/b&gt;" style="text;html=1;align=center;verticalAlign=middle;resizable=0;points=[];autosize=1;strokeColor=none;fillColor=none;" parent="1" vertex="1">
          <mxGeometry x="1330" y="630" width="60" height="30" as="geometry" />
        </mxCell>
        <mxCell id="e1xb1ZiiVn83qvHqSyir-70" value="&lt;font size=&quot;1&quot; style=&quot;&quot;&gt;&lt;b style=&quot;&quot;&gt;&lt;i style=&quot;font-size: 17px;&quot;&gt;Reservation Contract&lt;/i&gt;&lt;/b&gt;&lt;/font&gt;" style="text;html=1;align=center;verticalAlign=middle;resizable=0;points=[];autosize=1;strokeColor=none;fillColor=none;" parent="1" vertex="1">
          <mxGeometry x="1112.5" y="450" width="200" height="30" as="geometry" />
        </mxCell>
        <mxCell id="e1xb1ZiiVn83qvHqSyir-74" value="" style="endArrow=classic;html=1;rounded=0;edgeStyle=elbowEdgeStyle;strokeWidth=2;" parent="1" edge="1">
          <mxGeometry width="50" height="50" relative="1" as="geometry">
            <mxPoint x="1033" y="687" as="sourcePoint" />
            <mxPoint x="1032" y="758" as="targetPoint" />
            <Array as="points">
              <mxPoint x="980" y="758" />
            </Array>
          </mxGeometry>
        </mxCell>
        <mxCell id="e1xb1ZiiVn83qvHqSyir-75" value="&lt;font style=&quot;font-size: 15px;&quot;&gt;&lt;b style=&quot;font-size: 16px;&quot;&gt;&lt;i&gt;9. Write Transaction&lt;br&gt;&amp;nbsp;Over Ledger&lt;br&gt;&amp;nbsp;Using MRH&lt;/i&gt;&lt;/b&gt;&lt;/font&gt;" style="text;html=1;align=center;verticalAlign=middle;resizable=0;points=[];autosize=1;strokeColor=none;fillColor=none;" parent="1" vertex="1">
          <mxGeometry x="812.5" y="688" width="180" height="70" as="geometry" />
        </mxCell>
        <mxCell id="e1xb1ZiiVn83qvHqSyir-76" style="edgeStyle=elbowEdgeStyle;rounded=0;orthogonalLoop=1;jettySize=auto;html=1;elbow=vertical;curved=0;strokeWidth=2;" parent="1" edge="1">
          <mxGeometry relative="1" as="geometry">
            <mxPoint x="87.28999999999999" y="784.3333333333335" as="sourcePoint" />
            <mxPoint x="312.6999999999999" y="784.3333333333335" as="targetPoint" />
          </mxGeometry>
        </mxCell>
        <mxCell id="e1xb1ZiiVn83qvHqSyir-77" value="&lt;font style=&quot;font-size: 17px;&quot;&gt;&lt;b&gt;&lt;i&gt;10. Requet Accesing &lt;br&gt;Charging Services&lt;/i&gt;&lt;/b&gt;&lt;/font&gt;" style="text;html=1;align=center;verticalAlign=middle;resizable=0;points=[];autosize=1;strokeColor=none;fillColor=none;" parent="1" vertex="1">
          <mxGeometry x="95" y="728" width="190" height="50" as="geometry" />
        </mxCell>
        <mxCell id="e1xb1ZiiVn83qvHqSyir-78" value="" style="edgeStyle=none;orthogonalLoop=1;jettySize=auto;html=1;endArrow=classic;startArrow=classic;endSize=8;startSize=8;rounded=0;strokeWidth=2;" parent="1" edge="1">
          <mxGeometry width="100" relative="1" as="geometry">
            <mxPoint x="87.3" y="840" as="sourcePoint" />
            <mxPoint x="312.70999999999987" y="840" as="targetPoint" />
            <Array as="points" />
          </mxGeometry>
        </mxCell>
        <mxCell id="e1xb1ZiiVn83qvHqSyir-79" value="&lt;font style=&quot;font-size: 17px;&quot;&gt;&lt;b&gt;&lt;i&gt;11. Verification With &lt;br&gt;Smart Contract&lt;/i&gt;&lt;/b&gt;&lt;/font&gt;" style="text;html=1;align=center;verticalAlign=middle;resizable=0;points=[];autosize=1;strokeColor=none;fillColor=none;" parent="1" vertex="1">
          <mxGeometry x="100" y="840" width="180" height="50" as="geometry" />
        </mxCell>
        <mxCell id="e1xb1ZiiVn83qvHqSyir-80" style="edgeStyle=orthogonalEdgeStyle;rounded=0;orthogonalLoop=1;jettySize=auto;html=1;entryX=0.5;entryY=0;entryDx=0;entryDy=0;strokeWidth=2;" parent="1" source="e1xb1ZiiVn83qvHqSyir-81" target="e1xb1ZiiVn83qvHqSyir-83" edge="1">
          <mxGeometry relative="1" as="geometry" />
        </mxCell>
        <mxCell id="e1xb1ZiiVn83qvHqSyir-81" value="" style="shape=image;verticalLabelPosition=bottom;labelBackgroundColor=default;verticalAlign=top;aspect=fixed;imageAspect=0;image=data:image/png,iVBORw0KGgoAAAANSUhEUgAAAIAAAACACAYAAADDPmHLAAAACXBIWXMAAAOwAAADsAEnxA+tAAAAGXRFWHRTb2Z0d2FyZQB3d3cuaW5rc2NhcGUub3Jnm+48GgAADk9JREFUeJztnXu0FVUdxz/nPkQExQtoGj7CBw/TVIpSsfJVpC01SVFLRc2lZT5aZj5IzdcyH5BZ/qH5otRKWMuAypXlM63Q1GXiFRAEEjJEIUC5lwvee/rjdw7M2XvPnJnZM+cxs79r7bXOmdnzmz2zv/v127/fb6B2mAhsAIo5S8uBnwId9q+weXEq0Ef9K6OeqRPY3vZFNiNOwVV+OU21fJdNB1f5lWmp1dtsMpxMcOWPrV/RaoaBVD5zT32LUztUq/y8EKCdymfeWN/i1AZ+E75eHAEyT4CJmCv/n8CLOAJkmgBBlQ+OAJkmQLXKB0eAzBLAr/JfUvI5AmSQAGErHxwBMkeAKJUPjgCZIkDUygdHgMwQIE7lgyNAJggQt/LBEaDpCWBT+eAI0NQEsK18cARoWgIkUfngCNCUBEiq8sERoOkIkGTlgyNAUxHgJJKtfHAEaBoCpFH54AjQkARoU/5PBH4LFJTj7wK3IOSIi52V/w33MvKOsehWO2mlHmDb2jxWXdHwPYAXM6hN5ReBX9TomeqNhidAi+f3qhrd82ngkhrdy6EKvHOAJcq5+cDcBO+1Bvgz8CgyyXRoAKiTQC9mAVfUqiAO9UFL9SwOWYYjQM4RNATYoBXYHxickvxGQC/i8buy3gWxQRoEaAH+BByVguxGQw9wPPB4vQsSF2kMAaPJR+UD9APOrXchbJAGAVYA3SnIbVSoy+emQhpDwCrgRKRlDEhBfiOhE7i+3oWwQVqTwMdKyaHB4ZaBOYcjQM7hCJBzOALkHI4AOYcjQM6R1jIQZB8gy5Ex+4BlyJ5A0yItAjwAnJmS7EbC+8AxVIbCaSqkMQSMIB+VDzAU+H69C2GDNAjwAfBRCnIbFf+rdwFskMYQ8F/gfOACJFRqljEXtxdgxD2l5NDgcMvAnMMRIOdwBMg5HAFyDkeAnMMRIOdwBMg50iLAtYgzaK3czYPSGuCalJ6z6ZGGImh35IWrUUbqhUEIIacBb6d0j1bgOOArwL7IOxiE+A140YZ4Xa8BFgMLSv9fLf2uOdIgQKNUfNrYB7gSOBLYiXDPXQBGln5/Tjn3DvAU8BdgJrAumWKGx+VUdp03W8i6HlhLfbp8Na1FeoAk0B+YgsRMSrPMXcDDwHhq2KCSJEDW0IEEz9pE7Qk8FziDlPZt0rQIygLagLuBScg4H4Qi4im8CHgd+BewEOna1yNd+oBS+hhiNzEC+BQwDv+d032BXwJXAZcCs2M/TRW4HqASJyCVFtQ6uxFP6FMIbkz9qpxvR0hwI+JrGHTPWcAn4j1SMBwBBK3AHwmuhNcJHzPxYcR+sA/4SYj8BeALpev8hpz1wFkh7x8ajgCwF9KN+1X8C8AnI8rzXt+LrBjCYk/ErmKjT3l+RYJGN3knwHj8X/Q7wMExZM42yLo7hpx9gWd9yvYaMCyGTA15JsBJmKOk9gI/jinzCIO8sszPxJBXAM5GbC5VmUvZol+IjbwSwO9j12uAT8eU2Yq0TL+h5Hnir+9H+ch+D1lRREJay8BzEKPQWsQD3ojMjK9EXkQUfBV4CL0y5gNjiB/p5Dxgv4Dz45AgGjNiyJ6PaBEfAiZ4jg9FViTjiBm1JKkeYGfqozA5OmI5D0DM11U5c7DTvnUgrbFaed8GtrG4Tytwl0Hum8COYYWksRu4LfVRMHVEyLs18Ay6cudF4CCi9yReXIe0xmrYFTunkl7g28DtyvG9gUeorrjSkOQcYBrRW7BNmkO01jTHIGMe9nr30fivJIqGc13Abpb3LAD3G+51bZiL02qpZyIRwWvhHNqNOKOExTXoO3ErkQmUTcsHaY3tnv9LgOGe/5uQIFplXUB/4CbgNIt7FpE5x27IzmQZVyNLx6fDCsrDKmAI+vzkI6Tl2uJ49FZ4svL/QyR6mvdYH3BoAvffEfiPInshMtyFQh4I8Bx6JV2QgNytEIMOr9wnkY0flQAtiDex9/jLJDMfOwx9YhvaGirrBPgi5rlDErhMkfsRsgw0EQBkqabqHs5MqCx3KHK7Cbl5lHUCvEXl8/UCH09A7o7o9o8/L53zIwDAdOXcCmC7BMqzHfpQcFeYC7NMgEPQW//9Ccm+T5G7mi3LwCAC7Irs6nnPx1U7qzhDkbsB2KXaRVkmwMtUPlsPESZHATgQfQ/BO6cIIgCI6Zxarr0TKFcrohDyylb1BRqySoAO9PE2ia+WFYC/KnI7qVwGViNAf+DfSp5HEygbwLcUuavRrZRT0wMcjaxNaxEsehOy7eo3zt1EpYKniEzabHEq8Hnl2CWl8oRFNzAZ0euXcQLwZeQDWzZ4EHn2slq4A9n78CVYUj3AEETDpY65aSe1MspQDTxejflcXvRHtmC9cmca8lXrAUDIqS5PO0mmcaorAq2MaewF7IS8oFpjuOHYEGAH5ditCdzrcsT5o4yNmHsVdU+gHXEY8aIIXEzlp/T2IZkPUTyo/B9PQN0k1QO0AE8QrxXHTYsxf59ospIviS937oK05KB3dQBi+aPO8ouIQcfdiJWPFw8o+VYhBLbFEkXu4d6TacwB+hCmHUC0Hbq46EK69S7DuQnK/0UJ3G8KlXObd5HlWwsyxl5E8CdzBiKt+1zgb0g3/SjyjcYJbNEFDEa0eBdblvcpxJKojMPx2R/I4ipANZ+601LeIegrivORSlpKcC8VlBYh7/865fgmgg1LwuCbisxn/DJmjQAF9MoaZyHPpMN/n2gTXpPpmTetQ+IOeo89YVFmgD0UeSv8MmaNAOXtXe/Lt9nvP4fwFV1E7P5OU459iAwPv6c6GbzpWItytyDLTa8849CcNQJcROXzrLeQtT3hnF3XI/qIsu9A0DJwJDL+h4mjsBI7zaVqRLrZHiLLEULUPf61FrJmErxRsxRZBu6CmGl1hpC5AJk7DCtd81pA3h2QVUJcLFX+b3ZOyTIB1PW/DQFG+RxfjPgF7gXcRry4weuRZeH+SICJeT754pqogx5rYLM3UZYJoJqk2xDgEZ/jewC3ICbeNvOLFkR3Pw1/6ySbHkAlwObeLMsE2Er5v8FC1sXAhcByw7ndkdgBzwFjY8g+DHgJuBez3+BC4HTstopVHclmA9osE0DdlGk35gqPO5HKnoT5i+HjEOfR6VSqif2wG+Lc+TSyraziHWRDbRSVm0VxoFpMbyZElgmgbrwksTPZh1TaSKTr71HOFxA/wzeQVZTpngMQk+0FSMtW0V2SPQrZtu4z5IkKdTj8wJQpa8vAe6l8nrdSuMfe6KZd3qSaZm1AFDF+SqLppBP8YZZyr+PLJ7LcA6gh4UybRVEwHmmx3t28hcBERLljWsapNof9kPAwKuYgauaJVC7ZBiPmXYcbrokCdaf0XVOmrPUAR1H5PDafsbnUI+c94DvoG2ktSGX5tXBTWo5sCqkNsR2ZeK725D0vZtlb0NXVxsaQNQJsg/7C47phvWCQNRf4kiHvQGSMV9WvqsbwZszRPY5GdAHqNXH3BIYrcoytH7JHANAr4YqYcm7DvzJnI9G+VJRn+Wp+v1XCKOCxgPtcF7PspypynvXLmEUCvEHlMz0fU84AdCtbb9qIaPNMXsFnIx+YXAJ8zXC+A3nXPQHy5xHfyuoeRdYNfhmzSADVJs5kkxcWh2COJ+BNq5CxO4yhTRsy/leLOroJ+KxFuRcr8o7wy5hFAoxAf6Fxgj2VcatBnl+LPSZAzpFIIMkwsn5kUd4xiqxuamAT2GhQt3Eft5DVj/AVV0QCP3vDylXTG6jpZew0mLcr8mYFZc4qAR6m8rl6sNN/HIg+Xvdgjt5VPje1lPzG+fLXVr3HurBzW29HX5KeGHRBVgmgLoOK2H/t8yqDzMuQiWC1eYI3lVXLNxrO2RqDnqXIM3oGeZFVAoBo7LzPtg677ds29DAza5Cl3xh0lzFTegGZj+yJ3ns8iV0v1YpEE/PKvKPaRVkmwAkkO7kCc8U9wRZiHYs58PMyRGNYQIj0D8xEsoFqCdyDeCMHIssEAFG7qi/FNs7uhegV/F3P+aGGe3pn4T80XD/Jskzboj9rKGfYrBNgAvrLftJSZgHdC2o9WzSDQUahpsnk7yzLAxKR3CuzG7PbnIasEwDMS7iwYd/9MIzKTZsi0q234k+AfuiWuisx7xRGwaHoQbCuDXvxD5QLqwYUaELsih7QoQf7UDGT0Ik1GX8CTDHk/7plGQajeyctIoI5+emGQuUlLcPeNmKGInMj4rKuEmAc+lLxPst7tyFxgr0yewn2UdSwA7rXa57S9Cgvy4Ch6IoXdVv3Q/Ql6TLsAmoW0OMUFQnY9AnCOURzWcpauirOS/PguCry1fG5F3trn5sN93kWC8/v8YiJc5BBQ5aTGlImKqZFuNdUi/u0AD8zyFyE/WQyN9gH2cJVX+J9xN+EGYQe+MmUOonv77c14ougylyBKKgcIuBgzI6ffye+Ru4IgofSTcRzIgFxQ3vFIHMVooZ2iIExmI05VxF/eWbqnsvp6pgyT8NM1mVE+5qZgwF7IeOnqcL+gPgBRsHW6CZpRcQNLOrwMgr/uEud2O8dOJQwGHEFN73oLkTNGkVpNFaR0Ue0lro74pLmZ0fwa2rzXaZcoQB8D/+XvgEJAhHWXfshtlT+lJDXHITEMvb7+kgXyYSRcwjAaCTCVrWZ/GRkDhGkSewg2DexFTH8vAb9uwNqeowEZ/o1+zZ9k6IAfANxza62n74aMQR5HTHGeBOZRK5BNIAFZPt5EKJ1HVlK+yHfClYDSKpYjOzXJBVL2CEC2hEjjmqtM420COnu6/ElNgcFbYh10UyCHTlsUzeyN3Es2XbgbWoMQRw2ZxDuQ5HV0grgN4gnUS2+tga4OUBSaEHG8jGINdAIRG+wHVKZZdOzDxBFzlpkTF9QSq8gE8piTUsN/B8BAI2qZy7/0QAAAABJRU5ErkJggg==;" parent="1" vertex="1">
          <mxGeometry x="-132.56999999999994" y="650" width="70" height="70" as="geometry" />
        </mxCell>
        <mxCell id="e1xb1ZiiVn83qvHqSyir-82" style="edgeStyle=orthogonalEdgeStyle;rounded=0;orthogonalLoop=1;jettySize=auto;html=1;entryX=0.5;entryY=0;entryDx=0;entryDy=0;strokeWidth=2;" parent="1" source="e1xb1ZiiVn83qvHqSyir-83" target="e1xb1ZiiVn83qvHqSyir-84" edge="1">
          <mxGeometry relative="1" as="geometry">
            <Array as="points">
              <mxPoint x="-97.06999999999994" y="898" />
              <mxPoint x="-97.06999999999994" y="898" />
            </Array>
          </mxGeometry>
        </mxCell>
        <mxCell id="e1xb1ZiiVn83qvHqSyir-83" value="&lt;span style=&quot;font-size: 15px;&quot;&gt;&lt;b style=&quot;font-size: 14px;&quot;&gt;&lt;i&gt;&lt;br&gt;(Dec&lt;sub&gt;sec_key&lt;/sub&gt;(RNG)&lt;sub&gt;pub_key&lt;/sub&gt;)BEV&amp;nbsp;&lt;br&gt;= (RNG)&lt;sub&gt;CSU&lt;/sub&gt;&lt;br&gt;&lt;/i&gt;&lt;/b&gt;&lt;/span&gt;" style="shape=rhombus;perimeter=rhombusPerimeter;whiteSpace=wrap;html=1;align=center;strokeWidth=2;rounded=0;" parent="1" vertex="1">
          <mxGeometry x="-217.6" y="760" width="240.07" height="126" as="geometry" />
        </mxCell>
        <mxCell id="e1xb1ZiiVn83qvHqSyir-84" value="&lt;font style=&quot;font-size: 15px;&quot;&gt;&lt;b&gt;&lt;i&gt;Make &lt;font style=&quot;font-size: 15px;&quot;&gt;Reservation&lt;/font&gt;&lt;/i&gt;&lt;/b&gt;&lt;/font&gt;" style="html=1;whiteSpace=wrap;strokeWidth=2;" parent="1" vertex="1">
          <mxGeometry x="-152.56999999999994" y="938" width="110" height="50" as="geometry" />
        </mxCell>
        <mxCell id="e1xb1ZiiVn83qvHqSyir-85" value="&lt;font size=&quot;1&quot; style=&quot;&quot;&gt;&lt;b style=&quot;&quot;&gt;&lt;i style=&quot;font-size: 14px;&quot;&gt;True&lt;/i&gt;&lt;/b&gt;&lt;/font&gt;" style="text;html=1;align=center;verticalAlign=middle;resizable=0;points=[];autosize=1;strokeColor=none;fillColor=none;" parent="1" vertex="1">
          <mxGeometry x="-175.06999999999994" y="894" width="50" height="30" as="geometry" />
        </mxCell>
        <mxCell id="e1xb1ZiiVn83qvHqSyir-86" style="edgeStyle=orthogonalEdgeStyle;rounded=0;orthogonalLoop=1;jettySize=auto;html=1;strokeWidth=2;startArrow=classic;startFill=1;endArrow=none;endFill=0;entryX=0;entryY=0.5;entryDx=0;entryDy=0;" parent="1" source="e1xb1ZiiVn83qvHqSyir-88" target="e1xb1ZiiVn83qvHqSyir-83" edge="1">
          <mxGeometry relative="1" as="geometry">
            <mxPoint x="-5" y="841.03" as="targetPoint" />
            <Array as="points">
              <mxPoint x="-265" y="823" />
            </Array>
          </mxGeometry>
        </mxCell>
        <mxCell id="AymrNiPB3aUypCCRtmkf-7" style="edgeStyle=orthogonalEdgeStyle;rounded=0;orthogonalLoop=1;jettySize=auto;html=1;endArrow=none;endFill=0;strokeWidth=2;" edge="1" parent="1" source="e1xb1ZiiVn83qvHqSyir-88">
          <mxGeometry relative="1" as="geometry">
            <mxPoint x="-100" y="1020" as="targetPoint" />
            <Array as="points">
              <mxPoint x="-265" y="1020" />
            </Array>
          </mxGeometry>
        </mxCell>
        <mxCell id="e1xb1ZiiVn83qvHqSyir-88" value="&lt;span style=&quot;font-size: 15px;&quot;&gt;&lt;b&gt;&lt;i&gt;Terminate Connection&lt;/i&gt;&lt;/b&gt;&lt;/span&gt;" style="html=1;whiteSpace=wrap;strokeWidth=2;" parent="1" vertex="1">
          <mxGeometry x="-319.99999999999994" y="913.03" width="110" height="50" as="geometry" />
        </mxCell>
        <mxCell id="e1xb1ZiiVn83qvHqSyir-89" value="&lt;b style=&quot;&quot;&gt;&lt;i style=&quot;&quot;&gt;&lt;font style=&quot;font-size: 14px;&quot;&gt;False&lt;/font&gt;&lt;/i&gt;&lt;/b&gt;" style="text;html=1;align=center;verticalAlign=middle;resizable=0;points=[];autosize=1;strokeColor=none;fillColor=none;" parent="1" vertex="1">
          <mxGeometry x="-279.99999999999994" y="790" width="60" height="30" as="geometry" />
        </mxCell>
        <mxCell id="e1xb1ZiiVn83qvHqSyir-90" value="&lt;font size=&quot;1&quot; style=&quot;&quot;&gt;&lt;b style=&quot;&quot;&gt;&lt;i style=&quot;font-size: 17px;&quot;&gt;Verification Contract&lt;/i&gt;&lt;/b&gt;&lt;/font&gt;" style="text;html=1;align=center;verticalAlign=middle;resizable=0;points=[];autosize=1;strokeColor=none;fillColor=none;" parent="1" vertex="1">
          <mxGeometry x="-189.99999999999994" y="620" width="190" height="30" as="geometry" />
        </mxCell>
        <mxCell id="e1xb1ZiiVn83qvHqSyir-91" value="" style="endArrow=classic;html=1;rounded=0;exitX=0.5;exitY=1;exitDx=0;exitDy=0;edgeStyle=orthogonalEdgeStyle;strokeWidth=2;" parent="1" source="e1xb1ZiiVn83qvHqSyir-84" edge="1">
          <mxGeometry width="50" height="50" relative="1" as="geometry">
            <mxPoint x="-540.0699999999999" y="868" as="sourcePoint" />
            <mxPoint x="79" y="890" as="targetPoint" />
            <Array as="points">
              <mxPoint x="-98" y="1020" />
              <mxPoint y="1020" />
              <mxPoint y="890" />
            </Array>
          </mxGeometry>
        </mxCell>
        <mxCell id="AymrNiPB3aUypCCRtmkf-10" style="edgeStyle=elbowEdgeStyle;rounded=0;orthogonalLoop=1;jettySize=auto;html=1;elbow=vertical;curved=0;strokeWidth=2;" edge="1" parent="1" source="aM9ryv3xv72pqoxQDRHE-2" target="aM9ryv3xv72pqoxQDRHE-6">
          <mxGeometry relative="1" as="geometry">
            <Array as="points">
              <mxPoint x="210" y="950" />
            </Array>
          </mxGeometry>
        </mxCell>
        <mxCell id="AymrNiPB3aUypCCRtmkf-11" value="12. BEV Starts Charging&amp;nbsp;" style="text;html=1;align=center;verticalAlign=middle;resizable=0;points=[];autosize=1;strokeColor=none;fillColor=none;fontSize=17;fontStyle=3" vertex="1" parent="1">
          <mxGeometry x="90" y="968" width="220" height="30" as="geometry" />
        </mxCell>
        <mxCell id="AymrNiPB3aUypCCRtmkf-12" style="edgeStyle=elbowEdgeStyle;rounded=0;orthogonalLoop=1;jettySize=auto;html=1;elbow=vertical;curved=0;strokeWidth=2;" edge="1" parent="1" source="aM9ryv3xv72pqoxQDRHE-2" target="aM9ryv3xv72pqoxQDRHE-6">
          <mxGeometry relative="1" as="geometry">
            <Array as="points">
              <mxPoint x="210" y="1080" />
            </Array>
          </mxGeometry>
        </mxCell>
        <mxCell id="AymrNiPB3aUypCCRtmkf-13" value="&lt;font style=&quot;font-size: 17px;&quot;&gt;&lt;i&gt;&lt;b&gt;13. Pay Services Charges &lt;br&gt;Throught Smart Contract&lt;/b&gt;&lt;/i&gt;&lt;/font&gt;" style="text;html=1;align=center;verticalAlign=middle;resizable=0;points=[];autosize=1;strokeColor=none;fillColor=none;" vertex="1" parent="1">
          <mxGeometry x="85" y="1080" width="230" height="50" as="geometry" />
        </mxCell>
        <mxCell id="AymrNiPB3aUypCCRtmkf-14" style="edgeStyle=orthogonalEdgeStyle;rounded=0;orthogonalLoop=1;jettySize=auto;html=1;entryX=0.5;entryY=0;entryDx=0;entryDy=0;strokeWidth=2;" edge="1" source="AymrNiPB3aUypCCRtmkf-15" target="AymrNiPB3aUypCCRtmkf-17" parent="1">
          <mxGeometry relative="1" as="geometry" />
        </mxCell>
        <mxCell id="AymrNiPB3aUypCCRtmkf-15" value="" style="shape=image;verticalLabelPosition=bottom;labelBackgroundColor=default;verticalAlign=top;aspect=fixed;imageAspect=0;image=data:image/png,iVBORw0KGgoAAAANSUhEUgAAAIAAAACACAYAAADDPmHLAAAACXBIWXMAAAOwAAADsAEnxA+tAAAAGXRFWHRTb2Z0d2FyZQB3d3cuaW5rc2NhcGUub3Jnm+48GgAADk9JREFUeJztnXu0FVUdxz/nPkQExQtoGj7CBw/TVIpSsfJVpC01SVFLRc2lZT5aZj5IzdcyH5BZ/qH5otRKWMuAypXlM63Q1GXiFRAEEjJEIUC5lwvee/rjdw7M2XvPnJnZM+cxs79r7bXOmdnzmz2zv/v127/fb6B2mAhsAIo5S8uBnwId9q+weXEq0Ef9K6OeqRPY3vZFNiNOwVV+OU21fJdNB1f5lWmp1dtsMpxMcOWPrV/RaoaBVD5zT32LUztUq/y8EKCdymfeWN/i1AZ+E75eHAEyT4CJmCv/n8CLOAJkmgBBlQ+OAJkmQLXKB0eAzBLAr/JfUvI5AmSQAGErHxwBMkeAKJUPjgCZIkDUygdHgMwQIE7lgyNAJggQt/LBEaDpCWBT+eAI0NQEsK18cARoWgIkUfngCNCUBEiq8sERoOkIkGTlgyNAUxHgJJKtfHAEaBoCpFH54AjQkARoU/5PBH4LFJTj7wK3IOSIi52V/w33MvKOsehWO2mlHmDb2jxWXdHwPYAXM6hN5ReBX9TomeqNhidAi+f3qhrd82ngkhrdy6EKvHOAJcq5+cDcBO+1Bvgz8CgyyXRoAKiTQC9mAVfUqiAO9UFL9SwOWYYjQM4RNATYoBXYHxickvxGQC/i8buy3gWxQRoEaAH+BByVguxGQw9wPPB4vQsSF2kMAaPJR+UD9APOrXchbJAGAVYA3SnIbVSoy+emQhpDwCrgRKRlDEhBfiOhE7i+3oWwQVqTwMdKyaHB4ZaBOYcjQM7hCJBzOALkHI4AOYcjQM6R1jIQZB8gy5Ex+4BlyJ5A0yItAjwAnJmS7EbC+8AxVIbCaSqkMQSMIB+VDzAU+H69C2GDNAjwAfBRCnIbFf+rdwFskMYQ8F/gfOACJFRqljEXtxdgxD2l5NDgcMvAnMMRIOdwBMg5HAFyDkeAnMMRIOdwBMg50iLAtYgzaK3czYPSGuCalJ6z6ZGGImh35IWrUUbqhUEIIacBb6d0j1bgOOArwL7IOxiE+A140YZ4Xa8BFgMLSv9fLf2uOdIgQKNUfNrYB7gSOBLYiXDPXQBGln5/Tjn3DvAU8BdgJrAumWKGx+VUdp03W8i6HlhLfbp8Na1FeoAk0B+YgsRMSrPMXcDDwHhq2KCSJEDW0IEEz9pE7Qk8FziDlPZt0rQIygLagLuBScg4H4Qi4im8CHgd+BewEOna1yNd+oBS+hhiNzEC+BQwDv+d032BXwJXAZcCs2M/TRW4HqASJyCVFtQ6uxFP6FMIbkz9qpxvR0hwI+JrGHTPWcAn4j1SMBwBBK3AHwmuhNcJHzPxYcR+sA/4SYj8BeALpev8hpz1wFkh7x8ajgCwF9KN+1X8C8AnI8rzXt+LrBjCYk/ErmKjT3l+RYJGN3knwHj8X/Q7wMExZM42yLo7hpx9gWd9yvYaMCyGTA15JsBJmKOk9gI/jinzCIO8sszPxJBXAM5GbC5VmUvZol+IjbwSwO9j12uAT8eU2Yq0TL+h5Hnir+9H+ch+D1lRREJay8BzEKPQWsQD3ojMjK9EXkQUfBV4CL0y5gNjiB/p5Dxgv4Dz45AgGjNiyJ6PaBEfAiZ4jg9FViTjiBm1JKkeYGfqozA5OmI5D0DM11U5c7DTvnUgrbFaed8GtrG4Tytwl0Hum8COYYWksRu4LfVRMHVEyLs18Ay6cudF4CCi9yReXIe0xmrYFTunkl7g28DtyvG9gUeorrjSkOQcYBrRW7BNmkO01jTHIGMe9nr30fivJIqGc13Abpb3LAD3G+51bZiL02qpZyIRwWvhHNqNOKOExTXoO3ErkQmUTcsHaY3tnv9LgOGe/5uQIFplXUB/4CbgNIt7FpE5x27IzmQZVyNLx6fDCsrDKmAI+vzkI6Tl2uJ49FZ4svL/QyR6mvdYH3BoAvffEfiPInshMtyFQh4I8Bx6JV2QgNytEIMOr9wnkY0flQAtiDex9/jLJDMfOwx9YhvaGirrBPgi5rlDErhMkfsRsgw0EQBkqabqHs5MqCx3KHK7Cbl5lHUCvEXl8/UCH09A7o7o9o8/L53zIwDAdOXcCmC7BMqzHfpQcFeYC7NMgEPQW//9Ccm+T5G7mi3LwCAC7Irs6nnPx1U7qzhDkbsB2KXaRVkmwMtUPlsPESZHATgQfQ/BO6cIIgCI6Zxarr0TKFcrohDyylb1BRqySoAO9PE2ia+WFYC/KnI7qVwGViNAf+DfSp5HEygbwLcUuavRrZRT0wMcjaxNaxEsehOy7eo3zt1EpYKniEzabHEq8Hnl2CWl8oRFNzAZ0euXcQLwZeQDWzZ4EHn2slq4A9n78CVYUj3AEETDpY65aSe1MspQDTxejflcXvRHtmC9cmca8lXrAUDIqS5PO0mmcaorAq2MaewF7IS8oFpjuOHYEGAH5ditCdzrcsT5o4yNmHsVdU+gHXEY8aIIXEzlp/T2IZkPUTyo/B9PQN0k1QO0AE8QrxXHTYsxf59ospIviS937oK05KB3dQBi+aPO8ouIQcfdiJWPFw8o+VYhBLbFEkXu4d6TacwB+hCmHUC0Hbq46EK69S7DuQnK/0UJ3G8KlXObd5HlWwsyxl5E8CdzBiKt+1zgb0g3/SjyjcYJbNEFDEa0eBdblvcpxJKojMPx2R/I4ipANZ+601LeIegrivORSlpKcC8VlBYh7/865fgmgg1LwuCbisxn/DJmjQAF9MoaZyHPpMN/n2gTXpPpmTetQ+IOeo89YVFmgD0UeSv8MmaNAOXtXe/Lt9nvP4fwFV1E7P5OU459iAwPv6c6GbzpWItytyDLTa8849CcNQJcROXzrLeQtT3hnF3XI/qIsu9A0DJwJDL+h4mjsBI7zaVqRLrZHiLLEULUPf61FrJmErxRsxRZBu6CmGl1hpC5AJk7DCtd81pA3h2QVUJcLFX+b3ZOyTIB1PW/DQFG+RxfjPgF7gXcRry4weuRZeH+SICJeT754pqogx5rYLM3UZYJoJqk2xDgEZ/jewC3ICbeNvOLFkR3Pw1/6ySbHkAlwObeLMsE2Er5v8FC1sXAhcByw7ndkdgBzwFjY8g+DHgJuBez3+BC4HTstopVHclmA9osE0DdlGk35gqPO5HKnoT5i+HjEOfR6VSqif2wG+Lc+TSyraziHWRDbRSVm0VxoFpMbyZElgmgbrwksTPZh1TaSKTr71HOFxA/wzeQVZTpngMQk+0FSMtW0V2SPQrZtu4z5IkKdTj8wJQpa8vAe6l8nrdSuMfe6KZd3qSaZm1AFDF+SqLppBP8YZZyr+PLJ7LcA6gh4UybRVEwHmmx3t28hcBERLljWsapNof9kPAwKuYgauaJVC7ZBiPmXYcbrokCdaf0XVOmrPUAR1H5PDafsbnUI+c94DvoG2ktSGX5tXBTWo5sCqkNsR2ZeK725D0vZtlb0NXVxsaQNQJsg/7C47phvWCQNRf4kiHvQGSMV9WvqsbwZszRPY5GdAHqNXH3BIYrcoytH7JHANAr4YqYcm7DvzJnI9G+VJRn+Wp+v1XCKOCxgPtcF7PspypynvXLmEUCvEHlMz0fU84AdCtbb9qIaPNMXsFnIx+YXAJ8zXC+A3nXPQHy5xHfyuoeRdYNfhmzSADVJs5kkxcWh2COJ+BNq5CxO4yhTRsy/leLOroJ+KxFuRcr8o7wy5hFAoxAf6Fxgj2VcatBnl+LPSZAzpFIIMkwsn5kUd4xiqxuamAT2GhQt3Eft5DVj/AVV0QCP3vDylXTG6jpZew0mLcr8mYFZc4qAR6m8rl6sNN/HIg+Xvdgjt5VPje1lPzG+fLXVr3HurBzW29HX5KeGHRBVgmgLoOK2H/t8yqDzMuQiWC1eYI3lVXLNxrO2RqDnqXIM3oGeZFVAoBo7LzPtg677ds29DAza5Cl3xh0lzFTegGZj+yJ3ns8iV0v1YpEE/PKvKPaRVkmwAkkO7kCc8U9wRZiHYs58PMyRGNYQIj0D8xEsoFqCdyDeCMHIssEAFG7qi/FNs7uhegV/F3P+aGGe3pn4T80XD/Jskzboj9rKGfYrBNgAvrLftJSZgHdC2o9WzSDQUahpsnk7yzLAxKR3CuzG7PbnIasEwDMS7iwYd/9MIzKTZsi0q234k+AfuiWuisx7xRGwaHoQbCuDXvxD5QLqwYUaELsih7QoQf7UDGT0Ik1GX8CTDHk/7plGQajeyctIoI5+emGQuUlLcPeNmKGInMj4rKuEmAc+lLxPst7tyFxgr0yewn2UdSwA7rXa57S9Cgvy4Ch6IoXdVv3Q/Ql6TLsAmoW0OMUFQnY9AnCOURzWcpauirOS/PguCry1fG5F3trn5sN93kWC8/v8YiJc5BBQ5aTGlImKqZFuNdUi/u0AD8zyFyE/WQyN9gH2cJVX+J9xN+EGYQe+MmUOonv77c14ougylyBKKgcIuBgzI6ffye+Ru4IgofSTcRzIgFxQ3vFIHMVooZ2iIExmI05VxF/eWbqnsvp6pgyT8NM1mVE+5qZgwF7IeOnqcL+gPgBRsHW6CZpRcQNLOrwMgr/uEud2O8dOJQwGHEFN73oLkTNGkVpNFaR0Ue0lro74pLmZ0fwa2rzXaZcoQB8D/+XvgEJAhHWXfshtlT+lJDXHITEMvb7+kgXyYSRcwjAaCTCVrWZ/GRkDhGkSewg2DexFTH8vAb9uwNqeowEZ/o1+zZ9k6IAfANxza62n74aMQR5HTHGeBOZRK5BNIAFZPt5EKJ1HVlK+yHfClYDSKpYjOzXJBVL2CEC2hEjjmqtM420COnu6/ElNgcFbYh10UyCHTlsUzeyN3Es2XbgbWoMQRw2ZxDuQ5HV0grgN4gnUS2+tga4OUBSaEHG8jGINdAIRG+wHVKZZdOzDxBFzlpkTF9QSq8gE8piTUsN/B8BAI2qZy7/0QAAAABJRU5ErkJggg==;" vertex="1" parent="1">
          <mxGeometry x="-126.56999999999994" y="1118" width="70" height="70" as="geometry" />
        </mxCell>
        <mxCell id="AymrNiPB3aUypCCRtmkf-16" style="edgeStyle=orthogonalEdgeStyle;rounded=0;orthogonalLoop=1;jettySize=auto;html=1;entryX=0.5;entryY=0;entryDx=0;entryDy=0;strokeWidth=2;" edge="1" source="AymrNiPB3aUypCCRtmkf-17" target="AymrNiPB3aUypCCRtmkf-18" parent="1">
          <mxGeometry relative="1" as="geometry">
            <Array as="points">
              <mxPoint x="-91.06999999999994" y="1350" />
              <mxPoint x="-91.06999999999994" y="1350" />
            </Array>
          </mxGeometry>
        </mxCell>
        <mxCell id="AymrNiPB3aUypCCRtmkf-17" value="&lt;font size=&quot;1&quot; style=&quot;&quot;&gt;&lt;i style=&quot;&quot;&gt;&lt;b style=&quot;font-size: 15px;&quot;&gt;BEV to CSU: BILLING&lt;br&gt;Through SC&lt;sub&gt;Billing&lt;/sub&gt;&lt;br&gt;&lt;/b&gt;&lt;/i&gt;&lt;/font&gt;" style="shape=rhombus;perimeter=rhombusPerimeter;whiteSpace=wrap;html=1;align=center;strokeWidth=2;rounded=0;" vertex="1" parent="1">
          <mxGeometry x="-211.6" y="1240" width="240.07" height="110" as="geometry" />
        </mxCell>
        <mxCell id="AymrNiPB3aUypCCRtmkf-18" value="&lt;span style=&quot;font-size: 15px;&quot;&gt;&lt;b&gt;&lt;i&gt;Send Receipt&lt;/i&gt;&lt;/b&gt;&lt;/span&gt;" style="html=1;whiteSpace=wrap;strokeWidth=2;" vertex="1" parent="1">
          <mxGeometry x="-146.57" y="1390" width="110" height="50" as="geometry" />
        </mxCell>
        <mxCell id="AymrNiPB3aUypCCRtmkf-19" value="&lt;font size=&quot;1&quot; style=&quot;&quot;&gt;&lt;b style=&quot;&quot;&gt;&lt;i style=&quot;font-size: 14px;&quot;&gt;True&lt;/i&gt;&lt;/b&gt;&lt;/font&gt;" style="text;html=1;align=center;verticalAlign=middle;resizable=0;points=[];autosize=1;strokeColor=none;fillColor=none;" vertex="1" parent="1">
          <mxGeometry x="-152.56999999999994" y="1346" width="50" height="30" as="geometry" />
        </mxCell>
        <mxCell id="AymrNiPB3aUypCCRtmkf-24" value="&lt;span style=&quot;font-size: 17px;&quot;&gt;&lt;b&gt;&lt;i&gt;Invoice Contract&lt;/i&gt;&lt;/b&gt;&lt;/span&gt;" style="text;html=1;align=center;verticalAlign=middle;resizable=0;points=[];autosize=1;strokeColor=none;fillColor=none;" vertex="1" parent="1">
          <mxGeometry x="-177.56999999999994" y="1088" width="160" height="30" as="geometry" />
        </mxCell>
        <mxCell id="AymrNiPB3aUypCCRtmkf-25" value="" style="endArrow=classic;html=1;rounded=0;exitX=0.5;exitY=1;exitDx=0;exitDy=0;edgeStyle=orthogonalEdgeStyle;strokeWidth=2;" edge="1" source="AymrNiPB3aUypCCRtmkf-18" parent="1">
          <mxGeometry width="50" height="50" relative="1" as="geometry">
            <mxPoint x="-534.0699999999999" y="1320" as="sourcePoint" />
            <mxPoint x="70" y="1342" as="targetPoint" />
            <Array as="points">
              <mxPoint x="-92" y="1472" />
              <mxPoint x="6" y="1472" />
              <mxPoint x="6" y="1342" />
            </Array>
          </mxGeometry>
        </mxCell>
        <mxCell id="AymrNiPB3aUypCCRtmkf-28" style="edgeStyle=elbowEdgeStyle;rounded=0;orthogonalLoop=1;jettySize=auto;html=1;elbow=vertical;curved=0;strokeWidth=2;" edge="1" parent="1">
          <mxGeometry relative="1" as="geometry">
            <mxPoint x="326.70999999999987" y="1210" as="sourcePoint" />
            <mxPoint x="800" y="1210" as="targetPoint" />
          </mxGeometry>
        </mxCell>
        <mxCell id="AymrNiPB3aUypCCRtmkf-29" value="&lt;font style=&quot;font-size: 17px;&quot;&gt;&lt;b&gt;&lt;i&gt;13. Send Transaction Details to the UDC&lt;/i&gt;&lt;/b&gt;&lt;/font&gt;" style="text;html=1;align=center;verticalAlign=middle;resizable=0;points=[];autosize=1;strokeColor=none;fillColor=default;" vertex="1" parent="1">
          <mxGeometry x="410" y="1178" width="350" height="30" as="geometry" />
        </mxCell>
        <mxCell id="AymrNiPB3aUypCCRtmkf-30" style="edgeStyle=elbowEdgeStyle;rounded=0;orthogonalLoop=1;jettySize=auto;html=1;elbow=vertical;curved=0;strokeWidth=2;" edge="1" parent="1">
          <mxGeometry relative="1" as="geometry">
            <mxPoint x="819" y="1212" as="sourcePoint" />
            <mxPoint x="1032.5" y="1212" as="targetPoint" />
            <Array as="points">
              <mxPoint x="890" y="1212" />
            </Array>
          </mxGeometry>
        </mxCell>
        <mxCell id="AymrNiPB3aUypCCRtmkf-31" value="&lt;font style=&quot;font-size: 17px;&quot;&gt;&lt;b style=&quot;&quot;&gt;&lt;i&gt;14. &lt;br&gt;Transmitts to Blockchain&lt;br&gt;&amp;nbsp;Network for Creating&lt;br&gt;&amp;nbsp; a Valid Transaction.&lt;/i&gt;&lt;/b&gt;&lt;/font&gt;" style="text;html=1;align=center;verticalAlign=middle;resizable=0;points=[];autosize=1;strokeColor=none;fillColor=none;" vertex="1" parent="1">
          <mxGeometry x="810" y="1115" width="230" height="100" as="geometry" />
        </mxCell>
        <mxCell id="AymrNiPB3aUypCCRtmkf-38" value="&lt;font style=&quot;font-size: 17px;&quot;&gt;&lt;b&gt;&lt;i&gt;15. Create The &lt;br&gt;Block&lt;br&gt;&amp;nbsp;With MRH&lt;/i&gt;&lt;/b&gt;&lt;/font&gt;" style="text;html=1;align=center;verticalAlign=middle;resizable=0;points=[];autosize=1;strokeColor=none;fillColor=none;" vertex="1" parent="1">
          <mxGeometry x="1070" y="1220" width="140" height="70" as="geometry" />
        </mxCell>
        <mxCell id="AymrNiPB3aUypCCRtmkf-43" value="&lt;font style=&quot;font-size: 17px;&quot;&gt;&lt;b&gt;&lt;i&gt;16.&lt;br&gt;Verify and Validate &lt;br&gt;Then Add The&lt;br&gt;&amp;nbsp;Block to Ledger&lt;/i&gt;&lt;/b&gt;&lt;/font&gt;" style="text;html=1;align=center;verticalAlign=middle;resizable=0;points=[];autosize=1;strokeColor=none;fillColor=none;" vertex="1" parent="1">
          <mxGeometry x="810" y="1305" width="170" height="100" as="geometry" />
        </mxCell>
      </root>
    </mxGraphModel>
  </diagram>
</mxfile>
